<svg xmlns="http://www.w3.org/2000/svg" width="800" height="1000" viewBox="0 0 800 1000">
  <defs>
    <linearGradient id="bg" x1="0" y1="0" x2="1" y2="1">
      <stop offset="0" stop-color="#1e6e8c"/>
      <stop offset="1" stop-color="#2b90b6"/>
    </linearGradient>
  </defs>
  <rect width="800" height="1000" fill="url(#bg)"/>
  <circle cx="650" cy="200" r="120" fill="#ffffff" opacity="0.08"/>
  <circle cx="150" cy="820" r="90" fill="#ffffff" opacity="0.08"/>
  <g>
    <rect x="170" y="300" width="430" height="270" rx="20" fill="#ffffff" opacity="0.18"/>
    <rect x="205" y="365" width="430" height="270" rx="20" fill="#ffffff" opacity="0.32"/>
    <rect x="240" y="430" width="430" height="270" rx="20" fill="#ffffff"/>
    <rect x="270" y="468" width="150" height="22" rx="11" fill="#2b90b6"/>
    <rect x="270" y="512" width="330" height="14" rx="7" fill="#1e6e8c" opacity="0.35"/>
    <rect x="270" y="540" width="300" height="14" rx="7" fill="#1e6e8c" opacity="0.35"/>
    <rect x="270" y="568" width="250" height="14" rx="7" fill="#1e6e8c" opacity="0.35"/>
    <rect x="270" y="612" width="60" height="60" rx="12" fill="#2b90b6" opacity="0.85"/>
    <rect x="346" y="612" width="60" height="60" rx="12" fill="#0ea672" opacity="0.85"/>
    <rect x="422" y="612" width="60" height="60" rx="12" fill="#8b5cf6" opacity="0.85"/>
  </g>
</svg>
