<?xml version="1.0" encoding="utf-8" standalone="no"?>
<!DOCTYPE svg PUBLIC "-//W3C//DTD SVG 1.1//EN"
  "http://www.w3.org/Graphics/SVG/1.1/DTD/svg11.dtd">
<svg xmlns:xlink="http://www.w3.org/1999/xlink" width="252pt" height="172.815391pt" viewBox="0 0 252 172.815391" xmlns="http://www.w3.org/2000/svg" version="1.1">
 <metadata>
  <rdf:RDF xmlns:dc="http://purl.org/dc/elements/1.1/" xmlns:cc="http://creativecommons.org/ns#" xmlns:rdf="http://www.w3.org/1999/02/22-rdf-syntax-ns#">
   <cc:Work>
    <dc:type rdf:resource="http://purl.org/dc/dcmitype/StillImage"/>
    <dc:date>2026-06-09T18:41:58.072525</dc:date>
    <dc:format>image/svg+xml</dc:format>
    <dc:creator>
     <cc:Agent>
      <dc:title>Matplotlib v3.10.9, https://matplotlib.org/</dc:title>
     </cc:Agent>
    </dc:creator>
   </cc:Work>
  </rdf:RDF>
 </metadata>
 <defs>
  <style type="text/css">*{stroke-linejoin: round; stroke-linecap: butt}</style>
 </defs>
 <g id="figure_1">
  <g id="patch_1">
   <path d="M 0 172.815391 
L 252 172.815391 
L 252 0 
L 0 0 
L 0 172.815391 
z
" style="fill: none; opacity: 0"/>
  </g>
  <g id="axes_1">
   <g id="patch_2">
    <path d="M 7.2 149.46 
L 244.8 149.46 
L 244.8 7.2 
L 7.2 7.2 
L 7.2 149.46 
z
" style="fill: none; opacity: 0"/>
   </g>
   <g id="matplotlib.axis_1">
    <g id="xtick_1">
     <g id="line2d_1">
      <defs>
       <path id="md6095f5f82" d="M 0 0 
L 0 4 
" style="stroke: #94a3b8; stroke-width: 0.8"/>
      </defs>
      <g>
       <use xlink:href="#md6095f5f82" x="116.571429" y="149.46" style="fill: #94a3b8; stroke: #94a3b8; stroke-width: 0.8"/>
      </g>
     </g>
     <g id="text_1">
      <text style="font-size: 9.5px; font-family: 'Inter Tight', 'Inter', 'Helvetica Neue', 'Arial', 'DejaVu Sans'; text-anchor: middle; fill: #334155" x="116.571429" y="163.743594" transform="rotate(-0 116.571429 163.743594)">75</text>
     </g>
    </g>
    <g id="xtick_2">
     <g id="line2d_2">
      <g>
       <use xlink:href="#md6095f5f82" x="135.428571" y="149.46" style="fill: #94a3b8; stroke: #94a3b8; stroke-width: 0.8"/>
      </g>
     </g>
     <g id="text_2">
      <text style="font-size: 9.5px; font-family: 'Inter Tight', 'Inter', 'Helvetica Neue', 'Arial', 'DejaVu Sans'; text-anchor: middle; fill: #334155" x="135.428571" y="163.743594" transform="rotate(-0 135.428571 163.743594)">80</text>
     </g>
    </g>
   </g>
   <g id="matplotlib.axis_2"/>
   <g id="FillBetweenPolyCollection_1">
    <defs>
     <path id="ma9f83204af" d="M 7.2 -23.355391 
L 7.2 -23.355391 
L 7.59666 -23.355391 
L 7.993324 -23.355391 
L 8.389984 -23.355391 
L 8.786644 -23.355391 
L 9.183304 -23.355391 
L 9.579968 -23.355391 
L 9.976628 -23.355391 
L 10.373288 -23.355391 
L 10.769951 -23.355391 
L 11.166611 -23.355391 
L 11.563271 -23.355391 
L 11.959935 -23.355391 
L 12.356595 -23.355391 
L 12.753255 -23.355391 
L 13.149915 -23.355391 
L 13.546579 -23.355391 
L 13.943239 -23.355391 
L 14.339899 -23.355391 
L 14.736563 -23.355391 
L 15.133223 -23.355391 
L 15.529883 -23.355391 
L 15.926543 -23.355391 
L 16.323206 -23.355391 
L 16.719866 -23.355391 
L 17.116526 -23.355391 
L 17.51319 -23.355391 
L 17.90985 -23.355391 
L 18.30651 -23.355391 
L 18.70317 -23.355391 
L 19.099834 -23.355391 
L 19.496494 -23.355391 
L 19.893154 -23.355391 
L 20.289818 -23.355391 
L 20.686478 -23.355391 
L 21.083138 -23.355391 
L 21.479801 -23.355391 
L 21.876461 -23.355391 
L 22.273121 -23.355391 
L 22.669781 -23.355391 
L 23.066445 -23.355391 
L 23.463105 -23.355391 
L 23.859765 -23.355391 
L 24.256429 -23.355391 
L 24.653089 -23.355391 
L 25.049749 -23.355391 
L 25.446409 -23.355391 
L 25.843073 -23.355391 
L 26.239733 -23.355391 
L 26.636393 -23.355391 
L 27.033057 -23.355391 
L 27.429717 -23.355391 
L 27.826377 -23.355391 
L 28.223037 -23.355391 
L 28.6197 -23.355391 
L 29.01636 -23.355391 
L 29.41302 -23.355391 
L 29.809684 -23.355391 
L 30.206344 -23.355391 
L 30.603004 -23.355391 
L 30.999668 -23.355391 
L 31.396328 -23.355391 
L 31.792988 -23.355391 
L 32.189648 -23.355391 
L 32.586312 -23.355391 
L 32.982972 -23.355391 
L 33.379632 -23.355391 
L 33.776295 -23.355391 
L 34.172955 -23.355391 
L 34.569615 -23.355391 
L 34.966275 -23.355391 
L 35.362939 -23.355391 
L 35.759599 -23.355391 
L 36.156259 -23.355391 
L 36.552923 -23.355391 
L 36.949583 -23.355391 
L 37.346243 -23.355391 
L 37.742903 -23.355391 
L 38.139567 -23.355391 
L 38.536227 -23.355391 
L 38.932887 -23.355391 
L 39.329551 -23.355391 
L 39.726211 -23.355391 
L 40.122871 -23.355391 
L 40.519534 -23.355391 
L 40.916194 -23.355391 
L 41.312854 -23.355391 
L 41.709514 -23.355391 
L 42.106178 -23.355391 
L 42.502838 -23.355391 
L 42.899498 -23.355391 
L 43.296162 -23.355391 
L 43.692822 -23.355391 
L 44.089482 -23.355391 
L 44.486142 -23.355391 
L 44.882806 -23.355391 
L 45.279466 -23.355391 
L 45.676126 -23.355391 
L 46.072789 -23.355391 
L 46.469449 -23.355391 
L 46.866109 -23.355391 
L 47.262773 -23.355391 
L 47.659433 -23.355391 
L 48.056093 -23.355391 
L 48.452753 -23.355391 
L 48.849417 -23.355391 
L 49.246077 -23.355391 
L 49.642737 -23.355391 
L 50.039401 -23.355391 
L 50.436061 -23.355391 
L 50.832721 -23.355391 
L 51.229381 -23.355391 
L 51.626044 -23.355391 
L 52.022704 -23.355391 
L 52.419364 -23.355391 
L 52.816028 -23.355391 
L 53.212688 -23.355391 
L 53.609348 -23.355391 
L 54.006008 -23.355391 
L 54.402672 -23.355391 
L 54.799332 -23.355391 
L 55.195992 -23.355391 
L 55.592656 -23.355391 
L 55.989316 -23.355391 
L 56.385976 -23.355391 
L 56.78264 -23.355391 
L 57.1793 -23.355391 
L 57.57596 -23.355391 
L 57.97262 -23.355391 
L 58.369283 -23.355391 
L 58.765943 -23.355391 
L 59.162603 -23.355391 
L 59.559267 -23.355391 
L 59.955927 -23.355391 
L 60.352587 -23.355391 
L 60.749247 -23.355391 
L 61.145911 -23.355391 
L 61.542571 -23.355391 
L 61.939231 -23.355391 
L 62.335895 -23.355391 
L 62.732555 -23.355391 
L 63.129215 -23.355391 
L 63.525875 -23.355391 
L 63.922538 -23.355391 
L 64.319198 -23.355391 
L 64.715858 -23.355391 
L 65.112522 -23.355391 
L 65.509182 -23.355391 
L 65.905842 -23.355391 
L 66.302506 -23.355391 
L 66.699166 -23.355391 
L 67.095826 -23.355391 
L 67.492486 -23.355391 
L 67.88915 -23.355391 
L 68.28581 -23.355391 
L 68.68247 -23.355391 
L 69.079133 -23.355391 
L 69.475793 -23.355391 
L 69.872453 -23.355391 
L 70.269113 -23.355391 
L 70.665777 -23.355391 
L 71.062437 -23.355391 
L 71.459097 -23.355391 
L 71.855761 -23.355391 
L 72.252421 -23.355396 
L 72.649081 -23.355396 
L 73.045741 -23.355396 
L 73.442405 -23.355402 
L 73.839065 -23.355402 
L 74.235725 -23.355407 
L 74.632389 -23.355413 
L 75.029049 -23.355418 
L 75.425709 -23.355429 
L 75.822372 -23.35544 
L 76.219032 -23.355456 
L 76.615692 -23.355478 
L 77.012352 -23.355506 
L 77.409016 -23.355544 
L 77.805676 -23.355594 
L 78.202336 -23.355654 
L 78.599 -23.355736 
L 78.99566 -23.355835 
L 79.39232 -23.355972 
L 79.78898 -23.356142 
L 80.185644 -23.356362 
L 80.582304 -23.356636 
L 80.978964 -23.356993 
L 81.375627 -23.357437 
L 81.772287 -23.358002 
L 82.168947 -23.358716 
L 82.565611 -23.359615 
L 82.962271 -23.360735 
L 83.358931 -23.362139 
L 83.755591 -23.363884 
L 84.152255 -23.366051 
L 84.548915 -23.36874 
L 84.945575 -23.372053 
L 85.342239 -23.376135 
L 85.738899 -23.38115 
L 86.135559 -23.387279 
L 86.532219 -23.394762 
L 86.928883 -23.40387 
L 87.325543 -23.41492 
L 87.722203 -23.42828 
L 88.118866 -23.444394 
L 88.515526 -23.463773 
L 88.912186 -23.487009 
L 89.308846 -23.514782 
L 89.70551 -23.547882 
L 90.10217 -23.58721 
L 90.49883 -23.633808 
L 90.895494 -23.68885 
L 91.292154 -23.753668 
L 91.688814 -23.829767 
L 92.085478 -23.918853 
L 92.482138 -24.022819 
L 92.878798 -24.143782 
L 93.275458 -24.284096 
L 93.672121 -24.446362 
L 94.068781 -24.633444 
L 94.465441 -24.848469 
L 94.862105 -25.094851 
L 95.258765 -25.376302 
L 95.655425 -25.696802 
L 96.052085 -26.06064 
L 96.448749 -26.472382 
L 96.845409 -26.936877 
L 97.242069 -27.459228 
L 97.638733 -28.044775 
L 98.035393 -28.699068 
L 98.432053 -29.427836 
L 98.828713 -30.236939 
L 99.225376 -31.132313 
L 99.622036 -32.119912 
L 100.018696 -33.205649 
L 100.41536 -34.395314 
L 100.81202 -35.694491 
L 101.20868 -37.108469 
L 101.605344 -38.642143 
L 102.002004 -40.299919 
L 102.398664 -42.085609 
L 102.795324 -44.002302 
L 103.191988 -46.052281 
L 103.588648 -48.236891 
L 103.985308 -50.556449 
L 104.381972 -53.010121 
L 104.778632 -55.595845 
L 105.175292 -58.310224 
L 105.571952 -61.148473 
L 105.968615 -64.104339 
L 106.365275 -67.170053 
L 106.761935 -70.336313 
L 107.158599 -73.592258 
L 107.555259 -76.925497 
L 107.951919 -80.322146 
L 108.348579 -83.766862 
L 108.745243 -87.242951 
L 109.141903 -90.732476 
L 109.538563 -94.216356 
L 109.935227 -97.674569 
L 110.331887 -101.086295 
L 110.728547 -104.430118 
L 111.12521 -107.684257 
L 111.52187 -110.826777 
L 111.91853 -113.835836 
L 112.31519 -116.689937 
L 112.711854 -119.368181 
L 113.108514 -121.850515 
L 113.505174 -124.117989 
L 113.901838 -126.152984 
L 114.298498 -127.939459 
L 114.695158 -129.463131 
L 115.091818 -130.711705 
L 115.488482 -131.675003 
L 115.885142 -132.34512 
L 116.281802 -132.716529 
L 116.678465 -132.78616 
L 117.075125 -132.553435 
L 117.471785 -132.020275 
L 117.868449 -131.191096 
L 118.265109 -130.072708 
L 118.661769 -128.674268 
L 119.058429 -127.007105 
L 119.455093 -125.084617 
L 119.851753 -122.922059 
L 120.248413 -120.536354 
L 120.645077 -117.945857 
L 121.041737 -115.17016 
L 121.438397 -112.229788 
L 121.835057 -109.146008 
L 122.231721 -105.940523 
L 122.628381 -102.63526 
L 123.025041 -99.252103 
L 123.421704 -95.812665 
L 123.818364 -92.338058 
L 124.215024 -88.848702 
L 124.611684 -85.364126 
L 125.008348 -81.902818 
L 125.405008 -78.482051 
L 125.801668 -75.117812 
L 126.198332 -71.824652 
L 126.594992 -68.615667 
L 126.991652 -65.502423 
L 127.388316 -62.494939 
L 127.784976 -59.601681 
L 128.181636 -56.829594 
L 128.578296 -54.184143 
L 128.974959 -51.66935 
L 129.371619 -49.287887 
L 129.768279 -47.041125 
L 130.164943 -44.929285 
L 130.561603 -42.951465 
L 130.958263 -41.105812 
L 131.354923 -39.389588 
L 131.751587 -37.799298 
L 132.148247 -36.330804 
L 132.544907 -34.979417 
L 132.941571 -33.740022 
L 133.338231 -32.607155 
L 133.734891 -31.575109 
L 134.131551 -30.63802 
L 134.528215 -29.789946 
L 134.924875 -29.024933 
L 135.321535 -28.337073 
L 135.718198 -27.720582 
L 136.114858 -27.169821 
L 136.511518 -26.679341 
L 136.908182 -26.243936 
L 137.304842 -25.858629 
L 137.701502 -25.518729 
L 138.098162 -25.219819 
L 138.494826 -24.957773 
L 138.891486 -24.728752 
L 139.288146 -24.529215 
L 139.68481 -24.355899 
L 140.08147 -24.205813 
L 140.47813 -24.076253 
L 140.87479 -23.964738 
L 141.271453 -23.869051 
L 141.668113 -23.787197 
L 142.064773 -23.717385 
L 142.461437 -23.65802 
L 142.858097 -23.607692 
L 143.254757 -23.565154 
L 143.651421 -23.529305 
L 144.048081 -23.499183 
L 144.444741 -23.473951 
L 144.841401 -23.452876 
L 145.238065 -23.43533 
L 145.634725 -23.420758 
L 146.031385 -23.408693 
L 146.428048 -23.398735 
L 146.824708 -23.390543 
L 147.221368 -23.383817 
L 147.618028 -23.378319 
L 148.014692 -23.373831 
L 148.411352 -23.370177 
L 148.808012 -23.36722 
L 149.204676 -23.364828 
L 149.601336 -23.362896 
L 149.997996 -23.361344 
L 150.394656 -23.360098 
L 150.79132 -23.359105 
L 151.18798 -23.358315 
L 151.58464 -23.357684 
L 151.981304 -23.357185 
L 152.377964 -23.35679 
L 152.774624 -23.356477 
L 153.171287 -23.356236 
L 153.567947 -23.356044 
L 153.964607 -23.355895 
L 154.361267 -23.35578 
L 154.757931 -23.355687 
L 155.154591 -23.355621 
L 155.551251 -23.355566 
L 155.947915 -23.355522 
L 156.344575 -23.355489 
L 156.741235 -23.355467 
L 157.137895 -23.355445 
L 157.534559 -23.355435 
L 157.931219 -23.355424 
L 158.327879 -23.355413 
L 158.724542 -23.355407 
L 159.121202 -23.355402 
L 159.517862 -23.355402 
L 159.914522 -23.355396 
L 160.311186 -23.355396 
L 160.707846 -23.355396 
L 161.104506 -23.355396 
L 161.50117 -23.355391 
L 161.89783 -23.355391 
L 162.29449 -23.355391 
L 162.691154 -23.355391 
L 163.087814 -23.355391 
L 163.484474 -23.355391 
L 163.881134 -23.355391 
L 164.277797 -23.355391 
L 164.674457 -23.355391 
L 165.071117 -23.355391 
L 165.467781 -23.355391 
L 165.864441 -23.355391 
L 166.261101 -23.355391 
L 166.657761 -23.355391 
L 167.054425 -23.355391 
L 167.451085 -23.355391 
L 167.847745 -23.355391 
L 168.244409 -23.355391 
L 168.641069 -23.355391 
L 169.037729 -23.355391 
L 169.434389 -23.355391 
L 169.831053 -23.355391 
L 170.227713 -23.355391 
L 170.624373 -23.355391 
L 171.021036 -23.355391 
L 171.417696 -23.355391 
L 171.814356 -23.355391 
L 172.21102 -23.355391 
L 172.60768 -23.355391 
L 173.00434 -23.355391 
L 173.401 -23.355391 
L 173.797664 -23.355391 
L 174.194324 -23.355391 
L 174.590984 -23.355391 
L 174.987648 -23.355391 
L 175.384308 -23.355391 
L 175.780968 -23.355391 
L 176.177628 -23.355391 
L 176.574291 -23.355391 
L 176.970951 -23.355391 
L 177.367611 -23.355391 
L 177.764275 -23.355391 
L 178.160935 -23.355391 
L 178.557595 -23.355391 
L 178.954259 -23.355391 
L 179.350919 -23.355391 
L 179.747579 -23.355391 
L 180.144239 -23.355391 
L 180.540903 -23.355391 
L 180.937563 -23.355391 
L 181.334223 -23.355391 
L 181.730887 -23.355391 
L 182.127547 -23.355391 
L 182.524207 -23.355391 
L 182.920867 -23.355391 
L 183.31753 -23.355391 
L 183.71419 -23.355391 
L 184.11085 -23.355391 
L 184.507514 -23.355391 
L 184.904174 -23.355391 
L 185.300834 -23.355391 
L 185.697494 -23.355391 
L 186.094158 -23.355391 
L 186.490818 -23.355391 
L 186.887478 -23.355391 
L 187.284142 -23.355391 
L 187.680802 -23.355391 
L 188.077462 -23.355391 
L 188.474125 -23.355391 
L 188.870785 -23.355391 
L 189.267445 -23.355391 
L 189.664105 -23.355391 
L 190.060769 -23.355391 
L 190.457429 -23.355391 
L 190.854089 -23.355391 
L 191.250753 -23.355391 
L 191.647413 -23.355391 
L 192.044073 -23.355391 
L 192.440733 -23.355391 
L 192.837397 -23.355391 
L 193.234057 -23.355391 
L 193.630717 -23.355391 
L 194.02738 -23.355391 
L 194.42404 -23.355391 
L 194.8207 -23.355391 
L 195.21736 -23.355391 
L 195.614024 -23.355391 
L 196.010684 -23.355391 
L 196.407344 -23.355391 
L 196.804008 -23.355391 
L 197.200668 -23.355391 
L 197.597328 -23.355391 
L 197.993992 -23.355391 
L 198.390652 -23.355391 
L 198.787312 -23.355391 
L 199.183972 -23.355391 
L 199.580636 -23.355391 
L 199.977296 -23.355391 
L 200.373956 -23.355391 
L 200.770619 -23.355391 
L 201.167279 -23.355391 
L 201.563939 -23.355391 
L 201.960599 -23.355391 
L 202.357263 -23.355391 
L 202.753923 -23.355391 
L 203.150583 -23.355391 
L 203.547247 -23.355391 
L 203.943907 -23.355391 
L 204.340567 -23.355391 
L 204.737227 -23.355391 
L 205.133891 -23.355391 
L 205.530551 -23.355391 
L 205.927211 -23.355391 
L 206.323874 -23.355391 
L 206.720534 -23.355391 
L 207.117194 -23.355391 
L 207.513858 -23.355391 
L 207.910518 -23.355391 
L 208.307178 -23.355391 
L 208.703838 -23.355391 
L 209.100502 -23.355391 
L 209.497162 -23.355391 
L 209.893822 -23.355391 
L 210.290486 -23.355391 
L 210.687146 -23.355391 
L 211.083806 -23.355391 
L 211.480466 -23.355391 
L 211.877129 -23.355391 
L 212.273789 -23.355391 
L 212.670449 -23.355391 
L 213.067113 -23.355391 
L 213.463773 -23.355391 
L 213.860433 -23.355391 
L 214.257097 -23.355391 
L 214.653757 -23.355391 
L 215.050417 -23.355391 
L 215.447077 -23.355391 
L 215.843741 -23.355391 
L 216.240401 -23.355391 
L 216.637061 -23.355391 
L 217.033725 -23.355391 
L 217.430385 -23.355391 
L 217.827045 -23.355391 
L 218.223705 -23.355391 
L 218.620368 -23.355391 
L 219.017028 -23.355391 
L 219.413688 -23.355391 
L 219.810352 -23.355391 
L 220.207012 -23.355391 
L 220.603672 -23.355391 
L 221.000332 -23.355391 
L 221.396996 -23.355391 
L 221.793656 -23.355391 
L 222.190316 -23.355391 
L 222.58698 -23.355391 
L 222.98364 -23.355391 
L 223.3803 -23.355391 
L 223.776963 -23.355391 
L 224.173623 -23.355391 
L 224.570283 -23.355391 
L 224.966943 -23.355391 
L 225.363607 -23.355391 
L 225.760267 -23.355391 
L 226.156927 -23.355391 
L 226.553591 -23.355391 
L 226.950251 -23.355391 
L 227.346911 -23.355391 
L 227.743571 -23.355391 
L 228.140235 -23.355391 
L 228.536895 -23.355391 
L 228.933555 -23.355391 
L 229.330219 -23.355391 
L 229.726879 -23.355391 
L 230.123539 -23.355391 
L 230.520199 -23.355391 
L 230.916862 -23.355391 
L 231.313522 -23.355391 
L 231.710182 -23.355391 
L 232.106846 -23.355391 
L 232.503506 -23.355391 
L 232.900166 -23.355391 
L 233.29683 -23.355391 
L 233.69349 -23.355391 
L 234.09015 -23.355391 
L 234.48681 -23.355391 
L 234.883474 -23.355391 
L 235.280134 -23.355391 
L 235.676794 -23.355391 
L 236.073457 -23.355391 
L 236.470117 -23.355391 
L 236.866777 -23.355391 
L 237.263437 -23.355391 
L 237.660101 -23.355391 
L 238.056761 -23.355391 
L 238.453421 -23.355391 
L 238.850085 -23.355391 
L 239.246745 -23.355391 
L 239.643405 -23.355391 
L 240.040065 -23.355391 
L 240.436729 -23.355391 
L 240.833389 -23.355391 
L 241.230049 -23.355391 
L 241.626712 -23.355391 
L 242.023372 -23.355391 
L 242.420032 -23.355391 
L 242.816696 -23.355391 
L 243.213356 -23.355391 
L 243.610016 -23.355391 
L 244.006676 -23.355391 
L 244.40334 -23.355391 
L 244.8 -23.355391 
L 244.8 -23.355391 
L 244.8 -23.355391 
L 244.40334 -23.355391 
L 244.006676 -23.355391 
L 243.610016 -23.355391 
L 243.213356 -23.355391 
L 242.816696 -23.355391 
L 242.420032 -23.355391 
L 242.023372 -23.355391 
L 241.626712 -23.355391 
L 241.230049 -23.355391 
L 240.833389 -23.355391 
L 240.436729 -23.355391 
L 240.040065 -23.355391 
L 239.643405 -23.355391 
L 239.246745 -23.355391 
L 238.850085 -23.355391 
L 238.453421 -23.355391 
L 238.056761 -23.355391 
L 237.660101 -23.355391 
L 237.263437 -23.355391 
L 236.866777 -23.355391 
L 236.470117 -23.355391 
L 236.073457 -23.355391 
L 235.676794 -23.355391 
L 235.280134 -23.355391 
L 234.883474 -23.355391 
L 234.48681 -23.355391 
L 234.09015 -23.355391 
L 233.69349 -23.355391 
L 233.29683 -23.355391 
L 232.900166 -23.355391 
L 232.503506 -23.355391 
L 232.106846 -23.355391 
L 231.710182 -23.355391 
L 231.313522 -23.355391 
L 230.916862 -23.355391 
L 230.520199 -23.355391 
L 230.123539 -23.355391 
L 229.726879 -23.355391 
L 229.330219 -23.355391 
L 228.933555 -23.355391 
L 228.536895 -23.355391 
L 228.140235 -23.355391 
L 227.743571 -23.355391 
L 227.346911 -23.355391 
L 226.950251 -23.355391 
L 226.553591 -23.355391 
L 226.156927 -23.355391 
L 225.760267 -23.355391 
L 225.363607 -23.355391 
L 224.966943 -23.355391 
L 224.570283 -23.355391 
L 224.173623 -23.355391 
L 223.776963 -23.355391 
L 223.3803 -23.355391 
L 222.98364 -23.355391 
L 222.58698 -23.355391 
L 222.190316 -23.355391 
L 221.793656 -23.355391 
L 221.396996 -23.355391 
L 221.000332 -23.355391 
L 220.603672 -23.355391 
L 220.207012 -23.355391 
L 219.810352 -23.355391 
L 219.413688 -23.355391 
L 219.017028 -23.355391 
L 218.620368 -23.355391 
L 218.223705 -23.355391 
L 217.827045 -23.355391 
L 217.430385 -23.355391 
L 217.033725 -23.355391 
L 216.637061 -23.355391 
L 216.240401 -23.355391 
L 215.843741 -23.355391 
L 215.447077 -23.355391 
L 215.050417 -23.355391 
L 214.653757 -23.355391 
L 214.257097 -23.355391 
L 213.860433 -23.355391 
L 213.463773 -23.355391 
L 213.067113 -23.355391 
L 212.670449 -23.355391 
L 212.273789 -23.355391 
L 211.877129 -23.355391 
L 211.480466 -23.355391 
L 211.083806 -23.355391 
L 210.687146 -23.355391 
L 210.290486 -23.355391 
L 209.893822 -23.355391 
L 209.497162 -23.355391 
L 209.100502 -23.355391 
L 208.703838 -23.355391 
L 208.307178 -23.355391 
L 207.910518 -23.355391 
L 207.513858 -23.355391 
L 207.117194 -23.355391 
L 206.720534 -23.355391 
L 206.323874 -23.355391 
L 205.927211 -23.355391 
L 205.530551 -23.355391 
L 205.133891 -23.355391 
L 204.737227 -23.355391 
L 204.340567 -23.355391 
L 203.943907 -23.355391 
L 203.547247 -23.355391 
L 203.150583 -23.355391 
L 202.753923 -23.355391 
L 202.357263 -23.355391 
L 201.960599 -23.355391 
L 201.563939 -23.355391 
L 201.167279 -23.355391 
L 200.770619 -23.355391 
L 200.373956 -23.355391 
L 199.977296 -23.355391 
L 199.580636 -23.355391 
L 199.183972 -23.355391 
L 198.787312 -23.355391 
L 198.390652 -23.355391 
L 197.993992 -23.355391 
L 197.597328 -23.355391 
L 197.200668 -23.355391 
L 196.804008 -23.355391 
L 196.407344 -23.355391 
L 196.010684 -23.355391 
L 195.614024 -23.355391 
L 195.21736 -23.355391 
L 194.8207 -23.355391 
L 194.42404 -23.355391 
L 194.02738 -23.355391 
L 193.630717 -23.355391 
L 193.234057 -23.355391 
L 192.837397 -23.355391 
L 192.440733 -23.355391 
L 192.044073 -23.355391 
L 191.647413 -23.355391 
L 191.250753 -23.355391 
L 190.854089 -23.355391 
L 190.457429 -23.355391 
L 190.060769 -23.355391 
L 189.664105 -23.355391 
L 189.267445 -23.355391 
L 188.870785 -23.355391 
L 188.474125 -23.355391 
L 188.077462 -23.355391 
L 187.680802 -23.355391 
L 187.284142 -23.355391 
L 186.887478 -23.355391 
L 186.490818 -23.355391 
L 186.094158 -23.355391 
L 185.697494 -23.355391 
L 185.300834 -23.355391 
L 184.904174 -23.355391 
L 184.507514 -23.355391 
L 184.11085 -23.355391 
L 183.71419 -23.355391 
L 183.31753 -23.355391 
L 182.920867 -23.355391 
L 182.524207 -23.355391 
L 182.127547 -23.355391 
L 181.730887 -23.355391 
L 181.334223 -23.355391 
L 180.937563 -23.355391 
L 180.540903 -23.355391 
L 180.144239 -23.355391 
L 179.747579 -23.355391 
L 179.350919 -23.355391 
L 178.954259 -23.355391 
L 178.557595 -23.355391 
L 178.160935 -23.355391 
L 177.764275 -23.355391 
L 177.367611 -23.355391 
L 176.970951 -23.355391 
L 176.574291 -23.355391 
L 176.177628 -23.355391 
L 175.780968 -23.355391 
L 175.384308 -23.355391 
L 174.987648 -23.355391 
L 174.590984 -23.355391 
L 174.194324 -23.355391 
L 173.797664 -23.355391 
L 173.401 -23.355391 
L 173.00434 -23.355391 
L 172.60768 -23.355391 
L 172.21102 -23.355391 
L 171.814356 -23.355391 
L 171.417696 -23.355391 
L 171.021036 -23.355391 
L 170.624373 -23.355391 
L 170.227713 -23.355391 
L 169.831053 -23.355391 
L 169.434389 -23.355391 
L 169.037729 -23.355391 
L 168.641069 -23.355391 
L 168.244409 -23.355391 
L 167.847745 -23.355391 
L 167.451085 -23.355391 
L 167.054425 -23.355391 
L 166.657761 -23.355391 
L 166.261101 -23.355391 
L 165.864441 -23.355391 
L 165.467781 -23.355391 
L 165.071117 -23.355391 
L 164.674457 -23.355391 
L 164.277797 -23.355391 
L 163.881134 -23.355391 
L 163.484474 -23.355391 
L 163.087814 -23.355391 
L 162.691154 -23.355391 
L 162.29449 -23.355391 
L 161.89783 -23.355391 
L 161.50117 -23.355391 
L 161.104506 -23.355391 
L 160.707846 -23.355391 
L 160.311186 -23.355391 
L 159.914522 -23.355391 
L 159.517862 -23.355391 
L 159.121202 -23.355391 
L 158.724542 -23.355391 
L 158.327879 -23.355391 
L 157.931219 -23.355391 
L 157.534559 -23.355391 
L 157.137895 -23.355391 
L 156.741235 -23.355391 
L 156.344575 -23.355391 
L 155.947915 -23.355391 
L 155.551251 -23.355391 
L 155.154591 -23.355391 
L 154.757931 -23.355391 
L 154.361267 -23.355391 
L 153.964607 -23.355391 
L 153.567947 -23.355391 
L 153.171287 -23.355391 
L 152.774624 -23.355391 
L 152.377964 -23.355391 
L 151.981304 -23.355391 
L 151.58464 -23.355391 
L 151.18798 -23.355391 
L 150.79132 -23.355391 
L 150.394656 -23.355391 
L 149.997996 -23.355391 
L 149.601336 -23.355391 
L 149.204676 -23.355391 
L 148.808012 -23.355391 
L 148.411352 -23.355391 
L 148.014692 -23.355391 
L 147.618028 -23.355391 
L 147.221368 -23.355391 
L 146.824708 -23.355391 
L 146.428048 -23.355391 
L 146.031385 -23.355391 
L 145.634725 -23.355391 
L 145.238065 -23.355391 
L 144.841401 -23.355391 
L 144.444741 -23.355391 
L 144.048081 -23.355391 
L 143.651421 -23.355391 
L 143.254757 -23.355391 
L 142.858097 -23.355391 
L 142.461437 -23.355391 
L 142.064773 -23.355391 
L 141.668113 -23.355391 
L 141.271453 -23.355391 
L 140.87479 -23.355391 
L 140.47813 -23.355391 
L 140.08147 -23.355391 
L 139.68481 -23.355391 
L 139.288146 -23.355391 
L 138.891486 -23.355391 
L 138.494826 -23.355391 
L 138.098162 -23.355391 
L 137.701502 -23.355391 
L 137.304842 -23.355391 
L 136.908182 -23.355391 
L 136.511518 -23.355391 
L 136.114858 -23.355391 
L 135.718198 -23.355391 
L 135.321535 -23.355391 
L 134.924875 -23.355391 
L 134.528215 -23.355391 
L 134.131551 -23.355391 
L 133.734891 -23.355391 
L 133.338231 -23.355391 
L 132.941571 -23.355391 
L 132.544907 -23.355391 
L 132.148247 -23.355391 
L 131.751587 -23.355391 
L 131.354923 -23.355391 
L 130.958263 -23.355391 
L 130.561603 -23.355391 
L 130.164943 -23.355391 
L 129.768279 -23.355391 
L 129.371619 -23.355391 
L 128.974959 -23.355391 
L 128.578296 -23.355391 
L 128.181636 -23.355391 
L 127.784976 -23.355391 
L 127.388316 -23.355391 
L 126.991652 -23.355391 
L 126.594992 -23.355391 
L 126.198332 -23.355391 
L 125.801668 -23.355391 
L 125.405008 -23.355391 
L 125.008348 -23.355391 
L 124.611684 -23.355391 
L 124.215024 -23.355391 
L 123.818364 -23.355391 
L 123.421704 -23.355391 
L 123.025041 -23.355391 
L 122.628381 -23.355391 
L 122.231721 -23.355391 
L 121.835057 -23.355391 
L 121.438397 -23.355391 
L 121.041737 -23.355391 
L 120.645077 -23.355391 
L 120.248413 -23.355391 
L 119.851753 -23.355391 
L 119.455093 -23.355391 
L 119.058429 -23.355391 
L 118.661769 -23.355391 
L 118.265109 -23.355391 
L 117.868449 -23.355391 
L 117.471785 -23.355391 
L 117.075125 -23.355391 
L 116.678465 -23.355391 
L 116.281802 -23.355391 
L 115.885142 -23.355391 
L 115.488482 -23.355391 
L 115.091818 -23.355391 
L 114.695158 -23.355391 
L 114.298498 -23.355391 
L 113.901838 -23.355391 
L 113.505174 -23.355391 
L 113.108514 -23.355391 
L 112.711854 -23.355391 
L 112.31519 -23.355391 
L 111.91853 -23.355391 
L 111.52187 -23.355391 
L 111.12521 -23.355391 
L 110.728547 -23.355391 
L 110.331887 -23.355391 
L 109.935227 -23.355391 
L 109.538563 -23.355391 
L 109.141903 -23.355391 
L 108.745243 -23.355391 
L 108.348579 -23.355391 
L 107.951919 -23.355391 
L 107.555259 -23.355391 
L 107.158599 -23.355391 
L 106.761935 -23.355391 
L 106.365275 -23.355391 
L 105.968615 -23.355391 
L 105.571952 -23.355391 
L 105.175292 -23.355391 
L 104.778632 -23.355391 
L 104.381972 -23.355391 
L 103.985308 -23.355391 
L 103.588648 -23.355391 
L 103.191988 -23.355391 
L 102.795324 -23.355391 
L 102.398664 -23.355391 
L 102.002004 -23.355391 
L 101.605344 -23.355391 
L 101.20868 -23.355391 
L 100.81202 -23.355391 
L 100.41536 -23.355391 
L 100.018696 -23.355391 
L 99.622036 -23.355391 
L 99.225376 -23.355391 
L 98.828713 -23.355391 
L 98.432053 -23.355391 
L 98.035393 -23.355391 
L 97.638733 -23.355391 
L 97.242069 -23.355391 
L 96.845409 -23.355391 
L 96.448749 -23.355391 
L 96.052085 -23.355391 
L 95.655425 -23.355391 
L 95.258765 -23.355391 
L 94.862105 -23.355391 
L 94.465441 -23.355391 
L 94.068781 -23.355391 
L 93.672121 -23.355391 
L 93.275458 -23.355391 
L 92.878798 -23.355391 
L 92.482138 -23.355391 
L 92.085478 -23.355391 
L 91.688814 -23.355391 
L 91.292154 -23.355391 
L 90.895494 -23.355391 
L 90.49883 -23.355391 
L 90.10217 -23.355391 
L 89.70551 -23.355391 
L 89.308846 -23.355391 
L 88.912186 -23.355391 
L 88.515526 -23.355391 
L 88.118866 -23.355391 
L 87.722203 -23.355391 
L 87.325543 -23.355391 
L 86.928883 -23.355391 
L 86.532219 -23.355391 
L 86.135559 -23.355391 
L 85.738899 -23.355391 
L 85.342239 -23.355391 
L 84.945575 -23.355391 
L 84.548915 -23.355391 
L 84.152255 -23.355391 
L 83.755591 -23.355391 
L 83.358931 -23.355391 
L 82.962271 -23.355391 
L 82.565611 -23.355391 
L 82.168947 -23.355391 
L 81.772287 -23.355391 
L 81.375627 -23.355391 
L 80.978964 -23.355391 
L 80.582304 -23.355391 
L 80.185644 -23.355391 
L 79.78898 -23.355391 
L 79.39232 -23.355391 
L 78.99566 -23.355391 
L 78.599 -23.355391 
L 78.202336 -23.355391 
L 77.805676 -23.355391 
L 77.409016 -23.355391 
L 77.012352 -23.355391 
L 76.615692 -23.355391 
L 76.219032 -23.355391 
L 75.822372 -23.355391 
L 75.425709 -23.355391 
L 75.029049 -23.355391 
L 74.632389 -23.355391 
L 74.235725 -23.355391 
L 73.839065 -23.355391 
L 73.442405 -23.355391 
L 73.045741 -23.355391 
L 72.649081 -23.355391 
L 72.252421 -23.355391 
L 71.855761 -23.355391 
L 71.459097 -23.355391 
L 71.062437 -23.355391 
L 70.665777 -23.355391 
L 70.269113 -23.355391 
L 69.872453 -23.355391 
L 69.475793 -23.355391 
L 69.079133 -23.355391 
L 68.68247 -23.355391 
L 68.28581 -23.355391 
L 67.88915 -23.355391 
L 67.492486 -23.355391 
L 67.095826 -23.355391 
L 66.699166 -23.355391 
L 66.302506 -23.355391 
L 65.905842 -23.355391 
L 65.509182 -23.355391 
L 65.112522 -23.355391 
L 64.715858 -23.355391 
L 64.319198 -23.355391 
L 63.922538 -23.355391 
L 63.525875 -23.355391 
L 63.129215 -23.355391 
L 62.732555 -23.355391 
L 62.335895 -23.355391 
L 61.939231 -23.355391 
L 61.542571 -23.355391 
L 61.145911 -23.355391 
L 60.749247 -23.355391 
L 60.352587 -23.355391 
L 59.955927 -23.355391 
L 59.559267 -23.355391 
L 59.162603 -23.355391 
L 58.765943 -23.355391 
L 58.369283 -23.355391 
L 57.97262 -23.355391 
L 57.57596 -23.355391 
L 57.1793 -23.355391 
L 56.78264 -23.355391 
L 56.385976 -23.355391 
L 55.989316 -23.355391 
L 55.592656 -23.355391 
L 55.195992 -23.355391 
L 54.799332 -23.355391 
L 54.402672 -23.355391 
L 54.006008 -23.355391 
L 53.609348 -23.355391 
L 53.212688 -23.355391 
L 52.816028 -23.355391 
L 52.419364 -23.355391 
L 52.022704 -23.355391 
L 51.626044 -23.355391 
L 51.229381 -23.355391 
L 50.832721 -23.355391 
L 50.436061 -23.355391 
L 50.039401 -23.355391 
L 49.642737 -23.355391 
L 49.246077 -23.355391 
L 48.849417 -23.355391 
L 48.452753 -23.355391 
L 48.056093 -23.355391 
L 47.659433 -23.355391 
L 47.262773 -23.355391 
L 46.866109 -23.355391 
L 46.469449 -23.355391 
L 46.072789 -23.355391 
L 45.676126 -23.355391 
L 45.279466 -23.355391 
L 44.882806 -23.355391 
L 44.486142 -23.355391 
L 44.089482 -23.355391 
L 43.692822 -23.355391 
L 43.296162 -23.355391 
L 42.899498 -23.355391 
L 42.502838 -23.355391 
L 42.106178 -23.355391 
L 41.709514 -23.355391 
L 41.312854 -23.355391 
L 40.916194 -23.355391 
L 40.519534 -23.355391 
L 40.122871 -23.355391 
L 39.726211 -23.355391 
L 39.329551 -23.355391 
L 38.932887 -23.355391 
L 38.536227 -23.355391 
L 38.139567 -23.355391 
L 37.742903 -23.355391 
L 37.346243 -23.355391 
L 36.949583 -23.355391 
L 36.552923 -23.355391 
L 36.156259 -23.355391 
L 35.759599 -23.355391 
L 35.362939 -23.355391 
L 34.966275 -23.355391 
L 34.569615 -23.355391 
L 34.172955 -23.355391 
L 33.776295 -23.355391 
L 33.379632 -23.355391 
L 32.982972 -23.355391 
L 32.586312 -23.355391 
L 32.189648 -23.355391 
L 31.792988 -23.355391 
L 31.396328 -23.355391 
L 30.999668 -23.355391 
L 30.603004 -23.355391 
L 30.206344 -23.355391 
L 29.809684 -23.355391 
L 29.41302 -23.355391 
L 29.01636 -23.355391 
L 28.6197 -23.355391 
L 28.223037 -23.355391 
L 27.826377 -23.355391 
L 27.429717 -23.355391 
L 27.033057 -23.355391 
L 26.636393 -23.355391 
L 26.239733 -23.355391 
L 25.843073 -23.355391 
L 25.446409 -23.355391 
L 25.049749 -23.355391 
L 24.653089 -23.355391 
L 24.256429 -23.355391 
L 23.859765 -23.355391 
L 23.463105 -23.355391 
L 23.066445 -23.355391 
L 22.669781 -23.355391 
L 22.273121 -23.355391 
L 21.876461 -23.355391 
L 21.479801 -23.355391 
L 21.083138 -23.355391 
L 20.686478 -23.355391 
L 20.289818 -23.355391 
L 19.893154 -23.355391 
L 19.496494 -23.355391 
L 19.099834 -23.355391 
L 18.70317 -23.355391 
L 18.30651 -23.355391 
L 17.90985 -23.355391 
L 17.51319 -23.355391 
L 17.116526 -23.355391 
L 16.719866 -23.355391 
L 16.323206 -23.355391 
L 15.926543 -23.355391 
L 15.529883 -23.355391 
L 15.133223 -23.355391 
L 14.736563 -23.355391 
L 14.339899 -23.355391 
L 13.943239 -23.355391 
L 13.546579 -23.355391 
L 13.149915 -23.355391 
L 12.753255 -23.355391 
L 12.356595 -23.355391 
L 11.959935 -23.355391 
L 11.563271 -23.355391 
L 11.166611 -23.355391 
L 10.769951 -23.355391 
L 10.373288 -23.355391 
L 9.976628 -23.355391 
L 9.579968 -23.355391 
L 9.183304 -23.355391 
L 8.786644 -23.355391 
L 8.389984 -23.355391 
L 7.993324 -23.355391 
L 7.59666 -23.355391 
L 7.2 -23.355391 
z
"/>
    </defs>
    <g clip-path="url(#p43d19dfeb0)">
     <use xlink:href="#ma9f83204af" x="0" y="172.815391" style="fill: #64748b; fill-opacity: 0.2"/>
    </g>
   </g>
   <g id="FillBetweenPolyCollection_2">
    <defs>
     <path id="mb16e0b60e2" d="M 7.2 -23.355391 
L 7.2 -23.355391 
L 7.59666 -23.355391 
L 7.993324 -23.355391 
L 8.389984 -23.355391 
L 8.786644 -23.355391 
L 9.183304 -23.355391 
L 9.579968 -23.355391 
L 9.976628 -23.355391 
L 10.373288 -23.355391 
L 10.769951 -23.355391 
L 11.166611 -23.355391 
L 11.563271 -23.355391 
L 11.959935 -23.355391 
L 12.356595 -23.355391 
L 12.753255 -23.355391 
L 13.149915 -23.355391 
L 13.546579 -23.355391 
L 13.943239 -23.355391 
L 14.339899 -23.355391 
L 14.736563 -23.355391 
L 15.133223 -23.355391 
L 15.529883 -23.355391 
L 15.926543 -23.355391 
L 16.323206 -23.355391 
L 16.719866 -23.355391 
L 17.116526 -23.355391 
L 17.51319 -23.355391 
L 17.90985 -23.355391 
L 18.30651 -23.355391 
L 18.70317 -23.355391 
L 19.099834 -23.355391 
L 19.496494 -23.355391 
L 19.893154 -23.355391 
L 20.289818 -23.355391 
L 20.686478 -23.355391 
L 21.083138 -23.355391 
L 21.479801 -23.355391 
L 21.876461 -23.355391 
L 22.273121 -23.355391 
L 22.669781 -23.355391 
L 23.066445 -23.355391 
L 23.463105 -23.355391 
L 23.859765 -23.355391 
L 24.256429 -23.355391 
L 24.653089 -23.355391 
L 25.049749 -23.355391 
L 25.446409 -23.355391 
L 25.843073 -23.355391 
L 26.239733 -23.355391 
L 26.636393 -23.355391 
L 27.033057 -23.355391 
L 27.429717 -23.355391 
L 27.826377 -23.355391 
L 28.223037 -23.355391 
L 28.6197 -23.355391 
L 29.01636 -23.355391 
L 29.41302 -23.355391 
L 29.809684 -23.355391 
L 30.206344 -23.355391 
L 30.603004 -23.355391 
L 30.999668 -23.355391 
L 31.396328 -23.355391 
L 31.792988 -23.355391 
L 32.189648 -23.355391 
L 32.586312 -23.355391 
L 32.982972 -23.355391 
L 33.379632 -23.355391 
L 33.776295 -23.355391 
L 34.172955 -23.355391 
L 34.569615 -23.355391 
L 34.966275 -23.355391 
L 35.362939 -23.355391 
L 35.759599 -23.355391 
L 36.156259 -23.355391 
L 36.552923 -23.355391 
L 36.949583 -23.355391 
L 37.346243 -23.355391 
L 37.742903 -23.355391 
L 38.139567 -23.355391 
L 38.536227 -23.355391 
L 38.932887 -23.355391 
L 39.329551 -23.355391 
L 39.726211 -23.355391 
L 40.122871 -23.355391 
L 40.519534 -23.355391 
L 40.916194 -23.355391 
L 41.312854 -23.355391 
L 41.709514 -23.355391 
L 42.106178 -23.355391 
L 42.502838 -23.355391 
L 42.899498 -23.355391 
L 43.296162 -23.355391 
L 43.692822 -23.355391 
L 44.089482 -23.355391 
L 44.486142 -23.355391 
L 44.882806 -23.355391 
L 45.279466 -23.355391 
L 45.676126 -23.355391 
L 46.072789 -23.355391 
L 46.469449 -23.355391 
L 46.866109 -23.355391 
L 47.262773 -23.355391 
L 47.659433 -23.355391 
L 48.056093 -23.355391 
L 48.452753 -23.355391 
L 48.849417 -23.355391 
L 49.246077 -23.355391 
L 49.642737 -23.355391 
L 50.039401 -23.355391 
L 50.436061 -23.355391 
L 50.832721 -23.355391 
L 51.229381 -23.355391 
L 51.626044 -23.355391 
L 52.022704 -23.355391 
L 52.419364 -23.355391 
L 52.816028 -23.355391 
L 53.212688 -23.355391 
L 53.609348 -23.355391 
L 54.006008 -23.355391 
L 54.402672 -23.355391 
L 54.799332 -23.355391 
L 55.195992 -23.355391 
L 55.592656 -23.355391 
L 55.989316 -23.355391 
L 56.385976 -23.355391 
L 56.78264 -23.355391 
L 57.1793 -23.355391 
L 57.57596 -23.355391 
L 57.97262 -23.355391 
L 58.369283 -23.355391 
L 58.765943 -23.355391 
L 59.162603 -23.355391 
L 59.559267 -23.355391 
L 59.955927 -23.355391 
L 60.352587 -23.355391 
L 60.749247 -23.355391 
L 61.145911 -23.355391 
L 61.542571 -23.355391 
L 61.939231 -23.355391 
L 62.335895 -23.355391 
L 62.732555 -23.355391 
L 63.129215 -23.355391 
L 63.525875 -23.355391 
L 63.922538 -23.355391 
L 64.319198 -23.355391 
L 64.715858 -23.355391 
L 65.112522 -23.355391 
L 65.509182 -23.355391 
L 65.905842 -23.355391 
L 66.302506 -23.355391 
L 66.699166 -23.355391 
L 67.095826 -23.355391 
L 67.492486 -23.355391 
L 67.88915 -23.355391 
L 68.28581 -23.355391 
L 68.68247 -23.355391 
L 69.079133 -23.355391 
L 69.475793 -23.355391 
L 69.872453 -23.355391 
L 70.269113 -23.355391 
L 70.665777 -23.355391 
L 71.062437 -23.355391 
L 71.459097 -23.355391 
L 71.855761 -23.355391 
L 72.252421 -23.355391 
L 72.649081 -23.355391 
L 73.045741 -23.355391 
L 73.442405 -23.355391 
L 73.839065 -23.355391 
L 74.235725 -23.355391 
L 74.632389 -23.355391 
L 75.029049 -23.355391 
L 75.425709 -23.355391 
L 75.822372 -23.355391 
L 76.219032 -23.355391 
L 76.615692 -23.355391 
L 77.012352 -23.355391 
L 77.409016 -23.355391 
L 77.805676 -23.355391 
L 78.202336 -23.355391 
L 78.599 -23.355391 
L 78.99566 -23.355391 
L 79.39232 -23.355391 
L 79.78898 -23.355391 
L 80.185644 -23.355391 
L 80.582304 -23.355391 
L 80.978964 -23.355391 
L 81.375627 -23.355391 
L 81.772287 -23.355391 
L 82.168947 -23.355391 
L 82.565611 -23.355391 
L 82.962271 -23.355391 
L 83.358931 -23.355391 
L 83.755591 -23.355391 
L 84.152255 -23.355391 
L 84.548915 -23.355391 
L 84.945575 -23.355391 
L 85.342239 -23.355391 
L 85.738899 -23.355391 
L 86.135559 -23.355391 
L 86.532219 -23.355391 
L 86.928883 -23.355391 
L 87.325543 -23.355391 
L 87.722203 -23.355391 
L 88.118866 -23.355391 
L 88.515526 -23.355391 
L 88.912186 -23.355391 
L 89.308846 -23.355391 
L 89.70551 -23.355391 
L 90.10217 -23.355391 
L 90.49883 -23.355391 
L 90.895494 -23.355396 
L 91.292154 -23.355396 
L 91.688814 -23.355396 
L 92.085478 -23.355396 
L 92.482138 -23.355402 
L 92.878798 -23.355402 
L 93.275458 -23.355407 
L 93.672121 -23.355413 
L 94.068781 -23.355424 
L 94.465441 -23.355435 
L 94.862105 -23.355445 
L 95.258765 -23.355467 
L 95.655425 -23.355489 
L 96.052085 -23.355522 
L 96.448749 -23.355566 
L 96.845409 -23.355621 
L 97.242069 -23.355687 
L 97.638733 -23.35578 
L 98.035393 -23.355895 
L 98.432053 -23.356044 
L 98.828713 -23.356236 
L 99.225376 -23.356477 
L 99.622036 -23.35679 
L 100.018696 -23.357185 
L 100.41536 -23.357684 
L 100.81202 -23.358315 
L 101.20868 -23.359105 
L 101.605344 -23.360098 
L 102.002004 -23.361344 
L 102.398664 -23.362896 
L 102.795324 -23.364828 
L 103.191988 -23.36722 
L 103.588648 -23.370177 
L 103.985308 -23.373831 
L 104.381972 -23.378319 
L 104.778632 -23.383817 
L 105.175292 -23.390543 
L 105.571952 -23.398735 
L 105.968615 -23.408693 
L 106.365275 -23.420758 
L 106.761935 -23.43533 
L 107.158599 -23.452876 
L 107.555259 -23.473951 
L 107.951919 -23.499183 
L 108.348579 -23.529305 
L 108.745243 -23.565154 
L 109.141903 -23.607692 
L 109.538563 -23.65802 
L 109.935227 -23.717385 
L 110.331887 -23.787197 
L 110.728547 -23.869051 
L 111.12521 -23.964738 
L 111.52187 -24.076253 
L 111.91853 -24.205813 
L 112.31519 -24.355899 
L 112.711854 -24.529215 
L 113.108514 -24.728752 
L 113.505174 -24.957773 
L 113.901838 -25.219819 
L 114.298498 -25.518729 
L 114.695158 -25.858629 
L 115.091818 -26.243936 
L 115.488482 -26.679341 
L 115.885142 -27.169821 
L 116.281802 -27.720582 
L 116.678465 -28.337073 
L 117.075125 -29.024933 
L 117.471785 -29.789946 
L 117.868449 -30.63802 
L 118.265109 -31.575109 
L 118.661769 -32.607155 
L 119.058429 -33.740022 
L 119.455093 -34.979417 
L 119.851753 -36.330804 
L 120.248413 -37.799298 
L 120.645077 -39.389588 
L 121.041737 -41.105812 
L 121.438397 -42.951465 
L 121.835057 -44.929285 
L 122.231721 -47.041125 
L 122.628381 -49.287887 
L 123.025041 -51.66935 
L 123.421704 -54.184143 
L 123.818364 -56.829594 
L 124.215024 -59.601681 
L 124.611684 -62.494939 
L 125.008348 -65.502423 
L 125.405008 -68.615667 
L 125.801668 -71.824652 
L 126.198332 -75.117812 
L 126.594992 -78.482051 
L 126.991652 -81.902818 
L 127.388316 -85.364126 
L 127.784976 -88.848702 
L 128.181636 -92.338058 
L 128.578296 -95.812665 
L 128.974959 -99.252103 
L 129.371619 -102.63526 
L 129.768279 -105.940523 
L 130.164943 -109.146008 
L 130.561603 -112.229788 
L 130.958263 -115.17016 
L 131.354923 -117.945857 
L 131.751587 -120.536354 
L 132.148247 -122.922059 
L 132.544907 -125.084617 
L 132.941571 -127.007105 
L 133.338231 -128.674268 
L 133.734891 -130.072708 
L 134.131551 -131.191096 
L 134.528215 -132.020275 
L 134.924875 -132.553435 
L 135.321535 -132.78616 
L 135.718198 -132.716529 
L 136.114858 -132.34512 
L 136.511518 -131.675003 
L 136.908182 -130.711705 
L 137.304842 -129.463131 
L 137.701502 -127.939459 
L 138.098162 -126.152984 
L 138.494826 -124.117989 
L 138.891486 -121.850515 
L 139.288146 -119.368181 
L 139.68481 -116.689937 
L 140.08147 -113.835836 
L 140.47813 -110.826777 
L 140.87479 -107.684257 
L 141.271453 -104.430118 
L 141.668113 -101.086295 
L 142.064773 -97.674569 
L 142.461437 -94.216356 
L 142.858097 -90.732476 
L 143.254757 -87.242951 
L 143.651421 -83.766862 
L 144.048081 -80.322146 
L 144.444741 -76.925497 
L 144.841401 -73.592258 
L 145.238065 -70.336313 
L 145.634725 -67.170053 
L 146.031385 -64.104339 
L 146.428048 -61.148473 
L 146.824708 -58.310224 
L 147.221368 -55.595845 
L 147.618028 -53.010121 
L 148.014692 -50.556449 
L 148.411352 -48.236891 
L 148.808012 -46.052281 
L 149.204676 -44.002302 
L 149.601336 -42.085609 
L 149.997996 -40.299919 
L 150.394656 -38.642143 
L 150.79132 -37.108469 
L 151.18798 -35.694491 
L 151.58464 -34.395314 
L 151.981304 -33.205649 
L 152.377964 -32.119912 
L 152.774624 -31.132313 
L 153.171287 -30.236939 
L 153.567947 -29.427836 
L 153.964607 -28.699068 
L 154.361267 -28.044775 
L 154.757931 -27.459228 
L 155.154591 -26.936877 
L 155.551251 -26.472382 
L 155.947915 -26.06064 
L 156.344575 -25.696802 
L 156.741235 -25.376302 
L 157.137895 -25.094851 
L 157.534559 -24.848469 
L 157.931219 -24.633444 
L 158.327879 -24.446362 
L 158.724542 -24.284096 
L 159.121202 -24.143782 
L 159.517862 -24.022819 
L 159.914522 -23.918853 
L 160.311186 -23.829767 
L 160.707846 -23.753668 
L 161.104506 -23.68885 
L 161.50117 -23.633808 
L 161.89783 -23.58721 
L 162.29449 -23.547882 
L 162.691154 -23.514782 
L 163.087814 -23.487009 
L 163.484474 -23.463773 
L 163.881134 -23.444394 
L 164.277797 -23.42828 
L 164.674457 -23.41492 
L 165.071117 -23.40387 
L 165.467781 -23.394762 
L 165.864441 -23.387279 
L 166.261101 -23.38115 
L 166.657761 -23.376135 
L 167.054425 -23.372053 
L 167.451085 -23.36874 
L 167.847745 -23.366051 
L 168.244409 -23.363884 
L 168.641069 -23.362139 
L 169.037729 -23.360735 
L 169.434389 -23.359615 
L 169.831053 -23.358716 
L 170.227713 -23.358002 
L 170.624373 -23.357437 
L 171.021036 -23.356993 
L 171.417696 -23.356636 
L 171.814356 -23.356362 
L 172.21102 -23.356142 
L 172.60768 -23.355972 
L 173.00434 -23.355835 
L 173.401 -23.355736 
L 173.797664 -23.355654 
L 174.194324 -23.355594 
L 174.590984 -23.355544 
L 174.987648 -23.355506 
L 175.384308 -23.355478 
L 175.780968 -23.355456 
L 176.177628 -23.35544 
L 176.574291 -23.355429 
L 176.970951 -23.355418 
L 177.367611 -23.355413 
L 177.764275 -23.355407 
L 178.160935 -23.355402 
L 178.557595 -23.355402 
L 178.954259 -23.355396 
L 179.350919 -23.355396 
L 179.747579 -23.355396 
L 180.144239 -23.355391 
L 180.540903 -23.355391 
L 180.937563 -23.355391 
L 181.334223 -23.355391 
L 181.730887 -23.355391 
L 182.127547 -23.355391 
L 182.524207 -23.355391 
L 182.920867 -23.355391 
L 183.31753 -23.355391 
L 183.71419 -23.355391 
L 184.11085 -23.355391 
L 184.507514 -23.355391 
L 184.904174 -23.355391 
L 185.300834 -23.355391 
L 185.697494 -23.355391 
L 186.094158 -23.355391 
L 186.490818 -23.355391 
L 186.887478 -23.355391 
L 187.284142 -23.355391 
L 187.680802 -23.355391 
L 188.077462 -23.355391 
L 188.474125 -23.355391 
L 188.870785 -23.355391 
L 189.267445 -23.355391 
L 189.664105 -23.355391 
L 190.060769 -23.355391 
L 190.457429 -23.355391 
L 190.854089 -23.355391 
L 191.250753 -23.355391 
L 191.647413 -23.355391 
L 192.044073 -23.355391 
L 192.440733 -23.355391 
L 192.837397 -23.355391 
L 193.234057 -23.355391 
L 193.630717 -23.355391 
L 194.02738 -23.355391 
L 194.42404 -23.355391 
L 194.8207 -23.355391 
L 195.21736 -23.355391 
L 195.614024 -23.355391 
L 196.010684 -23.355391 
L 196.407344 -23.355391 
L 196.804008 -23.355391 
L 197.200668 -23.355391 
L 197.597328 -23.355391 
L 197.993992 -23.355391 
L 198.390652 -23.355391 
L 198.787312 -23.355391 
L 199.183972 -23.355391 
L 199.580636 -23.355391 
L 199.977296 -23.355391 
L 200.373956 -23.355391 
L 200.770619 -23.355391 
L 201.167279 -23.355391 
L 201.563939 -23.355391 
L 201.960599 -23.355391 
L 202.357263 -23.355391 
L 202.753923 -23.355391 
L 203.150583 -23.355391 
L 203.547247 -23.355391 
L 203.943907 -23.355391 
L 204.340567 -23.355391 
L 204.737227 -23.355391 
L 205.133891 -23.355391 
L 205.530551 -23.355391 
L 205.927211 -23.355391 
L 206.323874 -23.355391 
L 206.720534 -23.355391 
L 207.117194 -23.355391 
L 207.513858 -23.355391 
L 207.910518 -23.355391 
L 208.307178 -23.355391 
L 208.703838 -23.355391 
L 209.100502 -23.355391 
L 209.497162 -23.355391 
L 209.893822 -23.355391 
L 210.290486 -23.355391 
L 210.687146 -23.355391 
L 211.083806 -23.355391 
L 211.480466 -23.355391 
L 211.877129 -23.355391 
L 212.273789 -23.355391 
L 212.670449 -23.355391 
L 213.067113 -23.355391 
L 213.463773 -23.355391 
L 213.860433 -23.355391 
L 214.257097 -23.355391 
L 214.653757 -23.355391 
L 215.050417 -23.355391 
L 215.447077 -23.355391 
L 215.843741 -23.355391 
L 216.240401 -23.355391 
L 216.637061 -23.355391 
L 217.033725 -23.355391 
L 217.430385 -23.355391 
L 217.827045 -23.355391 
L 218.223705 -23.355391 
L 218.620368 -23.355391 
L 219.017028 -23.355391 
L 219.413688 -23.355391 
L 219.810352 -23.355391 
L 220.207012 -23.355391 
L 220.603672 -23.355391 
L 221.000332 -23.355391 
L 221.396996 -23.355391 
L 221.793656 -23.355391 
L 222.190316 -23.355391 
L 222.58698 -23.355391 
L 222.98364 -23.355391 
L 223.3803 -23.355391 
L 223.776963 -23.355391 
L 224.173623 -23.355391 
L 224.570283 -23.355391 
L 224.966943 -23.355391 
L 225.363607 -23.355391 
L 225.760267 -23.355391 
L 226.156927 -23.355391 
L 226.553591 -23.355391 
L 226.950251 -23.355391 
L 227.346911 -23.355391 
L 227.743571 -23.355391 
L 228.140235 -23.355391 
L 228.536895 -23.355391 
L 228.933555 -23.355391 
L 229.330219 -23.355391 
L 229.726879 -23.355391 
L 230.123539 -23.355391 
L 230.520199 -23.355391 
L 230.916862 -23.355391 
L 231.313522 -23.355391 
L 231.710182 -23.355391 
L 232.106846 -23.355391 
L 232.503506 -23.355391 
L 232.900166 -23.355391 
L 233.29683 -23.355391 
L 233.69349 -23.355391 
L 234.09015 -23.355391 
L 234.48681 -23.355391 
L 234.883474 -23.355391 
L 235.280134 -23.355391 
L 235.676794 -23.355391 
L 236.073457 -23.355391 
L 236.470117 -23.355391 
L 236.866777 -23.355391 
L 237.263437 -23.355391 
L 237.660101 -23.355391 
L 238.056761 -23.355391 
L 238.453421 -23.355391 
L 238.850085 -23.355391 
L 239.246745 -23.355391 
L 239.643405 -23.355391 
L 240.040065 -23.355391 
L 240.436729 -23.355391 
L 240.833389 -23.355391 
L 241.230049 -23.355391 
L 241.626712 -23.355391 
L 242.023372 -23.355391 
L 242.420032 -23.355391 
L 242.816696 -23.355391 
L 243.213356 -23.355391 
L 243.610016 -23.355391 
L 244.006676 -23.355391 
L 244.40334 -23.355391 
L 244.8 -23.355391 
L 244.8 -23.355391 
L 244.8 -23.355391 
L 244.40334 -23.355391 
L 244.006676 -23.355391 
L 243.610016 -23.355391 
L 243.213356 -23.355391 
L 242.816696 -23.355391 
L 242.420032 -23.355391 
L 242.023372 -23.355391 
L 241.626712 -23.355391 
L 241.230049 -23.355391 
L 240.833389 -23.355391 
L 240.436729 -23.355391 
L 240.040065 -23.355391 
L 239.643405 -23.355391 
L 239.246745 -23.355391 
L 238.850085 -23.355391 
L 238.453421 -23.355391 
L 238.056761 -23.355391 
L 237.660101 -23.355391 
L 237.263437 -23.355391 
L 236.866777 -23.355391 
L 236.470117 -23.355391 
L 236.073457 -23.355391 
L 235.676794 -23.355391 
L 235.280134 -23.355391 
L 234.883474 -23.355391 
L 234.48681 -23.355391 
L 234.09015 -23.355391 
L 233.69349 -23.355391 
L 233.29683 -23.355391 
L 232.900166 -23.355391 
L 232.503506 -23.355391 
L 232.106846 -23.355391 
L 231.710182 -23.355391 
L 231.313522 -23.355391 
L 230.916862 -23.355391 
L 230.520199 -23.355391 
L 230.123539 -23.355391 
L 229.726879 -23.355391 
L 229.330219 -23.355391 
L 228.933555 -23.355391 
L 228.536895 -23.355391 
L 228.140235 -23.355391 
L 227.743571 -23.355391 
L 227.346911 -23.355391 
L 226.950251 -23.355391 
L 226.553591 -23.355391 
L 226.156927 -23.355391 
L 225.760267 -23.355391 
L 225.363607 -23.355391 
L 224.966943 -23.355391 
L 224.570283 -23.355391 
L 224.173623 -23.355391 
L 223.776963 -23.355391 
L 223.3803 -23.355391 
L 222.98364 -23.355391 
L 222.58698 -23.355391 
L 222.190316 -23.355391 
L 221.793656 -23.355391 
L 221.396996 -23.355391 
L 221.000332 -23.355391 
L 220.603672 -23.355391 
L 220.207012 -23.355391 
L 219.810352 -23.355391 
L 219.413688 -23.355391 
L 219.017028 -23.355391 
L 218.620368 -23.355391 
L 218.223705 -23.355391 
L 217.827045 -23.355391 
L 217.430385 -23.355391 
L 217.033725 -23.355391 
L 216.637061 -23.355391 
L 216.240401 -23.355391 
L 215.843741 -23.355391 
L 215.447077 -23.355391 
L 215.050417 -23.355391 
L 214.653757 -23.355391 
L 214.257097 -23.355391 
L 213.860433 -23.355391 
L 213.463773 -23.355391 
L 213.067113 -23.355391 
L 212.670449 -23.355391 
L 212.273789 -23.355391 
L 211.877129 -23.355391 
L 211.480466 -23.355391 
L 211.083806 -23.355391 
L 210.687146 -23.355391 
L 210.290486 -23.355391 
L 209.893822 -23.355391 
L 209.497162 -23.355391 
L 209.100502 -23.355391 
L 208.703838 -23.355391 
L 208.307178 -23.355391 
L 207.910518 -23.355391 
L 207.513858 -23.355391 
L 207.117194 -23.355391 
L 206.720534 -23.355391 
L 206.323874 -23.355391 
L 205.927211 -23.355391 
L 205.530551 -23.355391 
L 205.133891 -23.355391 
L 204.737227 -23.355391 
L 204.340567 -23.355391 
L 203.943907 -23.355391 
L 203.547247 -23.355391 
L 203.150583 -23.355391 
L 202.753923 -23.355391 
L 202.357263 -23.355391 
L 201.960599 -23.355391 
L 201.563939 -23.355391 
L 201.167279 -23.355391 
L 200.770619 -23.355391 
L 200.373956 -23.355391 
L 199.977296 -23.355391 
L 199.580636 -23.355391 
L 199.183972 -23.355391 
L 198.787312 -23.355391 
L 198.390652 -23.355391 
L 197.993992 -23.355391 
L 197.597328 -23.355391 
L 197.200668 -23.355391 
L 196.804008 -23.355391 
L 196.407344 -23.355391 
L 196.010684 -23.355391 
L 195.614024 -23.355391 
L 195.21736 -23.355391 
L 194.8207 -23.355391 
L 194.42404 -23.355391 
L 194.02738 -23.355391 
L 193.630717 -23.355391 
L 193.234057 -23.355391 
L 192.837397 -23.355391 
L 192.440733 -23.355391 
L 192.044073 -23.355391 
L 191.647413 -23.355391 
L 191.250753 -23.355391 
L 190.854089 -23.355391 
L 190.457429 -23.355391 
L 190.060769 -23.355391 
L 189.664105 -23.355391 
L 189.267445 -23.355391 
L 188.870785 -23.355391 
L 188.474125 -23.355391 
L 188.077462 -23.355391 
L 187.680802 -23.355391 
L 187.284142 -23.355391 
L 186.887478 -23.355391 
L 186.490818 -23.355391 
L 186.094158 -23.355391 
L 185.697494 -23.355391 
L 185.300834 -23.355391 
L 184.904174 -23.355391 
L 184.507514 -23.355391 
L 184.11085 -23.355391 
L 183.71419 -23.355391 
L 183.31753 -23.355391 
L 182.920867 -23.355391 
L 182.524207 -23.355391 
L 182.127547 -23.355391 
L 181.730887 -23.355391 
L 181.334223 -23.355391 
L 180.937563 -23.355391 
L 180.540903 -23.355391 
L 180.144239 -23.355391 
L 179.747579 -23.355391 
L 179.350919 -23.355391 
L 178.954259 -23.355391 
L 178.557595 -23.355391 
L 178.160935 -23.355391 
L 177.764275 -23.355391 
L 177.367611 -23.355391 
L 176.970951 -23.355391 
L 176.574291 -23.355391 
L 176.177628 -23.355391 
L 175.780968 -23.355391 
L 175.384308 -23.355391 
L 174.987648 -23.355391 
L 174.590984 -23.355391 
L 174.194324 -23.355391 
L 173.797664 -23.355391 
L 173.401 -23.355391 
L 173.00434 -23.355391 
L 172.60768 -23.355391 
L 172.21102 -23.355391 
L 171.814356 -23.355391 
L 171.417696 -23.355391 
L 171.021036 -23.355391 
L 170.624373 -23.355391 
L 170.227713 -23.355391 
L 169.831053 -23.355391 
L 169.434389 -23.355391 
L 169.037729 -23.355391 
L 168.641069 -23.355391 
L 168.244409 -23.355391 
L 167.847745 -23.355391 
L 167.451085 -23.355391 
L 167.054425 -23.355391 
L 166.657761 -23.355391 
L 166.261101 -23.355391 
L 165.864441 -23.355391 
L 165.467781 -23.355391 
L 165.071117 -23.355391 
L 164.674457 -23.355391 
L 164.277797 -23.355391 
L 163.881134 -23.355391 
L 163.484474 -23.355391 
L 163.087814 -23.355391 
L 162.691154 -23.355391 
L 162.29449 -23.355391 
L 161.89783 -23.355391 
L 161.50117 -23.355391 
L 161.104506 -23.355391 
L 160.707846 -23.355391 
L 160.311186 -23.355391 
L 159.914522 -23.355391 
L 159.517862 -23.355391 
L 159.121202 -23.355391 
L 158.724542 -23.355391 
L 158.327879 -23.355391 
L 157.931219 -23.355391 
L 157.534559 -23.355391 
L 157.137895 -23.355391 
L 156.741235 -23.355391 
L 156.344575 -23.355391 
L 155.947915 -23.355391 
L 155.551251 -23.355391 
L 155.154591 -23.355391 
L 154.757931 -23.355391 
L 154.361267 -23.355391 
L 153.964607 -23.355391 
L 153.567947 -23.355391 
L 153.171287 -23.355391 
L 152.774624 -23.355391 
L 152.377964 -23.355391 
L 151.981304 -23.355391 
L 151.58464 -23.355391 
L 151.18798 -23.355391 
L 150.79132 -23.355391 
L 150.394656 -23.355391 
L 149.997996 -23.355391 
L 149.601336 -23.355391 
L 149.204676 -23.355391 
L 148.808012 -23.355391 
L 148.411352 -23.355391 
L 148.014692 -23.355391 
L 147.618028 -23.355391 
L 147.221368 -23.355391 
L 146.824708 -23.355391 
L 146.428048 -23.355391 
L 146.031385 -23.355391 
L 145.634725 -23.355391 
L 145.238065 -23.355391 
L 144.841401 -23.355391 
L 144.444741 -23.355391 
L 144.048081 -23.355391 
L 143.651421 -23.355391 
L 143.254757 -23.355391 
L 142.858097 -23.355391 
L 142.461437 -23.355391 
L 142.064773 -23.355391 
L 141.668113 -23.355391 
L 141.271453 -23.355391 
L 140.87479 -23.355391 
L 140.47813 -23.355391 
L 140.08147 -23.355391 
L 139.68481 -23.355391 
L 139.288146 -23.355391 
L 138.891486 -23.355391 
L 138.494826 -23.355391 
L 138.098162 -23.355391 
L 137.701502 -23.355391 
L 137.304842 -23.355391 
L 136.908182 -23.355391 
L 136.511518 -23.355391 
L 136.114858 -23.355391 
L 135.718198 -23.355391 
L 135.321535 -23.355391 
L 134.924875 -23.355391 
L 134.528215 -23.355391 
L 134.131551 -23.355391 
L 133.734891 -23.355391 
L 133.338231 -23.355391 
L 132.941571 -23.355391 
L 132.544907 -23.355391 
L 132.148247 -23.355391 
L 131.751587 -23.355391 
L 131.354923 -23.355391 
L 130.958263 -23.355391 
L 130.561603 -23.355391 
L 130.164943 -23.355391 
L 129.768279 -23.355391 
L 129.371619 -23.355391 
L 128.974959 -23.355391 
L 128.578296 -23.355391 
L 128.181636 -23.355391 
L 127.784976 -23.355391 
L 127.388316 -23.355391 
L 126.991652 -23.355391 
L 126.594992 -23.355391 
L 126.198332 -23.355391 
L 125.801668 -23.355391 
L 125.405008 -23.355391 
L 125.008348 -23.355391 
L 124.611684 -23.355391 
L 124.215024 -23.355391 
L 123.818364 -23.355391 
L 123.421704 -23.355391 
L 123.025041 -23.355391 
L 122.628381 -23.355391 
L 122.231721 -23.355391 
L 121.835057 -23.355391 
L 121.438397 -23.355391 
L 121.041737 -23.355391 
L 120.645077 -23.355391 
L 120.248413 -23.355391 
L 119.851753 -23.355391 
L 119.455093 -23.355391 
L 119.058429 -23.355391 
L 118.661769 -23.355391 
L 118.265109 -23.355391 
L 117.868449 -23.355391 
L 117.471785 -23.355391 
L 117.075125 -23.355391 
L 116.678465 -23.355391 
L 116.281802 -23.355391 
L 115.885142 -23.355391 
L 115.488482 -23.355391 
L 115.091818 -23.355391 
L 114.695158 -23.355391 
L 114.298498 -23.355391 
L 113.901838 -23.355391 
L 113.505174 -23.355391 
L 113.108514 -23.355391 
L 112.711854 -23.355391 
L 112.31519 -23.355391 
L 111.91853 -23.355391 
L 111.52187 -23.355391 
L 111.12521 -23.355391 
L 110.728547 -23.355391 
L 110.331887 -23.355391 
L 109.935227 -23.355391 
L 109.538563 -23.355391 
L 109.141903 -23.355391 
L 108.745243 -23.355391 
L 108.348579 -23.355391 
L 107.951919 -23.355391 
L 107.555259 -23.355391 
L 107.158599 -23.355391 
L 106.761935 -23.355391 
L 106.365275 -23.355391 
L 105.968615 -23.355391 
L 105.571952 -23.355391 
L 105.175292 -23.355391 
L 104.778632 -23.355391 
L 104.381972 -23.355391 
L 103.985308 -23.355391 
L 103.588648 -23.355391 
L 103.191988 -23.355391 
L 102.795324 -23.355391 
L 102.398664 -23.355391 
L 102.002004 -23.355391 
L 101.605344 -23.355391 
L 101.20868 -23.355391 
L 100.81202 -23.355391 
L 100.41536 -23.355391 
L 100.018696 -23.355391 
L 99.622036 -23.355391 
L 99.225376 -23.355391 
L 98.828713 -23.355391 
L 98.432053 -23.355391 
L 98.035393 -23.355391 
L 97.638733 -23.355391 
L 97.242069 -23.355391 
L 96.845409 -23.355391 
L 96.448749 -23.355391 
L 96.052085 -23.355391 
L 95.655425 -23.355391 
L 95.258765 -23.355391 
L 94.862105 -23.355391 
L 94.465441 -23.355391 
L 94.068781 -23.355391 
L 93.672121 -23.355391 
L 93.275458 -23.355391 
L 92.878798 -23.355391 
L 92.482138 -23.355391 
L 92.085478 -23.355391 
L 91.688814 -23.355391 
L 91.292154 -23.355391 
L 90.895494 -23.355391 
L 90.49883 -23.355391 
L 90.10217 -23.355391 
L 89.70551 -23.355391 
L 89.308846 -23.355391 
L 88.912186 -23.355391 
L 88.515526 -23.355391 
L 88.118866 -23.355391 
L 87.722203 -23.355391 
L 87.325543 -23.355391 
L 86.928883 -23.355391 
L 86.532219 -23.355391 
L 86.135559 -23.355391 
L 85.738899 -23.355391 
L 85.342239 -23.355391 
L 84.945575 -23.355391 
L 84.548915 -23.355391 
L 84.152255 -23.355391 
L 83.755591 -23.355391 
L 83.358931 -23.355391 
L 82.962271 -23.355391 
L 82.565611 -23.355391 
L 82.168947 -23.355391 
L 81.772287 -23.355391 
L 81.375627 -23.355391 
L 80.978964 -23.355391 
L 80.582304 -23.355391 
L 80.185644 -23.355391 
L 79.78898 -23.355391 
L 79.39232 -23.355391 
L 78.99566 -23.355391 
L 78.599 -23.355391 
L 78.202336 -23.355391 
L 77.805676 -23.355391 
L 77.409016 -23.355391 
L 77.012352 -23.355391 
L 76.615692 -23.355391 
L 76.219032 -23.355391 
L 75.822372 -23.355391 
L 75.425709 -23.355391 
L 75.029049 -23.355391 
L 74.632389 -23.355391 
L 74.235725 -23.355391 
L 73.839065 -23.355391 
L 73.442405 -23.355391 
L 73.045741 -23.355391 
L 72.649081 -23.355391 
L 72.252421 -23.355391 
L 71.855761 -23.355391 
L 71.459097 -23.355391 
L 71.062437 -23.355391 
L 70.665777 -23.355391 
L 70.269113 -23.355391 
L 69.872453 -23.355391 
L 69.475793 -23.355391 
L 69.079133 -23.355391 
L 68.68247 -23.355391 
L 68.28581 -23.355391 
L 67.88915 -23.355391 
L 67.492486 -23.355391 
L 67.095826 -23.355391 
L 66.699166 -23.355391 
L 66.302506 -23.355391 
L 65.905842 -23.355391 
L 65.509182 -23.355391 
L 65.112522 -23.355391 
L 64.715858 -23.355391 
L 64.319198 -23.355391 
L 63.922538 -23.355391 
L 63.525875 -23.355391 
L 63.129215 -23.355391 
L 62.732555 -23.355391 
L 62.335895 -23.355391 
L 61.939231 -23.355391 
L 61.542571 -23.355391 
L 61.145911 -23.355391 
L 60.749247 -23.355391 
L 60.352587 -23.355391 
L 59.955927 -23.355391 
L 59.559267 -23.355391 
L 59.162603 -23.355391 
L 58.765943 -23.355391 
L 58.369283 -23.355391 
L 57.97262 -23.355391 
L 57.57596 -23.355391 
L 57.1793 -23.355391 
L 56.78264 -23.355391 
L 56.385976 -23.355391 
L 55.989316 -23.355391 
L 55.592656 -23.355391 
L 55.195992 -23.355391 
L 54.799332 -23.355391 
L 54.402672 -23.355391 
L 54.006008 -23.355391 
L 53.609348 -23.355391 
L 53.212688 -23.355391 
L 52.816028 -23.355391 
L 52.419364 -23.355391 
L 52.022704 -23.355391 
L 51.626044 -23.355391 
L 51.229381 -23.355391 
L 50.832721 -23.355391 
L 50.436061 -23.355391 
L 50.039401 -23.355391 
L 49.642737 -23.355391 
L 49.246077 -23.355391 
L 48.849417 -23.355391 
L 48.452753 -23.355391 
L 48.056093 -23.355391 
L 47.659433 -23.355391 
L 47.262773 -23.355391 
L 46.866109 -23.355391 
L 46.469449 -23.355391 
L 46.072789 -23.355391 
L 45.676126 -23.355391 
L 45.279466 -23.355391 
L 44.882806 -23.355391 
L 44.486142 -23.355391 
L 44.089482 -23.355391 
L 43.692822 -23.355391 
L 43.296162 -23.355391 
L 42.899498 -23.355391 
L 42.502838 -23.355391 
L 42.106178 -23.355391 
L 41.709514 -23.355391 
L 41.312854 -23.355391 
L 40.916194 -23.355391 
L 40.519534 -23.355391 
L 40.122871 -23.355391 
L 39.726211 -23.355391 
L 39.329551 -23.355391 
L 38.932887 -23.355391 
L 38.536227 -23.355391 
L 38.139567 -23.355391 
L 37.742903 -23.355391 
L 37.346243 -23.355391 
L 36.949583 -23.355391 
L 36.552923 -23.355391 
L 36.156259 -23.355391 
L 35.759599 -23.355391 
L 35.362939 -23.355391 
L 34.966275 -23.355391 
L 34.569615 -23.355391 
L 34.172955 -23.355391 
L 33.776295 -23.355391 
L 33.379632 -23.355391 
L 32.982972 -23.355391 
L 32.586312 -23.355391 
L 32.189648 -23.355391 
L 31.792988 -23.355391 
L 31.396328 -23.355391 
L 30.999668 -23.355391 
L 30.603004 -23.355391 
L 30.206344 -23.355391 
L 29.809684 -23.355391 
L 29.41302 -23.355391 
L 29.01636 -23.355391 
L 28.6197 -23.355391 
L 28.223037 -23.355391 
L 27.826377 -23.355391 
L 27.429717 -23.355391 
L 27.033057 -23.355391 
L 26.636393 -23.355391 
L 26.239733 -23.355391 
L 25.843073 -23.355391 
L 25.446409 -23.355391 
L 25.049749 -23.355391 
L 24.653089 -23.355391 
L 24.256429 -23.355391 
L 23.859765 -23.355391 
L 23.463105 -23.355391 
L 23.066445 -23.355391 
L 22.669781 -23.355391 
L 22.273121 -23.355391 
L 21.876461 -23.355391 
L 21.479801 -23.355391 
L 21.083138 -23.355391 
L 20.686478 -23.355391 
L 20.289818 -23.355391 
L 19.893154 -23.355391 
L 19.496494 -23.355391 
L 19.099834 -23.355391 
L 18.70317 -23.355391 
L 18.30651 -23.355391 
L 17.90985 -23.355391 
L 17.51319 -23.355391 
L 17.116526 -23.355391 
L 16.719866 -23.355391 
L 16.323206 -23.355391 
L 15.926543 -23.355391 
L 15.529883 -23.355391 
L 15.133223 -23.355391 
L 14.736563 -23.355391 
L 14.339899 -23.355391 
L 13.943239 -23.355391 
L 13.546579 -23.355391 
L 13.149915 -23.355391 
L 12.753255 -23.355391 
L 12.356595 -23.355391 
L 11.959935 -23.355391 
L 11.563271 -23.355391 
L 11.166611 -23.355391 
L 10.769951 -23.355391 
L 10.373288 -23.355391 
L 9.976628 -23.355391 
L 9.579968 -23.355391 
L 9.183304 -23.355391 
L 8.786644 -23.355391 
L 8.389984 -23.355391 
L 7.993324 -23.355391 
L 7.59666 -23.355391 
L 7.2 -23.355391 
z
"/>
    </defs>
    <g clip-path="url(#p43d19dfeb0)">
     <use xlink:href="#mb16e0b60e2" x="0" y="172.815391" style="fill: #2b90b6; fill-opacity: 0.2"/>
    </g>
   </g>
   <g id="patch_3">
    <path d="M 7.2 149.46 
L 244.8 149.46 
" style="fill: none; opacity: 0.6; stroke: #94a3b8; stroke-width: 0.8; stroke-linejoin: miter; stroke-linecap: square"/>
   </g>
   <g id="FillBetweenPolyCollection_3">
    <defs>
     <path id="m3f0d361f5b" d="M 7.2 -23.355391 
L 7.2 -23.355391 
L 7.59666 -23.355391 
L 7.993324 -23.355391 
L 8.389984 -23.355391 
L 8.786644 -23.355391 
L 9.183304 -23.355391 
L 9.579968 -23.355391 
L 9.976628 -23.355391 
L 10.373288 -23.355391 
L 10.769951 -23.355391 
L 11.166611 -23.355391 
L 11.563271 -23.355391 
L 11.959935 -23.355391 
L 12.356595 -23.355391 
L 12.753255 -23.355391 
L 13.149915 -23.355391 
L 13.546579 -23.355391 
L 13.943239 -23.355391 
L 14.339899 -23.355391 
L 14.736563 -23.355391 
L 15.133223 -23.355391 
L 15.529883 -23.355391 
L 15.926543 -23.355391 
L 16.323206 -23.355391 
L 16.719866 -23.355391 
L 17.116526 -23.355391 
L 17.51319 -23.355391 
L 17.90985 -23.355391 
L 18.30651 -23.355391 
L 18.70317 -23.355391 
L 19.099834 -23.355391 
L 19.496494 -23.355391 
L 19.893154 -23.355391 
L 20.289818 -23.355391 
L 20.686478 -23.355391 
L 21.083138 -23.355391 
L 21.479801 -23.355391 
L 21.876461 -23.355391 
L 22.273121 -23.355391 
L 22.669781 -23.355391 
L 23.066445 -23.355391 
L 23.463105 -23.355391 
L 23.859765 -23.355391 
L 24.256429 -23.355391 
L 24.653089 -23.355391 
L 25.049749 -23.355391 
L 25.446409 -23.355391 
L 25.843073 -23.355391 
L 26.239733 -23.355391 
L 26.636393 -23.355391 
L 27.033057 -23.355391 
L 27.429717 -23.355391 
L 27.826377 -23.355391 
L 28.223037 -23.355391 
L 28.6197 -23.355391 
L 29.01636 -23.355391 
L 29.41302 -23.355391 
L 29.809684 -23.355391 
L 30.206344 -23.355391 
L 30.603004 -23.355391 
L 30.999668 -23.355391 
L 31.396328 -23.355391 
L 31.792988 -23.355391 
L 32.189648 -23.355391 
L 32.586312 -23.355391 
L 32.982972 -23.355391 
L 33.379632 -23.355391 
L 33.776295 -23.355391 
L 34.172955 -23.355391 
L 34.569615 -23.355391 
L 34.966275 -23.355391 
L 35.362939 -23.355391 
L 35.759599 -23.355391 
L 36.156259 -23.355391 
L 36.552923 -23.355391 
L 36.949583 -23.355391 
L 37.346243 -23.355391 
L 37.742903 -23.355391 
L 38.139567 -23.355391 
L 38.536227 -23.355391 
L 38.932887 -23.355391 
L 39.329551 -23.355391 
L 39.726211 -23.355391 
L 40.122871 -23.355391 
L 40.519534 -23.355391 
L 40.916194 -23.355391 
L 41.312854 -23.355391 
L 41.709514 -23.355391 
L 42.106178 -23.355391 
L 42.502838 -23.355391 
L 42.899498 -23.355391 
L 43.296162 -23.355391 
L 43.692822 -23.355391 
L 44.089482 -23.355391 
L 44.486142 -23.355391 
L 44.882806 -23.355391 
L 45.279466 -23.355391 
L 45.676126 -23.355391 
L 46.072789 -23.355391 
L 46.469449 -23.355391 
L 46.866109 -23.355391 
L 47.262773 -23.355391 
L 47.659433 -23.355391 
L 48.056093 -23.355391 
L 48.452753 -23.355391 
L 48.849417 -23.355391 
L 49.246077 -23.355391 
L 49.642737 -23.355391 
L 50.039401 -23.355391 
L 50.436061 -23.355391 
L 50.832721 -23.355391 
L 51.229381 -23.355391 
L 51.626044 -23.355391 
L 52.022704 -23.355391 
L 52.419364 -23.355391 
L 52.816028 -23.355391 
L 53.212688 -23.355391 
L 53.609348 -23.355391 
L 54.006008 -23.355391 
L 54.402672 -23.355391 
L 54.799332 -23.355391 
L 55.195992 -23.355391 
L 55.592656 -23.355391 
L 55.989316 -23.355391 
L 56.385976 -23.355391 
L 56.78264 -23.355391 
L 57.1793 -23.355391 
L 57.57596 -23.355391 
L 57.97262 -23.355391 
L 58.369283 -23.355391 
L 58.765943 -23.355391 
L 59.162603 -23.355391 
L 59.559267 -23.355391 
L 59.955927 -23.355391 
L 60.352587 -23.355391 
L 60.749247 -23.355391 
L 61.145911 -23.355391 
L 61.542571 -23.355391 
L 61.939231 -23.355391 
L 62.335895 -23.355391 
L 62.732555 -23.355391 
L 63.129215 -23.355391 
L 63.525875 -23.355391 
L 63.922538 -23.355391 
L 64.319198 -23.355391 
L 64.715858 -23.355391 
L 65.112522 -23.355391 
L 65.509182 -23.355391 
L 65.905842 -23.355391 
L 66.302506 -23.355391 
L 66.699166 -23.355391 
L 67.095826 -23.355391 
L 67.492486 -23.355391 
L 67.88915 -23.355391 
L 68.28581 -23.355391 
L 68.68247 -23.355391 
L 69.079133 -23.355391 
L 69.475793 -23.355391 
L 69.872453 -23.355391 
L 70.269113 -23.355391 
L 70.665777 -23.355391 
L 71.062437 -23.355391 
L 71.459097 -23.355391 
L 71.855761 -23.355391 
L 72.252421 -23.355391 
L 72.649081 -23.355391 
L 73.045741 -23.355391 
L 73.442405 -23.355391 
L 73.839065 -23.355391 
L 74.235725 -23.355391 
L 74.632389 -23.355391 
L 75.029049 -23.355391 
L 75.425709 -23.355391 
L 75.822372 -23.355391 
L 76.219032 -23.355391 
L 76.615692 -23.355391 
L 77.012352 -23.355391 
L 77.409016 -23.355391 
L 77.805676 -23.355391 
L 78.202336 -23.355391 
L 78.599 -23.355391 
L 78.99566 -23.355391 
L 79.39232 -23.355391 
L 79.78898 -23.355391 
L 80.185644 -23.355391 
L 80.582304 -23.355391 
L 80.978964 -23.355391 
L 81.375627 -23.355391 
L 81.772287 -23.355391 
L 82.168947 -23.355391 
L 82.565611 -23.355391 
L 82.962271 -23.355391 
L 83.358931 -23.355391 
L 83.755591 -23.355391 
L 84.152255 -23.355391 
L 84.548915 -23.355391 
L 84.945575 -23.355391 
L 85.342239 -23.355391 
L 85.738899 -23.355391 
L 86.135559 -23.355391 
L 86.532219 -23.355391 
L 86.928883 -23.355391 
L 87.325543 -23.355391 
L 87.722203 -23.355391 
L 88.118866 -23.355391 
L 88.515526 -23.355391 
L 88.912186 -23.355391 
L 89.308846 -23.355391 
L 89.70551 -23.355391 
L 90.10217 -23.355391 
L 90.49883 -23.355391 
L 90.895494 -23.355396 
L 91.292154 -23.355396 
L 91.688814 -23.355396 
L 92.085478 -23.355396 
L 92.482138 -23.355402 
L 92.878798 -23.355402 
L 93.275458 -23.355407 
L 93.672121 -23.355413 
L 94.068781 -23.355424 
L 94.465441 -23.355435 
L 94.862105 -23.355445 
L 95.258765 -23.355467 
L 95.655425 -23.355489 
L 96.052085 -23.355522 
L 96.448749 -23.355566 
L 96.845409 -23.355621 
L 97.242069 -23.355687 
L 97.638733 -23.35578 
L 98.035393 -23.355895 
L 98.432053 -23.356044 
L 98.828713 -23.356236 
L 99.225376 -23.356477 
L 99.622036 -23.35679 
L 100.018696 -23.357185 
L 100.41536 -23.357684 
L 100.81202 -23.358315 
L 101.20868 -23.359105 
L 101.605344 -23.360098 
L 102.002004 -23.361344 
L 102.398664 -23.362896 
L 102.795324 -23.364828 
L 103.191988 -23.36722 
L 103.588648 -23.370177 
L 103.985308 -23.373831 
L 104.381972 -23.378319 
L 104.778632 -23.383817 
L 105.175292 -23.390543 
L 105.571952 -23.398735 
L 105.968615 -23.408693 
L 106.365275 -23.420758 
L 106.761935 -23.43533 
L 107.158599 -23.452876 
L 107.555259 -23.473951 
L 107.951919 -23.499183 
L 108.348579 -23.529305 
L 108.745243 -23.565154 
L 109.141903 -23.607692 
L 109.538563 -23.65802 
L 109.935227 -23.717385 
L 110.331887 -23.787197 
L 110.728547 -23.869051 
L 111.12521 -23.964738 
L 111.52187 -24.076253 
L 111.91853 -24.205813 
L 112.31519 -24.355899 
L 112.711854 -24.529215 
L 113.108514 -24.728752 
L 113.505174 -24.957773 
L 113.901838 -25.219819 
L 114.298498 -25.518729 
L 114.695158 -25.858629 
L 115.091818 -26.243936 
L 115.488482 -26.679341 
L 115.885142 -27.169821 
L 116.281802 -27.720582 
L 116.678465 -28.337073 
L 117.075125 -29.024933 
L 117.471785 -29.789946 
L 117.868449 -30.63802 
L 118.265109 -31.575109 
L 118.661769 -32.607155 
L 119.058429 -33.740022 
L 119.455093 -34.979417 
L 119.851753 -36.330804 
L 120.248413 -37.799298 
L 120.645077 -39.389588 
L 121.041737 -41.105812 
L 121.438397 -42.951465 
L 121.835057 -44.929285 
L 122.231721 -47.041125 
L 122.628381 -49.287887 
L 123.025041 -51.66935 
L 123.421704 -54.184143 
L 123.818364 -56.829594 
L 124.215024 -59.601681 
L 124.611684 -62.494939 
L 125.008348 -65.502423 
L 125.405008 -68.615667 
L 125.801668 -71.824652 
L 126.198332 -71.824652 
L 126.594992 -68.615667 
L 126.991652 -65.502423 
L 127.388316 -62.494939 
L 127.784976 -59.601681 
L 128.181636 -56.829594 
L 128.578296 -54.184143 
L 128.974959 -51.66935 
L 129.371619 -49.287887 
L 129.768279 -47.041125 
L 130.164943 -44.929285 
L 130.561603 -42.951465 
L 130.958263 -41.105812 
L 131.354923 -39.389588 
L 131.751587 -37.799298 
L 132.148247 -36.330804 
L 132.544907 -34.979417 
L 132.941571 -33.740022 
L 133.338231 -32.607155 
L 133.734891 -31.575109 
L 134.131551 -30.63802 
L 134.528215 -29.789946 
L 134.924875 -29.024933 
L 135.321535 -28.337073 
L 135.718198 -27.720582 
L 136.114858 -27.169821 
L 136.511518 -26.679341 
L 136.908182 -26.243936 
L 137.304842 -25.858629 
L 137.701502 -25.518729 
L 138.098162 -25.219819 
L 138.494826 -24.957773 
L 138.891486 -24.728752 
L 139.288146 -24.529215 
L 139.68481 -24.355899 
L 140.08147 -24.205813 
L 140.47813 -24.076253 
L 140.87479 -23.964738 
L 141.271453 -23.869051 
L 141.668113 -23.787197 
L 142.064773 -23.717385 
L 142.461437 -23.65802 
L 142.858097 -23.607692 
L 143.254757 -23.565154 
L 143.651421 -23.529305 
L 144.048081 -23.499183 
L 144.444741 -23.473951 
L 144.841401 -23.452876 
L 145.238065 -23.43533 
L 145.634725 -23.420758 
L 146.031385 -23.408693 
L 146.428048 -23.398735 
L 146.824708 -23.390543 
L 147.221368 -23.383817 
L 147.618028 -23.378319 
L 148.014692 -23.373831 
L 148.411352 -23.370177 
L 148.808012 -23.36722 
L 149.204676 -23.364828 
L 149.601336 -23.362896 
L 149.997996 -23.361344 
L 150.394656 -23.360098 
L 150.79132 -23.359105 
L 151.18798 -23.358315 
L 151.58464 -23.357684 
L 151.981304 -23.357185 
L 152.377964 -23.35679 
L 152.774624 -23.356477 
L 153.171287 -23.356236 
L 153.567947 -23.356044 
L 153.964607 -23.355895 
L 154.361267 -23.35578 
L 154.757931 -23.355687 
L 155.154591 -23.355621 
L 155.551251 -23.355566 
L 155.947915 -23.355522 
L 156.344575 -23.355489 
L 156.741235 -23.355467 
L 157.137895 -23.355445 
L 157.534559 -23.355435 
L 157.931219 -23.355424 
L 158.327879 -23.355413 
L 158.724542 -23.355407 
L 159.121202 -23.355402 
L 159.517862 -23.355402 
L 159.914522 -23.355396 
L 160.311186 -23.355396 
L 160.707846 -23.355396 
L 161.104506 -23.355396 
L 161.50117 -23.355391 
L 161.89783 -23.355391 
L 162.29449 -23.355391 
L 162.691154 -23.355391 
L 163.087814 -23.355391 
L 163.484474 -23.355391 
L 163.881134 -23.355391 
L 164.277797 -23.355391 
L 164.674457 -23.355391 
L 165.071117 -23.355391 
L 165.467781 -23.355391 
L 165.864441 -23.355391 
L 166.261101 -23.355391 
L 166.657761 -23.355391 
L 167.054425 -23.355391 
L 167.451085 -23.355391 
L 167.847745 -23.355391 
L 168.244409 -23.355391 
L 168.641069 -23.355391 
L 169.037729 -23.355391 
L 169.434389 -23.355391 
L 169.831053 -23.355391 
L 170.227713 -23.355391 
L 170.624373 -23.355391 
L 171.021036 -23.355391 
L 171.417696 -23.355391 
L 171.814356 -23.355391 
L 172.21102 -23.355391 
L 172.60768 -23.355391 
L 173.00434 -23.355391 
L 173.401 -23.355391 
L 173.797664 -23.355391 
L 174.194324 -23.355391 
L 174.590984 -23.355391 
L 174.987648 -23.355391 
L 175.384308 -23.355391 
L 175.780968 -23.355391 
L 176.177628 -23.355391 
L 176.574291 -23.355391 
L 176.970951 -23.355391 
L 177.367611 -23.355391 
L 177.764275 -23.355391 
L 178.160935 -23.355391 
L 178.557595 -23.355391 
L 178.954259 -23.355391 
L 179.350919 -23.355391 
L 179.747579 -23.355391 
L 180.144239 -23.355391 
L 180.540903 -23.355391 
L 180.937563 -23.355391 
L 181.334223 -23.355391 
L 181.730887 -23.355391 
L 182.127547 -23.355391 
L 182.524207 -23.355391 
L 182.920867 -23.355391 
L 183.31753 -23.355391 
L 183.71419 -23.355391 
L 184.11085 -23.355391 
L 184.507514 -23.355391 
L 184.904174 -23.355391 
L 185.300834 -23.355391 
L 185.697494 -23.355391 
L 186.094158 -23.355391 
L 186.490818 -23.355391 
L 186.887478 -23.355391 
L 187.284142 -23.355391 
L 187.680802 -23.355391 
L 188.077462 -23.355391 
L 188.474125 -23.355391 
L 188.870785 -23.355391 
L 189.267445 -23.355391 
L 189.664105 -23.355391 
L 190.060769 -23.355391 
L 190.457429 -23.355391 
L 190.854089 -23.355391 
L 191.250753 -23.355391 
L 191.647413 -23.355391 
L 192.044073 -23.355391 
L 192.440733 -23.355391 
L 192.837397 -23.355391 
L 193.234057 -23.355391 
L 193.630717 -23.355391 
L 194.02738 -23.355391 
L 194.42404 -23.355391 
L 194.8207 -23.355391 
L 195.21736 -23.355391 
L 195.614024 -23.355391 
L 196.010684 -23.355391 
L 196.407344 -23.355391 
L 196.804008 -23.355391 
L 197.200668 -23.355391 
L 197.597328 -23.355391 
L 197.993992 -23.355391 
L 198.390652 -23.355391 
L 198.787312 -23.355391 
L 199.183972 -23.355391 
L 199.580636 -23.355391 
L 199.977296 -23.355391 
L 200.373956 -23.355391 
L 200.770619 -23.355391 
L 201.167279 -23.355391 
L 201.563939 -23.355391 
L 201.960599 -23.355391 
L 202.357263 -23.355391 
L 202.753923 -23.355391 
L 203.150583 -23.355391 
L 203.547247 -23.355391 
L 203.943907 -23.355391 
L 204.340567 -23.355391 
L 204.737227 -23.355391 
L 205.133891 -23.355391 
L 205.530551 -23.355391 
L 205.927211 -23.355391 
L 206.323874 -23.355391 
L 206.720534 -23.355391 
L 207.117194 -23.355391 
L 207.513858 -23.355391 
L 207.910518 -23.355391 
L 208.307178 -23.355391 
L 208.703838 -23.355391 
L 209.100502 -23.355391 
L 209.497162 -23.355391 
L 209.893822 -23.355391 
L 210.290486 -23.355391 
L 210.687146 -23.355391 
L 211.083806 -23.355391 
L 211.480466 -23.355391 
L 211.877129 -23.355391 
L 212.273789 -23.355391 
L 212.670449 -23.355391 
L 213.067113 -23.355391 
L 213.463773 -23.355391 
L 213.860433 -23.355391 
L 214.257097 -23.355391 
L 214.653757 -23.355391 
L 215.050417 -23.355391 
L 215.447077 -23.355391 
L 215.843741 -23.355391 
L 216.240401 -23.355391 
L 216.637061 -23.355391 
L 217.033725 -23.355391 
L 217.430385 -23.355391 
L 217.827045 -23.355391 
L 218.223705 -23.355391 
L 218.620368 -23.355391 
L 219.017028 -23.355391 
L 219.413688 -23.355391 
L 219.810352 -23.355391 
L 220.207012 -23.355391 
L 220.603672 -23.355391 
L 221.000332 -23.355391 
L 221.396996 -23.355391 
L 221.793656 -23.355391 
L 222.190316 -23.355391 
L 222.58698 -23.355391 
L 222.98364 -23.355391 
L 223.3803 -23.355391 
L 223.776963 -23.355391 
L 224.173623 -23.355391 
L 224.570283 -23.355391 
L 224.966943 -23.355391 
L 225.363607 -23.355391 
L 225.760267 -23.355391 
L 226.156927 -23.355391 
L 226.553591 -23.355391 
L 226.950251 -23.355391 
L 227.346911 -23.355391 
L 227.743571 -23.355391 
L 228.140235 -23.355391 
L 228.536895 -23.355391 
L 228.933555 -23.355391 
L 229.330219 -23.355391 
L 229.726879 -23.355391 
L 230.123539 -23.355391 
L 230.520199 -23.355391 
L 230.916862 -23.355391 
L 231.313522 -23.355391 
L 231.710182 -23.355391 
L 232.106846 -23.355391 
L 232.503506 -23.355391 
L 232.900166 -23.355391 
L 233.29683 -23.355391 
L 233.69349 -23.355391 
L 234.09015 -23.355391 
L 234.48681 -23.355391 
L 234.883474 -23.355391 
L 235.280134 -23.355391 
L 235.676794 -23.355391 
L 236.073457 -23.355391 
L 236.470117 -23.355391 
L 236.866777 -23.355391 
L 237.263437 -23.355391 
L 237.660101 -23.355391 
L 238.056761 -23.355391 
L 238.453421 -23.355391 
L 238.850085 -23.355391 
L 239.246745 -23.355391 
L 239.643405 -23.355391 
L 240.040065 -23.355391 
L 240.436729 -23.355391 
L 240.833389 -23.355391 
L 241.230049 -23.355391 
L 241.626712 -23.355391 
L 242.023372 -23.355391 
L 242.420032 -23.355391 
L 242.816696 -23.355391 
L 243.213356 -23.355391 
L 243.610016 -23.355391 
L 244.006676 -23.355391 
L 244.40334 -23.355391 
L 244.8 -23.355391 
L 244.8 -23.355391 
L 244.8 -23.355391 
L 244.40334 -23.355391 
L 244.006676 -23.355391 
L 243.610016 -23.355391 
L 243.213356 -23.355391 
L 242.816696 -23.355391 
L 242.420032 -23.355391 
L 242.023372 -23.355391 
L 241.626712 -23.355391 
L 241.230049 -23.355391 
L 240.833389 -23.355391 
L 240.436729 -23.355391 
L 240.040065 -23.355391 
L 239.643405 -23.355391 
L 239.246745 -23.355391 
L 238.850085 -23.355391 
L 238.453421 -23.355391 
L 238.056761 -23.355391 
L 237.660101 -23.355391 
L 237.263437 -23.355391 
L 236.866777 -23.355391 
L 236.470117 -23.355391 
L 236.073457 -23.355391 
L 235.676794 -23.355391 
L 235.280134 -23.355391 
L 234.883474 -23.355391 
L 234.48681 -23.355391 
L 234.09015 -23.355391 
L 233.69349 -23.355391 
L 233.29683 -23.355391 
L 232.900166 -23.355391 
L 232.503506 -23.355391 
L 232.106846 -23.355391 
L 231.710182 -23.355391 
L 231.313522 -23.355391 
L 230.916862 -23.355391 
L 230.520199 -23.355391 
L 230.123539 -23.355391 
L 229.726879 -23.355391 
L 229.330219 -23.355391 
L 228.933555 -23.355391 
L 228.536895 -23.355391 
L 228.140235 -23.355391 
L 227.743571 -23.355391 
L 227.346911 -23.355391 
L 226.950251 -23.355391 
L 226.553591 -23.355391 
L 226.156927 -23.355391 
L 225.760267 -23.355391 
L 225.363607 -23.355391 
L 224.966943 -23.355391 
L 224.570283 -23.355391 
L 224.173623 -23.355391 
L 223.776963 -23.355391 
L 223.3803 -23.355391 
L 222.98364 -23.355391 
L 222.58698 -23.355391 
L 222.190316 -23.355391 
L 221.793656 -23.355391 
L 221.396996 -23.355391 
L 221.000332 -23.355391 
L 220.603672 -23.355391 
L 220.207012 -23.355391 
L 219.810352 -23.355391 
L 219.413688 -23.355391 
L 219.017028 -23.355391 
L 218.620368 -23.355391 
L 218.223705 -23.355391 
L 217.827045 -23.355391 
L 217.430385 -23.355391 
L 217.033725 -23.355391 
L 216.637061 -23.355391 
L 216.240401 -23.355391 
L 215.843741 -23.355391 
L 215.447077 -23.355391 
L 215.050417 -23.355391 
L 214.653757 -23.355391 
L 214.257097 -23.355391 
L 213.860433 -23.355391 
L 213.463773 -23.355391 
L 213.067113 -23.355391 
L 212.670449 -23.355391 
L 212.273789 -23.355391 
L 211.877129 -23.355391 
L 211.480466 -23.355391 
L 211.083806 -23.355391 
L 210.687146 -23.355391 
L 210.290486 -23.355391 
L 209.893822 -23.355391 
L 209.497162 -23.355391 
L 209.100502 -23.355391 
L 208.703838 -23.355391 
L 208.307178 -23.355391 
L 207.910518 -23.355391 
L 207.513858 -23.355391 
L 207.117194 -23.355391 
L 206.720534 -23.355391 
L 206.323874 -23.355391 
L 205.927211 -23.355391 
L 205.530551 -23.355391 
L 205.133891 -23.355391 
L 204.737227 -23.355391 
L 204.340567 -23.355391 
L 203.943907 -23.355391 
L 203.547247 -23.355391 
L 203.150583 -23.355391 
L 202.753923 -23.355391 
L 202.357263 -23.355391 
L 201.960599 -23.355391 
L 201.563939 -23.355391 
L 201.167279 -23.355391 
L 200.770619 -23.355391 
L 200.373956 -23.355391 
L 199.977296 -23.355391 
L 199.580636 -23.355391 
L 199.183972 -23.355391 
L 198.787312 -23.355391 
L 198.390652 -23.355391 
L 197.993992 -23.355391 
L 197.597328 -23.355391 
L 197.200668 -23.355391 
L 196.804008 -23.355391 
L 196.407344 -23.355391 
L 196.010684 -23.355391 
L 195.614024 -23.355391 
L 195.21736 -23.355391 
L 194.8207 -23.355391 
L 194.42404 -23.355391 
L 194.02738 -23.355391 
L 193.630717 -23.355391 
L 193.234057 -23.355391 
L 192.837397 -23.355391 
L 192.440733 -23.355391 
L 192.044073 -23.355391 
L 191.647413 -23.355391 
L 191.250753 -23.355391 
L 190.854089 -23.355391 
L 190.457429 -23.355391 
L 190.060769 -23.355391 
L 189.664105 -23.355391 
L 189.267445 -23.355391 
L 188.870785 -23.355391 
L 188.474125 -23.355391 
L 188.077462 -23.355391 
L 187.680802 -23.355391 
L 187.284142 -23.355391 
L 186.887478 -23.355391 
L 186.490818 -23.355391 
L 186.094158 -23.355391 
L 185.697494 -23.355391 
L 185.300834 -23.355391 
L 184.904174 -23.355391 
L 184.507514 -23.355391 
L 184.11085 -23.355391 
L 183.71419 -23.355391 
L 183.31753 -23.355391 
L 182.920867 -23.355391 
L 182.524207 -23.355391 
L 182.127547 -23.355391 
L 181.730887 -23.355391 
L 181.334223 -23.355391 
L 180.937563 -23.355391 
L 180.540903 -23.355391 
L 180.144239 -23.355391 
L 179.747579 -23.355391 
L 179.350919 -23.355391 
L 178.954259 -23.355391 
L 178.557595 -23.355391 
L 178.160935 -23.355391 
L 177.764275 -23.355391 
L 177.367611 -23.355391 
L 176.970951 -23.355391 
L 176.574291 -23.355391 
L 176.177628 -23.355391 
L 175.780968 -23.355391 
L 175.384308 -23.355391 
L 174.987648 -23.355391 
L 174.590984 -23.355391 
L 174.194324 -23.355391 
L 173.797664 -23.355391 
L 173.401 -23.355391 
L 173.00434 -23.355391 
L 172.60768 -23.355391 
L 172.21102 -23.355391 
L 171.814356 -23.355391 
L 171.417696 -23.355391 
L 171.021036 -23.355391 
L 170.624373 -23.355391 
L 170.227713 -23.355391 
L 169.831053 -23.355391 
L 169.434389 -23.355391 
L 169.037729 -23.355391 
L 168.641069 -23.355391 
L 168.244409 -23.355391 
L 167.847745 -23.355391 
L 167.451085 -23.355391 
L 167.054425 -23.355391 
L 166.657761 -23.355391 
L 166.261101 -23.355391 
L 165.864441 -23.355391 
L 165.467781 -23.355391 
L 165.071117 -23.355391 
L 164.674457 -23.355391 
L 164.277797 -23.355391 
L 163.881134 -23.355391 
L 163.484474 -23.355391 
L 163.087814 -23.355391 
L 162.691154 -23.355391 
L 162.29449 -23.355391 
L 161.89783 -23.355391 
L 161.50117 -23.355391 
L 161.104506 -23.355391 
L 160.707846 -23.355391 
L 160.311186 -23.355391 
L 159.914522 -23.355391 
L 159.517862 -23.355391 
L 159.121202 -23.355391 
L 158.724542 -23.355391 
L 158.327879 -23.355391 
L 157.931219 -23.355391 
L 157.534559 -23.355391 
L 157.137895 -23.355391 
L 156.741235 -23.355391 
L 156.344575 -23.355391 
L 155.947915 -23.355391 
L 155.551251 -23.355391 
L 155.154591 -23.355391 
L 154.757931 -23.355391 
L 154.361267 -23.355391 
L 153.964607 -23.355391 
L 153.567947 -23.355391 
L 153.171287 -23.355391 
L 152.774624 -23.355391 
L 152.377964 -23.355391 
L 151.981304 -23.355391 
L 151.58464 -23.355391 
L 151.18798 -23.355391 
L 150.79132 -23.355391 
L 150.394656 -23.355391 
L 149.997996 -23.355391 
L 149.601336 -23.355391 
L 149.204676 -23.355391 
L 148.808012 -23.355391 
L 148.411352 -23.355391 
L 148.014692 -23.355391 
L 147.618028 -23.355391 
L 147.221368 -23.355391 
L 146.824708 -23.355391 
L 146.428048 -23.355391 
L 146.031385 -23.355391 
L 145.634725 -23.355391 
L 145.238065 -23.355391 
L 144.841401 -23.355391 
L 144.444741 -23.355391 
L 144.048081 -23.355391 
L 143.651421 -23.355391 
L 143.254757 -23.355391 
L 142.858097 -23.355391 
L 142.461437 -23.355391 
L 142.064773 -23.355391 
L 141.668113 -23.355391 
L 141.271453 -23.355391 
L 140.87479 -23.355391 
L 140.47813 -23.355391 
L 140.08147 -23.355391 
L 139.68481 -23.355391 
L 139.288146 -23.355391 
L 138.891486 -23.355391 
L 138.494826 -23.355391 
L 138.098162 -23.355391 
L 137.701502 -23.355391 
L 137.304842 -23.355391 
L 136.908182 -23.355391 
L 136.511518 -23.355391 
L 136.114858 -23.355391 
L 135.718198 -23.355391 
L 135.321535 -23.355391 
L 134.924875 -23.355391 
L 134.528215 -23.355391 
L 134.131551 -23.355391 
L 133.734891 -23.355391 
L 133.338231 -23.355391 
L 132.941571 -23.355391 
L 132.544907 -23.355391 
L 132.148247 -23.355391 
L 131.751587 -23.355391 
L 131.354923 -23.355391 
L 130.958263 -23.355391 
L 130.561603 -23.355391 
L 130.164943 -23.355391 
L 129.768279 -23.355391 
L 129.371619 -23.355391 
L 128.974959 -23.355391 
L 128.578296 -23.355391 
L 128.181636 -23.355391 
L 127.784976 -23.355391 
L 127.388316 -23.355391 
L 126.991652 -23.355391 
L 126.594992 -23.355391 
L 126.198332 -23.355391 
L 125.801668 -23.355391 
L 125.405008 -23.355391 
L 125.008348 -23.355391 
L 124.611684 -23.355391 
L 124.215024 -23.355391 
L 123.818364 -23.355391 
L 123.421704 -23.355391 
L 123.025041 -23.355391 
L 122.628381 -23.355391 
L 122.231721 -23.355391 
L 121.835057 -23.355391 
L 121.438397 -23.355391 
L 121.041737 -23.355391 
L 120.645077 -23.355391 
L 120.248413 -23.355391 
L 119.851753 -23.355391 
L 119.455093 -23.355391 
L 119.058429 -23.355391 
L 118.661769 -23.355391 
L 118.265109 -23.355391 
L 117.868449 -23.355391 
L 117.471785 -23.355391 
L 117.075125 -23.355391 
L 116.678465 -23.355391 
L 116.281802 -23.355391 
L 115.885142 -23.355391 
L 115.488482 -23.355391 
L 115.091818 -23.355391 
L 114.695158 -23.355391 
L 114.298498 -23.355391 
L 113.901838 -23.355391 
L 113.505174 -23.355391 
L 113.108514 -23.355391 
L 112.711854 -23.355391 
L 112.31519 -23.355391 
L 111.91853 -23.355391 
L 111.52187 -23.355391 
L 111.12521 -23.355391 
L 110.728547 -23.355391 
L 110.331887 -23.355391 
L 109.935227 -23.355391 
L 109.538563 -23.355391 
L 109.141903 -23.355391 
L 108.745243 -23.355391 
L 108.348579 -23.355391 
L 107.951919 -23.355391 
L 107.555259 -23.355391 
L 107.158599 -23.355391 
L 106.761935 -23.355391 
L 106.365275 -23.355391 
L 105.968615 -23.355391 
L 105.571952 -23.355391 
L 105.175292 -23.355391 
L 104.778632 -23.355391 
L 104.381972 -23.355391 
L 103.985308 -23.355391 
L 103.588648 -23.355391 
L 103.191988 -23.355391 
L 102.795324 -23.355391 
L 102.398664 -23.355391 
L 102.002004 -23.355391 
L 101.605344 -23.355391 
L 101.20868 -23.355391 
L 100.81202 -23.355391 
L 100.41536 -23.355391 
L 100.018696 -23.355391 
L 99.622036 -23.355391 
L 99.225376 -23.355391 
L 98.828713 -23.355391 
L 98.432053 -23.355391 
L 98.035393 -23.355391 
L 97.638733 -23.355391 
L 97.242069 -23.355391 
L 96.845409 -23.355391 
L 96.448749 -23.355391 
L 96.052085 -23.355391 
L 95.655425 -23.355391 
L 95.258765 -23.355391 
L 94.862105 -23.355391 
L 94.465441 -23.355391 
L 94.068781 -23.355391 
L 93.672121 -23.355391 
L 93.275458 -23.355391 
L 92.878798 -23.355391 
L 92.482138 -23.355391 
L 92.085478 -23.355391 
L 91.688814 -23.355391 
L 91.292154 -23.355391 
L 90.895494 -23.355391 
L 90.49883 -23.355391 
L 90.10217 -23.355391 
L 89.70551 -23.355391 
L 89.308846 -23.355391 
L 88.912186 -23.355391 
L 88.515526 -23.355391 
L 88.118866 -23.355391 
L 87.722203 -23.355391 
L 87.325543 -23.355391 
L 86.928883 -23.355391 
L 86.532219 -23.355391 
L 86.135559 -23.355391 
L 85.738899 -23.355391 
L 85.342239 -23.355391 
L 84.945575 -23.355391 
L 84.548915 -23.355391 
L 84.152255 -23.355391 
L 83.755591 -23.355391 
L 83.358931 -23.355391 
L 82.962271 -23.355391 
L 82.565611 -23.355391 
L 82.168947 -23.355391 
L 81.772287 -23.355391 
L 81.375627 -23.355391 
L 80.978964 -23.355391 
L 80.582304 -23.355391 
L 80.185644 -23.355391 
L 79.78898 -23.355391 
L 79.39232 -23.355391 
L 78.99566 -23.355391 
L 78.599 -23.355391 
L 78.202336 -23.355391 
L 77.805676 -23.355391 
L 77.409016 -23.355391 
L 77.012352 -23.355391 
L 76.615692 -23.355391 
L 76.219032 -23.355391 
L 75.822372 -23.355391 
L 75.425709 -23.355391 
L 75.029049 -23.355391 
L 74.632389 -23.355391 
L 74.235725 -23.355391 
L 73.839065 -23.355391 
L 73.442405 -23.355391 
L 73.045741 -23.355391 
L 72.649081 -23.355391 
L 72.252421 -23.355391 
L 71.855761 -23.355391 
L 71.459097 -23.355391 
L 71.062437 -23.355391 
L 70.665777 -23.355391 
L 70.269113 -23.355391 
L 69.872453 -23.355391 
L 69.475793 -23.355391 
L 69.079133 -23.355391 
L 68.68247 -23.355391 
L 68.28581 -23.355391 
L 67.88915 -23.355391 
L 67.492486 -23.355391 
L 67.095826 -23.355391 
L 66.699166 -23.355391 
L 66.302506 -23.355391 
L 65.905842 -23.355391 
L 65.509182 -23.355391 
L 65.112522 -23.355391 
L 64.715858 -23.355391 
L 64.319198 -23.355391 
L 63.922538 -23.355391 
L 63.525875 -23.355391 
L 63.129215 -23.355391 
L 62.732555 -23.355391 
L 62.335895 -23.355391 
L 61.939231 -23.355391 
L 61.542571 -23.355391 
L 61.145911 -23.355391 
L 60.749247 -23.355391 
L 60.352587 -23.355391 
L 59.955927 -23.355391 
L 59.559267 -23.355391 
L 59.162603 -23.355391 
L 58.765943 -23.355391 
L 58.369283 -23.355391 
L 57.97262 -23.355391 
L 57.57596 -23.355391 
L 57.1793 -23.355391 
L 56.78264 -23.355391 
L 56.385976 -23.355391 
L 55.989316 -23.355391 
L 55.592656 -23.355391 
L 55.195992 -23.355391 
L 54.799332 -23.355391 
L 54.402672 -23.355391 
L 54.006008 -23.355391 
L 53.609348 -23.355391 
L 53.212688 -23.355391 
L 52.816028 -23.355391 
L 52.419364 -23.355391 
L 52.022704 -23.355391 
L 51.626044 -23.355391 
L 51.229381 -23.355391 
L 50.832721 -23.355391 
L 50.436061 -23.355391 
L 50.039401 -23.355391 
L 49.642737 -23.355391 
L 49.246077 -23.355391 
L 48.849417 -23.355391 
L 48.452753 -23.355391 
L 48.056093 -23.355391 
L 47.659433 -23.355391 
L 47.262773 -23.355391 
L 46.866109 -23.355391 
L 46.469449 -23.355391 
L 46.072789 -23.355391 
L 45.676126 -23.355391 
L 45.279466 -23.355391 
L 44.882806 -23.355391 
L 44.486142 -23.355391 
L 44.089482 -23.355391 
L 43.692822 -23.355391 
L 43.296162 -23.355391 
L 42.899498 -23.355391 
L 42.502838 -23.355391 
L 42.106178 -23.355391 
L 41.709514 -23.355391 
L 41.312854 -23.355391 
L 40.916194 -23.355391 
L 40.519534 -23.355391 
L 40.122871 -23.355391 
L 39.726211 -23.355391 
L 39.329551 -23.355391 
L 38.932887 -23.355391 
L 38.536227 -23.355391 
L 38.139567 -23.355391 
L 37.742903 -23.355391 
L 37.346243 -23.355391 
L 36.949583 -23.355391 
L 36.552923 -23.355391 
L 36.156259 -23.355391 
L 35.759599 -23.355391 
L 35.362939 -23.355391 
L 34.966275 -23.355391 
L 34.569615 -23.355391 
L 34.172955 -23.355391 
L 33.776295 -23.355391 
L 33.379632 -23.355391 
L 32.982972 -23.355391 
L 32.586312 -23.355391 
L 32.189648 -23.355391 
L 31.792988 -23.355391 
L 31.396328 -23.355391 
L 30.999668 -23.355391 
L 30.603004 -23.355391 
L 30.206344 -23.355391 
L 29.809684 -23.355391 
L 29.41302 -23.355391 
L 29.01636 -23.355391 
L 28.6197 -23.355391 
L 28.223037 -23.355391 
L 27.826377 -23.355391 
L 27.429717 -23.355391 
L 27.033057 -23.355391 
L 26.636393 -23.355391 
L 26.239733 -23.355391 
L 25.843073 -23.355391 
L 25.446409 -23.355391 
L 25.049749 -23.355391 
L 24.653089 -23.355391 
L 24.256429 -23.355391 
L 23.859765 -23.355391 
L 23.463105 -23.355391 
L 23.066445 -23.355391 
L 22.669781 -23.355391 
L 22.273121 -23.355391 
L 21.876461 -23.355391 
L 21.479801 -23.355391 
L 21.083138 -23.355391 
L 20.686478 -23.355391 
L 20.289818 -23.355391 
L 19.893154 -23.355391 
L 19.496494 -23.355391 
L 19.099834 -23.355391 
L 18.70317 -23.355391 
L 18.30651 -23.355391 
L 17.90985 -23.355391 
L 17.51319 -23.355391 
L 17.116526 -23.355391 
L 16.719866 -23.355391 
L 16.323206 -23.355391 
L 15.926543 -23.355391 
L 15.529883 -23.355391 
L 15.133223 -23.355391 
L 14.736563 -23.355391 
L 14.339899 -23.355391 
L 13.943239 -23.355391 
L 13.546579 -23.355391 
L 13.149915 -23.355391 
L 12.753255 -23.355391 
L 12.356595 -23.355391 
L 11.959935 -23.355391 
L 11.563271 -23.355391 
L 11.166611 -23.355391 
L 10.769951 -23.355391 
L 10.373288 -23.355391 
L 9.976628 -23.355391 
L 9.579968 -23.355391 
L 9.183304 -23.355391 
L 8.786644 -23.355391 
L 8.389984 -23.355391 
L 7.993324 -23.355391 
L 7.59666 -23.355391 
L 7.2 -23.355391 
z
"/>
    </defs>
    <g clip-path="url(#p43d19dfeb0)">
     <use xlink:href="#m3f0d361f5b" x="0" y="172.815391" style="fill: #94a3b8; fill-opacity: 0.55"/>
    </g>
   </g>
   <g id="patch_4">
    <path d="M 119.91572 26.897538 
Q 125.999355 26.897538 132.082991 26.897538 
" style="fill: none; stroke: #334155; stroke-width: 1.2; stroke-linecap: round"/>
    <path d="M 123.91572 28.897538 
L 119.91572 26.897538 
L 123.91572 24.897538 
" style="fill: none; stroke: #334155; stroke-width: 1.2; stroke-linecap: round"/>
    <path d="M 128.082991 24.897538 
L 132.082991 26.897538 
L 128.082991 28.897538 
" style="fill: none; stroke: #334155; stroke-width: 1.2; stroke-linecap: round"/>
   </g>
   <g id="text_3">
    <text style="font-size: 8.5px; font-family: 'Inter Tight', 'Inter', 'Helvetica Neue', 'Arial', 'DejaVu Sans'; text-anchor: middle; fill: #334155" x="126" y="19.648969" transform="rotate(-0 126 19.648969)">signal = 5</text>
   </g>
   <g id="text_4">
    <text style="font-weight: 700; font-size: 10px; font-family: 'Inter Tight', 'Inter', 'Helvetica Neue', 'Arial', 'DejaVu Sans'; text-anchor: start; fill: #0ea672" x="14.328" y="24.298825" transform="rotate(-0 14.328 24.298825)">SD = 2  ·  d = 2.5</text>
   </g>
   <g id="line2d_3">
    <path d="M 7.2 149.46 
L 88.515526 149.351618 
L 90.895494 149.126541 
L 92.482138 148.792572 
L 93.672121 148.369028 
L 94.862105 147.72054 
L 96.052085 146.754751 
L 96.845409 145.878514 
L 97.638733 144.770616 
L 98.432053 143.387555 
L 99.225376 141.683077 
L 100.018696 139.609741 
L 101.20868 135.706922 
L 102.398664 130.729782 
L 103.588648 124.5785 
L 104.778632 117.219546 
L 106.365275 105.645338 
L 108.348579 89.048529 
L 111.52187 61.988613 
L 112.711854 53.44721 
L 113.901838 46.662406 
L 114.695158 43.35226 
L 115.488482 41.140387 
L 115.885142 40.470271 
L 116.281802 40.098861 
L 116.678465 40.029231 
L 117.075125 40.261956 
L 117.471785 40.795116 
L 117.868449 41.624294 
L 118.661769 44.141123 
L 119.455093 47.730773 
L 120.248413 52.279036 
L 121.438397 60.585602 
L 123.025041 73.563287 
L 126.991652 107.312967 
L 128.578296 118.631247 
L 129.768279 125.774265 
L 130.958263 131.709579 
L 132.148247 136.484586 
L 133.338231 140.208236 
L 134.528215 143.025445 
L 135.718198 145.094808 
L 136.908182 146.571455 
L 138.098162 147.595572 
L 139.288146 148.286175 
L 140.47813 148.739138 
L 142.064773 149.098005 
L 144.048081 149.316207 
L 147.618028 149.437072 
L 159.121202 149.459989 
L 244.8 149.46 
L 244.8 149.46 
" clip-path="url(#p43d19dfeb0)" style="fill: none; stroke: #64748b; stroke-width: 1.8; stroke-linecap: square"/>
   </g>
   <g id="line2d_4">
    <path d="M 7.2 149.46 
L 107.158599 149.362514 
L 109.538563 149.15737 
L 111.12521 148.850653 
L 112.31519 148.459492 
L 113.505174 147.857617 
L 114.695158 146.956762 
L 115.488482 146.136049 
L 116.281802 145.094808 
L 117.075125 143.790457 
L 117.868449 142.17737 
L 118.661769 140.208236 
L 119.851753 136.484586 
L 121.041737 131.709579 
L 122.231721 125.774265 
L 123.421704 118.631247 
L 125.008348 107.312967 
L 126.991652 90.912573 
L 130.561603 60.585602 
L 131.751587 52.279036 
L 132.544907 47.730773 
L 133.338231 44.141123 
L 134.131551 41.624294 
L 134.528215 40.795116 
L 134.924875 40.261956 
L 135.321535 40.029231 
L 135.718198 40.098861 
L 136.114858 40.470271 
L 136.511518 41.140387 
L 137.304842 43.35226 
L 138.098162 46.662406 
L 138.891486 50.964876 
L 140.08147 58.979555 
L 141.668113 71.729096 
L 146.031385 108.711051 
L 147.618028 119.80527 
L 148.808012 126.763109 
L 149.997996 132.515472 
L 151.18798 137.1209 
L 152.377964 140.695479 
L 153.567947 143.387555 
L 154.757931 145.356162 
L 155.947915 146.754751 
L 157.137895 147.72054 
L 158.327879 148.369028 
L 159.517862 148.792572 
L 161.104506 149.126541 
L 163.484474 149.351618 
L 167.451085 149.446651 
L 185.697494 149.46 
L 244.8 149.46 
L 244.8 149.46 
" clip-path="url(#p43d19dfeb0)" style="fill: none; stroke: #2b90b6; stroke-width: 1.8; stroke-linecap: square"/>
   </g>
   <g id="line2d_5">
    <path d="M 116.571429 149.46 
L 116.571429 37.840615 
" clip-path="url(#p43d19dfeb0)" style="fill: none; stroke-dasharray: 3,2; stroke-dashoffset: 0; stroke: #94a3b8; stroke-opacity: 0.9"/>
   </g>
   <g id="line2d_6">
    <path d="M 135.428571 149.46 
L 135.428571 37.840615 
" clip-path="url(#p43d19dfeb0)" style="fill: none; stroke-dasharray: 3,2; stroke-dashoffset: 0; stroke: #94a3b8; stroke-opacity: 0.9"/>
   </g>
  </g>
 </g>
 <defs>
  <clipPath id="p43d19dfeb0">
   <rect x="7.2" y="7.2" width="237.6" height="142.26"/>
  </clipPath>
 </defs>
</svg>
