<?xml version="1.0" encoding="utf-8" standalone="no"?>
<!DOCTYPE svg PUBLIC "-//W3C//DTD SVG 1.1//EN"
  "http://www.w3.org/Graphics/SVG/1.1/DTD/svg11.dtd">
<svg xmlns:xlink="http://www.w3.org/1999/xlink" width="252pt" height="172.815391pt" viewBox="0 0 252 172.815391" xmlns="http://www.w3.org/2000/svg" version="1.1">
 <metadata>
  <rdf:RDF xmlns:dc="http://purl.org/dc/elements/1.1/" xmlns:cc="http://creativecommons.org/ns#" xmlns:rdf="http://www.w3.org/1999/02/22-rdf-syntax-ns#">
   <cc:Work>
    <dc:type rdf:resource="http://purl.org/dc/dcmitype/StillImage"/>
    <dc:date>2026-06-09T18:41:58.108078</dc:date>
    <dc:format>image/svg+xml</dc:format>
    <dc:creator>
     <cc:Agent>
      <dc:title>Matplotlib v3.10.9, https://matplotlib.org/</dc:title>
     </cc:Agent>
    </dc:creator>
   </cc:Work>
  </rdf:RDF>
 </metadata>
 <defs>
  <style type="text/css">*{stroke-linejoin: round; stroke-linecap: butt}</style>
 </defs>
 <g id="figure_1">
  <g id="patch_1">
   <path d="M 0 172.815391 
L 252 172.815391 
L 252 0 
L 0 0 
L 0 172.815391 
z
" style="fill: none; opacity: 0"/>
  </g>
  <g id="axes_1">
   <g id="patch_2">
    <path d="M 7.2 149.46 
L 244.8 149.46 
L 244.8 7.2 
L 7.2 7.2 
L 7.2 149.46 
z
" style="fill: none; opacity: 0"/>
   </g>
   <g id="matplotlib.axis_1">
    <g id="xtick_1">
     <g id="line2d_1">
      <defs>
       <path id="mbe13442e3e" d="M 0 0 
L 0 4 
" style="stroke: #94a3b8; stroke-width: 0.8"/>
      </defs>
      <g>
       <use xlink:href="#mbe13442e3e" x="116.571429" y="149.46" style="fill: #94a3b8; stroke: #94a3b8; stroke-width: 0.8"/>
      </g>
     </g>
     <g id="text_1">
      <text style="font-size: 9.5px; font-family: 'Inter Tight', 'Inter', 'Helvetica Neue', 'Arial', 'DejaVu Sans'; text-anchor: middle; fill: #334155" x="116.571429" y="163.743594" transform="rotate(-0 116.571429 163.743594)">75</text>
     </g>
    </g>
    <g id="xtick_2">
     <g id="line2d_2">
      <g>
       <use xlink:href="#mbe13442e3e" x="135.428571" y="149.46" style="fill: #94a3b8; stroke: #94a3b8; stroke-width: 0.8"/>
      </g>
     </g>
     <g id="text_2">
      <text style="font-size: 9.5px; font-family: 'Inter Tight', 'Inter', 'Helvetica Neue', 'Arial', 'DejaVu Sans'; text-anchor: middle; fill: #334155" x="135.428571" y="163.743594" transform="rotate(-0 135.428571 163.743594)">80</text>
     </g>
    </g>
   </g>
   <g id="matplotlib.axis_2"/>
   <g id="FillBetweenPolyCollection_1">
    <defs>
     <path id="m79ada14271" d="M 7.2 -23.355391 
L 7.2 -24.988181 
L 7.59666 -25.038653 
L 7.993324 -25.090524 
L 8.389984 -25.143766 
L 8.786644 -25.198435 
L 9.183304 -25.254557 
L 9.579968 -25.312188 
L 9.976628 -25.371356 
L 10.373288 -25.432059 
L 10.769951 -25.494353 
L 11.166611 -25.558293 
L 11.563271 -25.623879 
L 11.959935 -25.691166 
L 12.356595 -25.760181 
L 12.753255 -25.830951 
L 13.149915 -25.903532 
L 13.546579 -25.97795 
L 13.943239 -26.054234 
L 14.339899 -26.132438 
L 14.736563 -26.212589 
L 15.133223 -26.294743 
L 15.529883 -26.378899 
L 15.926543 -26.46514 
L 16.323206 -26.553493 
L 16.719866 -26.643986 
L 17.116526 -26.736646 
L 17.51319 -26.831555 
L 17.90985 -26.928713 
L 18.30651 -27.028203 
L 18.70317 -27.130024 
L 19.099834 -27.234259 
L 19.496494 -27.340909 
L 19.893154 -27.450054 
L 20.289818 -27.561723 
L 20.686478 -27.67597 
L 21.083138 -27.792796 
L 21.479801 -27.91231 
L 21.876461 -28.034512 
L 22.273121 -28.159457 
L 22.669781 -28.2872 
L 23.066445 -28.417769 
L 23.463105 -28.551217 
L 23.859765 -28.687601 
L 24.256429 -28.826947 
L 24.653089 -28.969338 
L 25.049749 -29.114773 
L 25.446409 -29.263336 
L 25.843073 -29.415081 
L 26.239733 -29.570007 
L 26.636393 -29.728198 
L 27.033057 -29.88968 
L 27.429717 -30.054537 
L 27.826377 -30.222767 
L 28.223037 -30.394453 
L 28.6197 -30.569651 
L 29.01636 -30.748387 
L 29.41302 -30.930689 
L 29.809684 -31.116639 
L 30.206344 -31.306293 
L 30.603004 -31.499649 
L 30.999668 -31.696818 
L 31.396328 -31.897773 
L 31.792988 -32.10265 
L 32.189648 -32.311422 
L 32.586312 -32.524172 
L 32.982972 -32.740927 
L 33.379632 -32.961741 
L 33.776295 -33.186669 
L 34.172955 -33.41574 
L 34.569615 -33.649035 
L 34.966275 -33.886554 
L 35.362939 -34.12838 
L 35.759599 -34.374513 
L 36.156259 -34.625061 
L 36.552923 -34.879999 
L 36.949583 -35.139408 
L 37.346243 -35.403315 
L 37.742903 -35.671803 
L 38.139567 -35.944844 
L 38.536227 -36.222549 
L 38.932887 -36.50489 
L 39.329551 -36.791948 
L 39.726211 -37.083779 
L 40.122871 -37.380384 
L 40.519534 -37.681788 
L 40.916194 -37.988075 
L 41.312854 -38.299245 
L 41.709514 -38.615352 
L 42.106178 -38.936424 
L 42.502838 -39.262489 
L 42.899498 -39.5936 
L 43.296162 -39.929731 
L 43.692822 -40.270992 
L 44.089482 -40.617328 
L 44.486142 -40.96882 
L 44.882806 -41.325497 
L 45.279466 -41.687358 
L 45.676126 -42.05443 
L 46.072789 -42.42677 
L 46.469449 -42.804348 
L 46.866109 -43.187193 
L 47.262773 -43.57536 
L 47.659433 -43.968848 
L 48.056093 -44.367658 
L 48.452753 -44.771816 
L 48.849417 -45.181351 
L 49.246077 -45.596235 
L 49.642737 -46.016495 
L 50.039401 -46.442159 
L 50.436061 -46.8732 
L 50.832721 -47.309644 
L 51.229381 -47.751519 
L 51.626044 -48.19877 
L 52.022704 -48.651398 
L 52.419364 -49.109458 
L 52.816028 -49.57292 
L 53.212688 -50.041732 
L 53.609348 -50.515948 
L 54.006008 -50.99554 
L 54.402672 -51.480481 
L 54.799332 -51.970743 
L 55.195992 -52.466354 
L 55.592656 -52.96726 
L 55.989316 -53.473459 
L 56.385976 -53.984925 
L 56.78264 -54.501658 
L 57.1793 -55.023575 
L 57.57596 -55.550676 
L 57.97262 -56.082934 
L 58.369283 -56.620295 
L 58.765943 -57.162757 
L 59.162603 -57.710266 
L 59.559267 -58.262768 
L 59.955927 -58.820262 
L 60.352587 -59.382639 
L 60.749247 -59.949898 
L 61.145911 -60.521985 
L 61.542571 -61.098845 
L 61.939231 -61.680396 
L 62.335895 -62.26661 
L 62.732555 -62.857432 
L 63.129215 -63.45278 
L 63.525875 -64.052599 
L 63.922538 -64.656834 
L 64.319198 -65.265404 
L 64.715858 -65.878225 
L 65.112522 -66.495215 
L 65.509182 -67.116348 
L 65.905842 -67.741512 
L 66.302506 -68.3706 
L 66.699166 -69.003582 
L 67.095826 -69.64035 
L 67.492486 -70.280793 
L 67.88915 -70.92483 
L 68.28581 -71.572378 
L 68.68247 -72.223327 
L 69.079133 -72.877596 
L 69.475793 -73.535073 
L 69.872453 -74.195651 
L 70.269113 -74.859245 
L 70.665777 -75.52572 
L 71.062437 -76.194966 
L 71.459097 -76.866872 
L 71.855761 -77.541356 
L 72.252421 -78.218254 
L 72.649081 -78.897457 
L 73.045741 -79.578854 
L 73.442405 -80.262308 
L 73.839065 -80.94771 
L 74.235725 -81.634922 
L 74.632389 -82.323807 
L 75.029049 -83.014229 
L 75.425709 -83.706049 
L 75.822372 -84.399159 
L 76.219032 -85.093394 
L 76.615692 -85.788615 
L 77.012352 -86.484688 
L 77.409016 -87.181445 
L 77.805676 -87.878779 
L 78.202336 -88.576497 
L 78.599 -89.274462 
L 78.99566 -89.972537 
L 79.39232 -90.670557 
L 79.78898 -91.368384 
L 80.185644 -92.065828 
L 80.582304 -92.762751 
L 80.978964 -93.45896 
L 81.375627 -94.154346 
L 81.772287 -94.848718 
L 82.168947 -95.541937 
L 82.565611 -96.233785 
L 82.962271 -96.924124 
L 83.358931 -97.61279 
L 83.755591 -98.299618 
L 84.152255 -98.984444 
L 84.548915 -99.667075 
L 84.945575 -100.347348 
L 85.342239 -101.025096 
L 85.738899 -101.700157 
L 86.135559 -102.37231 
L 86.532219 -103.041446 
L 86.928883 -103.707344 
L 87.325543 -104.369842 
L 87.722203 -105.028773 
L 88.118866 -105.683974 
L 88.515526 -106.335225 
L 88.912186 -106.982389 
L 89.308846 -107.625274 
L 89.70551 -108.263715 
L 90.10217 -108.89752 
L 90.49883 -109.526525 
L 90.895494 -110.150538 
L 91.292154 -110.769421 
L 91.688814 -111.382983 
L 92.085478 -111.991031 
L 92.482138 -112.593429 
L 92.878798 -113.189956 
L 93.275458 -113.780476 
L 93.672121 -114.364825 
L 94.068781 -114.942809 
L 94.465441 -115.514266 
L 94.862105 -116.079029 
L 95.258765 -116.636934 
L 95.655425 -117.187818 
L 96.052085 -117.731514 
L 96.448749 -118.26786 
L 96.845409 -118.796689 
L 97.242069 -119.317866 
L 97.638733 -119.831197 
L 98.035393 -120.336573 
L 98.432053 -120.833803 
L 98.828713 -121.322721 
L 99.225376 -121.803218 
L 99.622036 -122.27513 
L 100.018696 -122.738319 
L 100.41536 -123.19262 
L 100.81202 -123.637896 
L 101.20868 -124.074039 
L 101.605344 -124.500855 
L 102.002004 -124.918262 
L 102.398664 -125.326124 
L 102.795324 -125.724302 
L 103.191988 -126.112634 
L 103.588648 -126.491063 
L 103.985308 -126.859425 
L 104.381972 -127.21761 
L 104.778632 -127.565509 
L 105.175292 -127.903012 
L 105.571952 -128.230009 
L 105.968615 -128.546363 
L 106.365275 -128.852019 
L 106.761935 -129.146868 
L 107.158599 -129.430799 
L 107.555259 -129.703731 
L 107.951919 -129.965581 
L 108.348579 -130.216239 
L 108.745243 -130.455651 
L 109.141903 -130.683707 
L 109.538563 -130.900379 
L 109.935227 -131.105531 
L 110.331887 -131.299161 
L 110.728547 -131.481162 
L 111.12521 -131.651504 
L 111.52187 -131.810106 
L 111.91853 -131.956941 
L 112.31519 -132.091926 
L 112.711854 -132.21506 
L 113.108514 -132.326263 
L 113.505174 -132.425506 
L 113.901838 -132.512789 
L 114.298498 -132.588031 
L 114.695158 -132.651257 
L 115.091818 -132.702415 
L 115.488482 -132.741476 
L 115.885142 -132.768467 
L 116.281802 -132.783362 
L 116.678465 -132.78616 
L 117.075125 -132.776834 
L 117.471785 -132.75541 
L 117.868449 -132.721891 
L 118.265109 -132.676301 
L 118.661769 -132.618643 
L 119.058429 -132.548915 
L 119.455093 -132.467172 
L 119.851753 -132.373443 
L 120.248413 -132.267727 
L 120.645077 -132.150078 
L 121.041737 -132.020552 
L 121.438397 -131.879176 
L 121.835057 -131.725977 
L 122.231721 -131.561039 
L 122.628381 -131.384387 
L 123.025041 -131.196106 
L 123.421704 -130.996248 
L 123.818364 -130.78487 
L 124.215024 -130.562053 
L 124.611684 -130.327853 
L 125.008348 -130.082352 
L 125.405008 -129.825659 
L 125.801668 -129.557801 
L 126.198332 -129.278945 
L 126.594992 -128.989088 
L 126.991652 -128.688397 
L 127.388316 -128.376953 
L 127.784976 -128.054839 
L 128.181636 -127.722163 
L 128.578296 -127.379037 
L 128.974959 -127.02557 
L 129.371619 -126.661871 
L 129.768279 -126.288078 
L 130.164943 -125.904273 
L 130.561603 -125.51062 
L 130.958263 -125.107202 
L 131.354923 -124.694184 
L 131.751587 -124.271674 
L 132.148247 -123.839811 
L 132.544907 -123.398704 
L 132.941571 -122.948545 
L 133.338231 -122.489443 
L 133.734891 -122.021536 
L 134.131551 -121.544962 
L 134.528215 -121.059884 
L 134.924875 -120.566467 
L 135.321535 -120.064848 
L 135.718198 -119.555138 
L 136.114858 -119.037555 
L 136.511518 -118.512237 
L 136.908182 -117.97932 
L 137.304842 -117.438997 
L 137.701502 -116.891406 
L 138.098162 -116.336709 
L 138.494826 -115.775073 
L 138.891486 -115.206662 
L 139.288146 -114.631667 
L 139.68481 -114.050254 
L 140.08147 -113.462531 
L 140.47813 -112.868747 
L 140.87479 -112.269038 
L 141.271453 -111.663568 
L 141.668113 -111.05253 
L 142.064773 -110.436088 
L 142.461437 -109.814407 
L 142.858097 -109.187651 
L 143.254757 -108.55604 
L 143.651421 -107.919711 
L 144.048081 -107.278856 
L 144.444741 -106.63364 
L 144.841401 -105.984254 
L 145.238065 -105.330864 
L 145.634725 -104.673633 
L 146.031385 -104.012754 
L 146.428048 -103.348391 
L 146.824708 -102.680709 
L 147.221368 -102.009928 
L 147.618028 -101.336184 
L 148.014692 -100.65967 
L 148.411352 -99.980522 
L 148.808012 -99.29896 
L 149.204676 -98.615122 
L 149.601336 -97.929199 
L 149.997996 -97.241356 
L 150.394656 -96.551758 
L 150.79132 -95.860568 
L 151.18798 -95.167979 
L 151.58464 -94.474129 
L 151.981304 -93.779182 
L 152.377964 -93.083329 
L 152.774624 -92.386708 
L 153.171287 -91.689484 
L 153.567947 -90.991821 
L 153.964607 -90.293883 
L 154.361267 -89.595809 
L 154.757931 -88.897762 
L 155.154591 -88.199906 
L 155.551251 -87.50238 
L 155.947915 -86.805348 
L 156.344575 -86.108919 
L 156.741235 -85.413314 
L 157.137895 -84.718585 
L 157.534559 -84.024955 
L 157.931219 -83.332531 
L 158.327879 -82.641423 
L 158.724542 -81.951825 
L 159.121202 -81.263817 
L 159.517862 -80.577565 
L 159.914522 -79.893206 
L 160.311186 -79.210849 
L 160.707846 -78.530604 
L 161.104506 -77.852636 
L 161.50117 -77.177026 
L 161.89783 -76.503941 
L 162.29449 -75.833434 
L 162.691154 -75.16567 
L 163.087814 -74.500758 
L 163.484474 -73.838782 
L 163.881134 -73.179851 
L 164.277797 -72.524101 
L 164.674457 -71.871616 
L 165.071117 -71.222477 
L 165.467781 -70.576794 
L 165.864441 -69.934705 
L 166.261101 -69.296236 
L 166.657761 -68.661498 
L 167.054425 -68.030601 
L 167.451085 -67.403626 
L 167.847745 -66.780628 
L 168.244409 -66.161717 
L 168.641069 -65.546948 
L 169.037729 -64.936432 
L 169.434389 -64.330194 
L 169.831053 -63.728345 
L 170.227713 -63.130912 
L 170.624373 -62.538005 
L 171.021036 -61.94968 
L 171.417696 -61.365962 
L 171.814356 -60.786935 
L 172.21102 -60.212654 
L 172.60768 -59.643172 
L 173.00434 -59.078519 
L 173.401 -58.518776 
L 173.797664 -57.96397 
L 174.194324 -57.414156 
L 174.590984 -56.86939 
L 174.987648 -56.32967 
L 175.384308 -55.795026 
L 175.780968 -55.265565 
L 176.177628 -54.741234 
L 176.574291 -54.222143 
L 176.970951 -53.708263 
L 177.367611 -53.199622 
L 177.764275 -52.696276 
L 178.160935 -52.198223 
L 178.557595 -51.705492 
L 178.954259 -51.218082 
L 179.350919 -50.736049 
L 179.747579 -50.259365 
L 180.144239 -49.788057 
L 180.540903 -49.322125 
L 180.937563 -48.861597 
L 181.334223 -48.406446 
L 181.730887 -47.956725 
L 182.127547 -47.512381 
L 182.524207 -47.073441 
L 182.920867 -46.639905 
L 183.31753 -46.211772 
L 183.71419 -45.789016 
L 184.11085 -45.371663 
L 184.507514 -44.959659 
L 184.904174 -44.553032 
L 185.300834 -44.151754 
L 185.697494 -43.755824 
L 186.094158 -43.365216 
L 186.490818 -42.97993 
L 186.887478 -42.59991 
L 187.284142 -42.225184 
L 187.680802 -41.855698 
L 188.077462 -41.491423 
L 188.474125 -41.13236 
L 188.870785 -40.778508 
L 189.267445 -40.429786 
L 189.664105 -40.086194 
L 190.060769 -39.747704 
L 190.457429 -39.414288 
L 190.854089 -39.085892 
L 191.250753 -38.762543 
L 191.647413 -38.444159 
L 192.044073 -38.130713 
L 192.440733 -37.822177 
L 192.837397 -37.518523 
L 193.234057 -37.219697 
L 193.630717 -36.925698 
L 194.02738 -36.636445 
L 194.42404 -36.351938 
L 194.8207 -36.072094 
L 195.21736 -35.796913 
L 195.614024 -35.52634 
L 196.010684 -35.260348 
L 196.407344 -34.998855 
L 196.804008 -34.74186 
L 197.200668 -34.489309 
L 197.597328 -34.241146 
L 197.993992 -33.997346 
L 198.390652 -33.757851 
L 198.787312 -33.522609 
L 199.183972 -33.29159 
L 199.580636 -33.064769 
L 199.977296 -32.842062 
L 200.373956 -32.623442 
L 200.770619 -32.408855 
L 201.167279 -32.198245 
L 201.563939 -31.991612 
L 201.960599 -31.788847 
L 202.357263 -31.589922 
L 202.753923 -31.394838 
L 203.150583 -31.203484 
L 203.547247 -31.015833 
L 203.943907 -30.831858 
L 204.340567 -30.651476 
L 204.737227 -30.47466 
L 205.133891 -30.301382 
L 205.530551 -30.131561 
L 205.927211 -29.965141 
L 206.323874 -29.802123 
L 206.720534 -29.642423 
L 207.117194 -29.485988 
L 207.513858 -29.33279 
L 207.910518 -29.182773 
L 208.307178 -29.035911 
L 208.703838 -28.892121 
L 209.100502 -28.751376 
L 209.497162 -28.613621 
L 209.893822 -28.478829 
L 210.290486 -28.346943 
L 210.687146 -28.217911 
L 211.083806 -28.091677 
L 211.480466 -27.968213 
L 211.877129 -27.847492 
L 212.273789 -27.729404 
L 212.670449 -27.613978 
L 213.067113 -27.501157 
L 213.463773 -27.390859 
L 213.860433 -27.283058 
L 214.257097 -27.177698 
L 214.653757 -27.074779 
L 215.050417 -26.97422 
L 215.447077 -26.875992 
L 215.843741 -26.780068 
L 216.240401 -26.686366 
L 216.637061 -26.594886 
L 217.033725 -26.505545 
L 217.430385 -26.418344 
L 217.827045 -26.333228 
L 218.223705 -26.250169 
L 218.620368 -26.169085 
L 219.017028 -26.090003 
L 219.413688 -26.012841 
L 219.810352 -25.937545 
L 220.207012 -25.864142 
L 220.603672 -25.792521 
L 221.000332 -25.722711 
L 221.396996 -25.654629 
L 221.793656 -25.588275 
L 222.190316 -25.523594 
L 222.58698 -25.460532 
L 222.98364 -25.399088 
L 223.3803 -25.339235 
L 223.776963 -25.28089 
L 224.173623 -25.224082 
L 224.570283 -25.168728 
L 224.966943 -25.114855 
L 225.363607 -25.062353 
L 225.760267 -25.01125 
L 226.156927 -24.961519 
L 226.553591 -24.913077 
L 226.950251 -24.865952 
L 227.346911 -24.820088 
L 227.743571 -24.775432 
L 228.140235 -24.732009 
L 228.536895 -24.689767 
L 228.933555 -24.648676 
L 229.330219 -24.60871 
L 229.726879 -24.569841 
L 230.123539 -24.532042 
L 230.520199 -24.495313 
L 230.916862 -24.459599 
L 231.313522 -24.424872 
L 231.710182 -24.391133 
L 232.106846 -24.358353 
L 232.503506 -24.326507 
L 232.900166 -24.295565 
L 233.29683 -24.265502 
L 233.69349 -24.236316 
L 234.09015 -24.207953 
L 234.48681 -24.180413 
L 234.883474 -24.153668 
L 235.280134 -24.127719 
L 235.676794 -24.102538 
L 236.073457 -24.078098 
L 236.470117 -24.05437 
L 236.866777 -24.031329 
L 237.263437 -24.009001 
L 237.660101 -23.987331 
L 238.056761 -23.966319 
L 238.453421 -23.945938 
L 238.850085 -23.926161 
L 239.246745 -23.907015 
L 239.643405 -23.888417 
L 240.040065 -23.870395 
L 240.436729 -23.852949 
L 240.833389 -23.836025 
L 241.230049 -23.819622 
L 241.626712 -23.803739 
L 242.023372 -23.788351 
L 242.420032 -23.773456 
L 242.816696 -23.759001 
L 243.213356 -23.745011 
L 243.610016 -23.731488 
L 244.006676 -23.718376 
L 244.40334 -23.705676 
L 244.8 -23.693387 
L 244.8 -23.355391 
L 244.8 -23.355391 
L 244.40334 -23.355391 
L 244.006676 -23.355391 
L 243.610016 -23.355391 
L 243.213356 -23.355391 
L 242.816696 -23.355391 
L 242.420032 -23.355391 
L 242.023372 -23.355391 
L 241.626712 -23.355391 
L 241.230049 -23.355391 
L 240.833389 -23.355391 
L 240.436729 -23.355391 
L 240.040065 -23.355391 
L 239.643405 -23.355391 
L 239.246745 -23.355391 
L 238.850085 -23.355391 
L 238.453421 -23.355391 
L 238.056761 -23.355391 
L 237.660101 -23.355391 
L 237.263437 -23.355391 
L 236.866777 -23.355391 
L 236.470117 -23.355391 
L 236.073457 -23.355391 
L 235.676794 -23.355391 
L 235.280134 -23.355391 
L 234.883474 -23.355391 
L 234.48681 -23.355391 
L 234.09015 -23.355391 
L 233.69349 -23.355391 
L 233.29683 -23.355391 
L 232.900166 -23.355391 
L 232.503506 -23.355391 
L 232.106846 -23.355391 
L 231.710182 -23.355391 
L 231.313522 -23.355391 
L 230.916862 -23.355391 
L 230.520199 -23.355391 
L 230.123539 -23.355391 
L 229.726879 -23.355391 
L 229.330219 -23.355391 
L 228.933555 -23.355391 
L 228.536895 -23.355391 
L 228.140235 -23.355391 
L 227.743571 -23.355391 
L 227.346911 -23.355391 
L 226.950251 -23.355391 
L 226.553591 -23.355391 
L 226.156927 -23.355391 
L 225.760267 -23.355391 
L 225.363607 -23.355391 
L 224.966943 -23.355391 
L 224.570283 -23.355391 
L 224.173623 -23.355391 
L 223.776963 -23.355391 
L 223.3803 -23.355391 
L 222.98364 -23.355391 
L 222.58698 -23.355391 
L 222.190316 -23.355391 
L 221.793656 -23.355391 
L 221.396996 -23.355391 
L 221.000332 -23.355391 
L 220.603672 -23.355391 
L 220.207012 -23.355391 
L 219.810352 -23.355391 
L 219.413688 -23.355391 
L 219.017028 -23.355391 
L 218.620368 -23.355391 
L 218.223705 -23.355391 
L 217.827045 -23.355391 
L 217.430385 -23.355391 
L 217.033725 -23.355391 
L 216.637061 -23.355391 
L 216.240401 -23.355391 
L 215.843741 -23.355391 
L 215.447077 -23.355391 
L 215.050417 -23.355391 
L 214.653757 -23.355391 
L 214.257097 -23.355391 
L 213.860433 -23.355391 
L 213.463773 -23.355391 
L 213.067113 -23.355391 
L 212.670449 -23.355391 
L 212.273789 -23.355391 
L 211.877129 -23.355391 
L 211.480466 -23.355391 
L 211.083806 -23.355391 
L 210.687146 -23.355391 
L 210.290486 -23.355391 
L 209.893822 -23.355391 
L 209.497162 -23.355391 
L 209.100502 -23.355391 
L 208.703838 -23.355391 
L 208.307178 -23.355391 
L 207.910518 -23.355391 
L 207.513858 -23.355391 
L 207.117194 -23.355391 
L 206.720534 -23.355391 
L 206.323874 -23.355391 
L 205.927211 -23.355391 
L 205.530551 -23.355391 
L 205.133891 -23.355391 
L 204.737227 -23.355391 
L 204.340567 -23.355391 
L 203.943907 -23.355391 
L 203.547247 -23.355391 
L 203.150583 -23.355391 
L 202.753923 -23.355391 
L 202.357263 -23.355391 
L 201.960599 -23.355391 
L 201.563939 -23.355391 
L 201.167279 -23.355391 
L 200.770619 -23.355391 
L 200.373956 -23.355391 
L 199.977296 -23.355391 
L 199.580636 -23.355391 
L 199.183972 -23.355391 
L 198.787312 -23.355391 
L 198.390652 -23.355391 
L 197.993992 -23.355391 
L 197.597328 -23.355391 
L 197.200668 -23.355391 
L 196.804008 -23.355391 
L 196.407344 -23.355391 
L 196.010684 -23.355391 
L 195.614024 -23.355391 
L 195.21736 -23.355391 
L 194.8207 -23.355391 
L 194.42404 -23.355391 
L 194.02738 -23.355391 
L 193.630717 -23.355391 
L 193.234057 -23.355391 
L 192.837397 -23.355391 
L 192.440733 -23.355391 
L 192.044073 -23.355391 
L 191.647413 -23.355391 
L 191.250753 -23.355391 
L 190.854089 -23.355391 
L 190.457429 -23.355391 
L 190.060769 -23.355391 
L 189.664105 -23.355391 
L 189.267445 -23.355391 
L 188.870785 -23.355391 
L 188.474125 -23.355391 
L 188.077462 -23.355391 
L 187.680802 -23.355391 
L 187.284142 -23.355391 
L 186.887478 -23.355391 
L 186.490818 -23.355391 
L 186.094158 -23.355391 
L 185.697494 -23.355391 
L 185.300834 -23.355391 
L 184.904174 -23.355391 
L 184.507514 -23.355391 
L 184.11085 -23.355391 
L 183.71419 -23.355391 
L 183.31753 -23.355391 
L 182.920867 -23.355391 
L 182.524207 -23.355391 
L 182.127547 -23.355391 
L 181.730887 -23.355391 
L 181.334223 -23.355391 
L 180.937563 -23.355391 
L 180.540903 -23.355391 
L 180.144239 -23.355391 
L 179.747579 -23.355391 
L 179.350919 -23.355391 
L 178.954259 -23.355391 
L 178.557595 -23.355391 
L 178.160935 -23.355391 
L 177.764275 -23.355391 
L 177.367611 -23.355391 
L 176.970951 -23.355391 
L 176.574291 -23.355391 
L 176.177628 -23.355391 
L 175.780968 -23.355391 
L 175.384308 -23.355391 
L 174.987648 -23.355391 
L 174.590984 -23.355391 
L 174.194324 -23.355391 
L 173.797664 -23.355391 
L 173.401 -23.355391 
L 173.00434 -23.355391 
L 172.60768 -23.355391 
L 172.21102 -23.355391 
L 171.814356 -23.355391 
L 171.417696 -23.355391 
L 171.021036 -23.355391 
L 170.624373 -23.355391 
L 170.227713 -23.355391 
L 169.831053 -23.355391 
L 169.434389 -23.355391 
L 169.037729 -23.355391 
L 168.641069 -23.355391 
L 168.244409 -23.355391 
L 167.847745 -23.355391 
L 167.451085 -23.355391 
L 167.054425 -23.355391 
L 166.657761 -23.355391 
L 166.261101 -23.355391 
L 165.864441 -23.355391 
L 165.467781 -23.355391 
L 165.071117 -23.355391 
L 164.674457 -23.355391 
L 164.277797 -23.355391 
L 163.881134 -23.355391 
L 163.484474 -23.355391 
L 163.087814 -23.355391 
L 162.691154 -23.355391 
L 162.29449 -23.355391 
L 161.89783 -23.355391 
L 161.50117 -23.355391 
L 161.104506 -23.355391 
L 160.707846 -23.355391 
L 160.311186 -23.355391 
L 159.914522 -23.355391 
L 159.517862 -23.355391 
L 159.121202 -23.355391 
L 158.724542 -23.355391 
L 158.327879 -23.355391 
L 157.931219 -23.355391 
L 157.534559 -23.355391 
L 157.137895 -23.355391 
L 156.741235 -23.355391 
L 156.344575 -23.355391 
L 155.947915 -23.355391 
L 155.551251 -23.355391 
L 155.154591 -23.355391 
L 154.757931 -23.355391 
L 154.361267 -23.355391 
L 153.964607 -23.355391 
L 153.567947 -23.355391 
L 153.171287 -23.355391 
L 152.774624 -23.355391 
L 152.377964 -23.355391 
L 151.981304 -23.355391 
L 151.58464 -23.355391 
L 151.18798 -23.355391 
L 150.79132 -23.355391 
L 150.394656 -23.355391 
L 149.997996 -23.355391 
L 149.601336 -23.355391 
L 149.204676 -23.355391 
L 148.808012 -23.355391 
L 148.411352 -23.355391 
L 148.014692 -23.355391 
L 147.618028 -23.355391 
L 147.221368 -23.355391 
L 146.824708 -23.355391 
L 146.428048 -23.355391 
L 146.031385 -23.355391 
L 145.634725 -23.355391 
L 145.238065 -23.355391 
L 144.841401 -23.355391 
L 144.444741 -23.355391 
L 144.048081 -23.355391 
L 143.651421 -23.355391 
L 143.254757 -23.355391 
L 142.858097 -23.355391 
L 142.461437 -23.355391 
L 142.064773 -23.355391 
L 141.668113 -23.355391 
L 141.271453 -23.355391 
L 140.87479 -23.355391 
L 140.47813 -23.355391 
L 140.08147 -23.355391 
L 139.68481 -23.355391 
L 139.288146 -23.355391 
L 138.891486 -23.355391 
L 138.494826 -23.355391 
L 138.098162 -23.355391 
L 137.701502 -23.355391 
L 137.304842 -23.355391 
L 136.908182 -23.355391 
L 136.511518 -23.355391 
L 136.114858 -23.355391 
L 135.718198 -23.355391 
L 135.321535 -23.355391 
L 134.924875 -23.355391 
L 134.528215 -23.355391 
L 134.131551 -23.355391 
L 133.734891 -23.355391 
L 133.338231 -23.355391 
L 132.941571 -23.355391 
L 132.544907 -23.355391 
L 132.148247 -23.355391 
L 131.751587 -23.355391 
L 131.354923 -23.355391 
L 130.958263 -23.355391 
L 130.561603 -23.355391 
L 130.164943 -23.355391 
L 129.768279 -23.355391 
L 129.371619 -23.355391 
L 128.974959 -23.355391 
L 128.578296 -23.355391 
L 128.181636 -23.355391 
L 127.784976 -23.355391 
L 127.388316 -23.355391 
L 126.991652 -23.355391 
L 126.594992 -23.355391 
L 126.198332 -23.355391 
L 125.801668 -23.355391 
L 125.405008 -23.355391 
L 125.008348 -23.355391 
L 124.611684 -23.355391 
L 124.215024 -23.355391 
L 123.818364 -23.355391 
L 123.421704 -23.355391 
L 123.025041 -23.355391 
L 122.628381 -23.355391 
L 122.231721 -23.355391 
L 121.835057 -23.355391 
L 121.438397 -23.355391 
L 121.041737 -23.355391 
L 120.645077 -23.355391 
L 120.248413 -23.355391 
L 119.851753 -23.355391 
L 119.455093 -23.355391 
L 119.058429 -23.355391 
L 118.661769 -23.355391 
L 118.265109 -23.355391 
L 117.868449 -23.355391 
L 117.471785 -23.355391 
L 117.075125 -23.355391 
L 116.678465 -23.355391 
L 116.281802 -23.355391 
L 115.885142 -23.355391 
L 115.488482 -23.355391 
L 115.091818 -23.355391 
L 114.695158 -23.355391 
L 114.298498 -23.355391 
L 113.901838 -23.355391 
L 113.505174 -23.355391 
L 113.108514 -23.355391 
L 112.711854 -23.355391 
L 112.31519 -23.355391 
L 111.91853 -23.355391 
L 111.52187 -23.355391 
L 111.12521 -23.355391 
L 110.728547 -23.355391 
L 110.331887 -23.355391 
L 109.935227 -23.355391 
L 109.538563 -23.355391 
L 109.141903 -23.355391 
L 108.745243 -23.355391 
L 108.348579 -23.355391 
L 107.951919 -23.355391 
L 107.555259 -23.355391 
L 107.158599 -23.355391 
L 106.761935 -23.355391 
L 106.365275 -23.355391 
L 105.968615 -23.355391 
L 105.571952 -23.355391 
L 105.175292 -23.355391 
L 104.778632 -23.355391 
L 104.381972 -23.355391 
L 103.985308 -23.355391 
L 103.588648 -23.355391 
L 103.191988 -23.355391 
L 102.795324 -23.355391 
L 102.398664 -23.355391 
L 102.002004 -23.355391 
L 101.605344 -23.355391 
L 101.20868 -23.355391 
L 100.81202 -23.355391 
L 100.41536 -23.355391 
L 100.018696 -23.355391 
L 99.622036 -23.355391 
L 99.225376 -23.355391 
L 98.828713 -23.355391 
L 98.432053 -23.355391 
L 98.035393 -23.355391 
L 97.638733 -23.355391 
L 97.242069 -23.355391 
L 96.845409 -23.355391 
L 96.448749 -23.355391 
L 96.052085 -23.355391 
L 95.655425 -23.355391 
L 95.258765 -23.355391 
L 94.862105 -23.355391 
L 94.465441 -23.355391 
L 94.068781 -23.355391 
L 93.672121 -23.355391 
L 93.275458 -23.355391 
L 92.878798 -23.355391 
L 92.482138 -23.355391 
L 92.085478 -23.355391 
L 91.688814 -23.355391 
L 91.292154 -23.355391 
L 90.895494 -23.355391 
L 90.49883 -23.355391 
L 90.10217 -23.355391 
L 89.70551 -23.355391 
L 89.308846 -23.355391 
L 88.912186 -23.355391 
L 88.515526 -23.355391 
L 88.118866 -23.355391 
L 87.722203 -23.355391 
L 87.325543 -23.355391 
L 86.928883 -23.355391 
L 86.532219 -23.355391 
L 86.135559 -23.355391 
L 85.738899 -23.355391 
L 85.342239 -23.355391 
L 84.945575 -23.355391 
L 84.548915 -23.355391 
L 84.152255 -23.355391 
L 83.755591 -23.355391 
L 83.358931 -23.355391 
L 82.962271 -23.355391 
L 82.565611 -23.355391 
L 82.168947 -23.355391 
L 81.772287 -23.355391 
L 81.375627 -23.355391 
L 80.978964 -23.355391 
L 80.582304 -23.355391 
L 80.185644 -23.355391 
L 79.78898 -23.355391 
L 79.39232 -23.355391 
L 78.99566 -23.355391 
L 78.599 -23.355391 
L 78.202336 -23.355391 
L 77.805676 -23.355391 
L 77.409016 -23.355391 
L 77.012352 -23.355391 
L 76.615692 -23.355391 
L 76.219032 -23.355391 
L 75.822372 -23.355391 
L 75.425709 -23.355391 
L 75.029049 -23.355391 
L 74.632389 -23.355391 
L 74.235725 -23.355391 
L 73.839065 -23.355391 
L 73.442405 -23.355391 
L 73.045741 -23.355391 
L 72.649081 -23.355391 
L 72.252421 -23.355391 
L 71.855761 -23.355391 
L 71.459097 -23.355391 
L 71.062437 -23.355391 
L 70.665777 -23.355391 
L 70.269113 -23.355391 
L 69.872453 -23.355391 
L 69.475793 -23.355391 
L 69.079133 -23.355391 
L 68.68247 -23.355391 
L 68.28581 -23.355391 
L 67.88915 -23.355391 
L 67.492486 -23.355391 
L 67.095826 -23.355391 
L 66.699166 -23.355391 
L 66.302506 -23.355391 
L 65.905842 -23.355391 
L 65.509182 -23.355391 
L 65.112522 -23.355391 
L 64.715858 -23.355391 
L 64.319198 -23.355391 
L 63.922538 -23.355391 
L 63.525875 -23.355391 
L 63.129215 -23.355391 
L 62.732555 -23.355391 
L 62.335895 -23.355391 
L 61.939231 -23.355391 
L 61.542571 -23.355391 
L 61.145911 -23.355391 
L 60.749247 -23.355391 
L 60.352587 -23.355391 
L 59.955927 -23.355391 
L 59.559267 -23.355391 
L 59.162603 -23.355391 
L 58.765943 -23.355391 
L 58.369283 -23.355391 
L 57.97262 -23.355391 
L 57.57596 -23.355391 
L 57.1793 -23.355391 
L 56.78264 -23.355391 
L 56.385976 -23.355391 
L 55.989316 -23.355391 
L 55.592656 -23.355391 
L 55.195992 -23.355391 
L 54.799332 -23.355391 
L 54.402672 -23.355391 
L 54.006008 -23.355391 
L 53.609348 -23.355391 
L 53.212688 -23.355391 
L 52.816028 -23.355391 
L 52.419364 -23.355391 
L 52.022704 -23.355391 
L 51.626044 -23.355391 
L 51.229381 -23.355391 
L 50.832721 -23.355391 
L 50.436061 -23.355391 
L 50.039401 -23.355391 
L 49.642737 -23.355391 
L 49.246077 -23.355391 
L 48.849417 -23.355391 
L 48.452753 -23.355391 
L 48.056093 -23.355391 
L 47.659433 -23.355391 
L 47.262773 -23.355391 
L 46.866109 -23.355391 
L 46.469449 -23.355391 
L 46.072789 -23.355391 
L 45.676126 -23.355391 
L 45.279466 -23.355391 
L 44.882806 -23.355391 
L 44.486142 -23.355391 
L 44.089482 -23.355391 
L 43.692822 -23.355391 
L 43.296162 -23.355391 
L 42.899498 -23.355391 
L 42.502838 -23.355391 
L 42.106178 -23.355391 
L 41.709514 -23.355391 
L 41.312854 -23.355391 
L 40.916194 -23.355391 
L 40.519534 -23.355391 
L 40.122871 -23.355391 
L 39.726211 -23.355391 
L 39.329551 -23.355391 
L 38.932887 -23.355391 
L 38.536227 -23.355391 
L 38.139567 -23.355391 
L 37.742903 -23.355391 
L 37.346243 -23.355391 
L 36.949583 -23.355391 
L 36.552923 -23.355391 
L 36.156259 -23.355391 
L 35.759599 -23.355391 
L 35.362939 -23.355391 
L 34.966275 -23.355391 
L 34.569615 -23.355391 
L 34.172955 -23.355391 
L 33.776295 -23.355391 
L 33.379632 -23.355391 
L 32.982972 -23.355391 
L 32.586312 -23.355391 
L 32.189648 -23.355391 
L 31.792988 -23.355391 
L 31.396328 -23.355391 
L 30.999668 -23.355391 
L 30.603004 -23.355391 
L 30.206344 -23.355391 
L 29.809684 -23.355391 
L 29.41302 -23.355391 
L 29.01636 -23.355391 
L 28.6197 -23.355391 
L 28.223037 -23.355391 
L 27.826377 -23.355391 
L 27.429717 -23.355391 
L 27.033057 -23.355391 
L 26.636393 -23.355391 
L 26.239733 -23.355391 
L 25.843073 -23.355391 
L 25.446409 -23.355391 
L 25.049749 -23.355391 
L 24.653089 -23.355391 
L 24.256429 -23.355391 
L 23.859765 -23.355391 
L 23.463105 -23.355391 
L 23.066445 -23.355391 
L 22.669781 -23.355391 
L 22.273121 -23.355391 
L 21.876461 -23.355391 
L 21.479801 -23.355391 
L 21.083138 -23.355391 
L 20.686478 -23.355391 
L 20.289818 -23.355391 
L 19.893154 -23.355391 
L 19.496494 -23.355391 
L 19.099834 -23.355391 
L 18.70317 -23.355391 
L 18.30651 -23.355391 
L 17.90985 -23.355391 
L 17.51319 -23.355391 
L 17.116526 -23.355391 
L 16.719866 -23.355391 
L 16.323206 -23.355391 
L 15.926543 -23.355391 
L 15.529883 -23.355391 
L 15.133223 -23.355391 
L 14.736563 -23.355391 
L 14.339899 -23.355391 
L 13.943239 -23.355391 
L 13.546579 -23.355391 
L 13.149915 -23.355391 
L 12.753255 -23.355391 
L 12.356595 -23.355391 
L 11.959935 -23.355391 
L 11.563271 -23.355391 
L 11.166611 -23.355391 
L 10.769951 -23.355391 
L 10.373288 -23.355391 
L 9.976628 -23.355391 
L 9.579968 -23.355391 
L 9.183304 -23.355391 
L 8.786644 -23.355391 
L 8.389984 -23.355391 
L 7.993324 -23.355391 
L 7.59666 -23.355391 
L 7.2 -23.355391 
z
"/>
    </defs>
    <g clip-path="url(#p09b95e4edd)">
     <use xlink:href="#m79ada14271" x="0" y="172.815391" style="fill: #64748b; fill-opacity: 0.2"/>
    </g>
   </g>
   <g id="FillBetweenPolyCollection_2">
    <defs>
     <path id="mb5318b772b" d="M 7.2 -23.355391 
L 7.2 -23.693387 
L 7.59666 -23.705676 
L 7.993324 -23.718376 
L 8.389984 -23.731488 
L 8.786644 -23.745011 
L 9.183304 -23.759001 
L 9.579968 -23.773456 
L 9.976628 -23.788351 
L 10.373288 -23.803739 
L 10.769951 -23.819622 
L 11.166611 -23.836025 
L 11.563271 -23.852949 
L 11.959935 -23.870395 
L 12.356595 -23.888417 
L 12.753255 -23.907015 
L 13.149915 -23.926161 
L 13.546579 -23.945938 
L 13.943239 -23.966319 
L 14.339899 -23.987331 
L 14.736563 -24.009001 
L 15.133223 -24.031329 
L 15.529883 -24.05437 
L 15.926543 -24.078098 
L 16.323206 -24.102538 
L 16.719866 -24.127719 
L 17.116526 -24.153668 
L 17.51319 -24.180413 
L 17.90985 -24.207953 
L 18.30651 -24.236316 
L 18.70317 -24.265502 
L 19.099834 -24.295565 
L 19.496494 -24.326507 
L 19.893154 -24.358353 
L 20.289818 -24.391133 
L 20.686478 -24.424872 
L 21.083138 -24.459599 
L 21.479801 -24.495313 
L 21.876461 -24.532042 
L 22.273121 -24.569841 
L 22.669781 -24.60871 
L 23.066445 -24.648676 
L 23.463105 -24.689767 
L 23.859765 -24.732009 
L 24.256429 -24.775432 
L 24.653089 -24.820088 
L 25.049749 -24.865952 
L 25.446409 -24.913077 
L 25.843073 -24.961519 
L 26.239733 -25.01125 
L 26.636393 -25.062353 
L 27.033057 -25.114855 
L 27.429717 -25.168728 
L 27.826377 -25.224082 
L 28.223037 -25.28089 
L 28.6197 -25.339235 
L 29.01636 -25.399088 
L 29.41302 -25.460532 
L 29.809684 -25.523594 
L 30.206344 -25.588275 
L 30.603004 -25.654629 
L 30.999668 -25.722711 
L 31.396328 -25.792521 
L 31.792988 -25.864142 
L 32.189648 -25.937545 
L 32.586312 -26.012841 
L 32.982972 -26.090003 
L 33.379632 -26.169085 
L 33.776295 -26.250169 
L 34.172955 -26.333228 
L 34.569615 -26.418344 
L 34.966275 -26.505545 
L 35.362939 -26.594886 
L 35.759599 -26.686366 
L 36.156259 -26.780068 
L 36.552923 -26.875992 
L 36.949583 -26.97422 
L 37.346243 -27.074779 
L 37.742903 -27.177698 
L 38.139567 -27.283058 
L 38.536227 -27.390859 
L 38.932887 -27.501157 
L 39.329551 -27.613978 
L 39.726211 -27.729404 
L 40.122871 -27.847492 
L 40.519534 -27.968213 
L 40.916194 -28.091677 
L 41.312854 -28.217911 
L 41.709514 -28.346943 
L 42.106178 -28.478829 
L 42.502838 -28.613621 
L 42.899498 -28.751376 
L 43.296162 -28.892121 
L 43.692822 -29.035911 
L 44.089482 -29.182773 
L 44.486142 -29.33279 
L 44.882806 -29.485988 
L 45.279466 -29.642423 
L 45.676126 -29.802123 
L 46.072789 -29.965141 
L 46.469449 -30.131561 
L 46.866109 -30.301382 
L 47.262773 -30.47466 
L 47.659433 -30.651476 
L 48.056093 -30.831858 
L 48.452753 -31.015833 
L 48.849417 -31.203484 
L 49.246077 -31.394838 
L 49.642737 -31.589922 
L 50.039401 -31.788847 
L 50.436061 -31.991612 
L 50.832721 -32.198245 
L 51.229381 -32.408855 
L 51.626044 -32.623442 
L 52.022704 -32.842062 
L 52.419364 -33.064769 
L 52.816028 -33.29159 
L 53.212688 -33.522609 
L 53.609348 -33.757851 
L 54.006008 -33.997346 
L 54.402672 -34.241146 
L 54.799332 -34.489309 
L 55.195992 -34.74186 
L 55.592656 -34.998855 
L 55.989316 -35.260348 
L 56.385976 -35.52634 
L 56.78264 -35.796913 
L 57.1793 -36.072094 
L 57.57596 -36.351938 
L 57.97262 -36.636445 
L 58.369283 -36.925698 
L 58.765943 -37.219697 
L 59.162603 -37.518523 
L 59.559267 -37.822177 
L 59.955927 -38.130713 
L 60.352587 -38.444159 
L 60.749247 -38.762543 
L 61.145911 -39.085892 
L 61.542571 -39.414288 
L 61.939231 -39.747704 
L 62.335895 -40.086194 
L 62.732555 -40.429786 
L 63.129215 -40.778508 
L 63.525875 -41.13236 
L 63.922538 -41.491423 
L 64.319198 -41.855698 
L 64.715858 -42.225184 
L 65.112522 -42.59991 
L 65.509182 -42.97993 
L 65.905842 -43.365216 
L 66.302506 -43.755824 
L 66.699166 -44.151754 
L 67.095826 -44.553032 
L 67.492486 -44.959659 
L 67.88915 -45.371663 
L 68.28581 -45.789016 
L 68.68247 -46.211772 
L 69.079133 -46.639905 
L 69.475793 -47.073441 
L 69.872453 -47.512381 
L 70.269113 -47.956725 
L 70.665777 -48.406446 
L 71.062437 -48.861597 
L 71.459097 -49.322125 
L 71.855761 -49.788057 
L 72.252421 -50.259365 
L 72.649081 -50.736049 
L 73.045741 -51.218082 
L 73.442405 -51.705492 
L 73.839065 -52.198223 
L 74.235725 -52.696276 
L 74.632389 -53.199622 
L 75.029049 -53.708263 
L 75.425709 -54.222143 
L 75.822372 -54.741234 
L 76.219032 -55.265565 
L 76.615692 -55.795026 
L 77.012352 -56.32967 
L 77.409016 -56.86939 
L 77.805676 -57.414156 
L 78.202336 -57.96397 
L 78.599 -58.518776 
L 78.99566 -59.078519 
L 79.39232 -59.643172 
L 79.78898 -60.212654 
L 80.185644 -60.786935 
L 80.582304 -61.365962 
L 80.978964 -61.94968 
L 81.375627 -62.538005 
L 81.772287 -63.130912 
L 82.168947 -63.728345 
L 82.565611 -64.330194 
L 82.962271 -64.936432 
L 83.358931 -65.546948 
L 83.755591 -66.161717 
L 84.152255 -66.780628 
L 84.548915 -67.403626 
L 84.945575 -68.030601 
L 85.342239 -68.661498 
L 85.738899 -69.296236 
L 86.135559 -69.934705 
L 86.532219 -70.576794 
L 86.928883 -71.222477 
L 87.325543 -71.871616 
L 87.722203 -72.524101 
L 88.118866 -73.179851 
L 88.515526 -73.838782 
L 88.912186 -74.500758 
L 89.308846 -75.16567 
L 89.70551 -75.833434 
L 90.10217 -76.503941 
L 90.49883 -77.177026 
L 90.895494 -77.852636 
L 91.292154 -78.530604 
L 91.688814 -79.210849 
L 92.085478 -79.893206 
L 92.482138 -80.577565 
L 92.878798 -81.263817 
L 93.275458 -81.951825 
L 93.672121 -82.641423 
L 94.068781 -83.332531 
L 94.465441 -84.024955 
L 94.862105 -84.718585 
L 95.258765 -85.413314 
L 95.655425 -86.108919 
L 96.052085 -86.805348 
L 96.448749 -87.50238 
L 96.845409 -88.199906 
L 97.242069 -88.897762 
L 97.638733 -89.595809 
L 98.035393 -90.293883 
L 98.432053 -90.991821 
L 98.828713 -91.689484 
L 99.225376 -92.386708 
L 99.622036 -93.083329 
L 100.018696 -93.779182 
L 100.41536 -94.474129 
L 100.81202 -95.167979 
L 101.20868 -95.860568 
L 101.605344 -96.551758 
L 102.002004 -97.241356 
L 102.398664 -97.929199 
L 102.795324 -98.615122 
L 103.191988 -99.29896 
L 103.588648 -99.980522 
L 103.985308 -100.65967 
L 104.381972 -101.336184 
L 104.778632 -102.009928 
L 105.175292 -102.680709 
L 105.571952 -103.348391 
L 105.968615 -104.012754 
L 106.365275 -104.673633 
L 106.761935 -105.330864 
L 107.158599 -105.984254 
L 107.555259 -106.63364 
L 107.951919 -107.278856 
L 108.348579 -107.919711 
L 108.745243 -108.55604 
L 109.141903 -109.187651 
L 109.538563 -109.814407 
L 109.935227 -110.436088 
L 110.331887 -111.05253 
L 110.728547 -111.663568 
L 111.12521 -112.269038 
L 111.52187 -112.868747 
L 111.91853 -113.462531 
L 112.31519 -114.050254 
L 112.711854 -114.631667 
L 113.108514 -115.206662 
L 113.505174 -115.775073 
L 113.901838 -116.336709 
L 114.298498 -116.891406 
L 114.695158 -117.438997 
L 115.091818 -117.97932 
L 115.488482 -118.512237 
L 115.885142 -119.037555 
L 116.281802 -119.555138 
L 116.678465 -120.064848 
L 117.075125 -120.566467 
L 117.471785 -121.059884 
L 117.868449 -121.544962 
L 118.265109 -122.021536 
L 118.661769 -122.489443 
L 119.058429 -122.948545 
L 119.455093 -123.398704 
L 119.851753 -123.839811 
L 120.248413 -124.271674 
L 120.645077 -124.694184 
L 121.041737 -125.107202 
L 121.438397 -125.51062 
L 121.835057 -125.904273 
L 122.231721 -126.288078 
L 122.628381 -126.661871 
L 123.025041 -127.02557 
L 123.421704 -127.379037 
L 123.818364 -127.722163 
L 124.215024 -128.054839 
L 124.611684 -128.376953 
L 125.008348 -128.688397 
L 125.405008 -128.989088 
L 125.801668 -129.278945 
L 126.198332 -129.557801 
L 126.594992 -129.825659 
L 126.991652 -130.082352 
L 127.388316 -130.327853 
L 127.784976 -130.562053 
L 128.181636 -130.78487 
L 128.578296 -130.996248 
L 128.974959 -131.196106 
L 129.371619 -131.384387 
L 129.768279 -131.561039 
L 130.164943 -131.725977 
L 130.561603 -131.879176 
L 130.958263 -132.020552 
L 131.354923 -132.150078 
L 131.751587 -132.267727 
L 132.148247 -132.373443 
L 132.544907 -132.467172 
L 132.941571 -132.548915 
L 133.338231 -132.618643 
L 133.734891 -132.676301 
L 134.131551 -132.721891 
L 134.528215 -132.75541 
L 134.924875 -132.776834 
L 135.321535 -132.78616 
L 135.718198 -132.783362 
L 136.114858 -132.768467 
L 136.511518 -132.741476 
L 136.908182 -132.702415 
L 137.304842 -132.651257 
L 137.701502 -132.588031 
L 138.098162 -132.512789 
L 138.494826 -132.425506 
L 138.891486 -132.326263 
L 139.288146 -132.21506 
L 139.68481 -132.091926 
L 140.08147 -131.956941 
L 140.47813 -131.810106 
L 140.87479 -131.651504 
L 141.271453 -131.481162 
L 141.668113 -131.299161 
L 142.064773 -131.105531 
L 142.461437 -130.900379 
L 142.858097 -130.683707 
L 143.254757 -130.455651 
L 143.651421 -130.216239 
L 144.048081 -129.965581 
L 144.444741 -129.703731 
L 144.841401 -129.430799 
L 145.238065 -129.146868 
L 145.634725 -128.852019 
L 146.031385 -128.546363 
L 146.428048 -128.230009 
L 146.824708 -127.903012 
L 147.221368 -127.565509 
L 147.618028 -127.21761 
L 148.014692 -126.859425 
L 148.411352 -126.491063 
L 148.808012 -126.112634 
L 149.204676 -125.724302 
L 149.601336 -125.326124 
L 149.997996 -124.918262 
L 150.394656 -124.500855 
L 150.79132 -124.074039 
L 151.18798 -123.637896 
L 151.58464 -123.19262 
L 151.981304 -122.738319 
L 152.377964 -122.27513 
L 152.774624 -121.803218 
L 153.171287 -121.322721 
L 153.567947 -120.833803 
L 153.964607 -120.336573 
L 154.361267 -119.831197 
L 154.757931 -119.317866 
L 155.154591 -118.796689 
L 155.551251 -118.26786 
L 155.947915 -117.731514 
L 156.344575 -117.187818 
L 156.741235 -116.636934 
L 157.137895 -116.079029 
L 157.534559 -115.514266 
L 157.931219 -114.942809 
L 158.327879 -114.364825 
L 158.724542 -113.780476 
L 159.121202 -113.189956 
L 159.517862 -112.593429 
L 159.914522 -111.991031 
L 160.311186 -111.382983 
L 160.707846 -110.769421 
L 161.104506 -110.150538 
L 161.50117 -109.526525 
L 161.89783 -108.89752 
L 162.29449 -108.263715 
L 162.691154 -107.625274 
L 163.087814 -106.982389 
L 163.484474 -106.335225 
L 163.881134 -105.683974 
L 164.277797 -105.028773 
L 164.674457 -104.369842 
L 165.071117 -103.707344 
L 165.467781 -103.041446 
L 165.864441 -102.37231 
L 166.261101 -101.700157 
L 166.657761 -101.025096 
L 167.054425 -100.347348 
L 167.451085 -99.667075 
L 167.847745 -98.984444 
L 168.244409 -98.299618 
L 168.641069 -97.61279 
L 169.037729 -96.924124 
L 169.434389 -96.233785 
L 169.831053 -95.541937 
L 170.227713 -94.848718 
L 170.624373 -94.154346 
L 171.021036 -93.45896 
L 171.417696 -92.762751 
L 171.814356 -92.065828 
L 172.21102 -91.368384 
L 172.60768 -90.670557 
L 173.00434 -89.972537 
L 173.401 -89.274462 
L 173.797664 -88.576497 
L 174.194324 -87.878779 
L 174.590984 -87.181445 
L 174.987648 -86.484688 
L 175.384308 -85.788615 
L 175.780968 -85.093394 
L 176.177628 -84.399159 
L 176.574291 -83.706049 
L 176.970951 -83.014229 
L 177.367611 -82.323807 
L 177.764275 -81.634922 
L 178.160935 -80.94771 
L 178.557595 -80.262308 
L 178.954259 -79.578854 
L 179.350919 -78.897457 
L 179.747579 -78.218254 
L 180.144239 -77.541356 
L 180.540903 -76.866872 
L 180.937563 -76.194966 
L 181.334223 -75.52572 
L 181.730887 -74.859245 
L 182.127547 -74.195651 
L 182.524207 -73.535073 
L 182.920867 -72.877596 
L 183.31753 -72.223327 
L 183.71419 -71.572378 
L 184.11085 -70.92483 
L 184.507514 -70.280793 
L 184.904174 -69.64035 
L 185.300834 -69.003582 
L 185.697494 -68.3706 
L 186.094158 -67.741512 
L 186.490818 -67.116348 
L 186.887478 -66.495215 
L 187.284142 -65.878225 
L 187.680802 -65.265404 
L 188.077462 -64.656834 
L 188.474125 -64.052599 
L 188.870785 -63.45278 
L 189.267445 -62.857432 
L 189.664105 -62.26661 
L 190.060769 -61.680396 
L 190.457429 -61.098845 
L 190.854089 -60.521985 
L 191.250753 -59.949898 
L 191.647413 -59.382639 
L 192.044073 -58.820262 
L 192.440733 -58.262768 
L 192.837397 -57.710266 
L 193.234057 -57.162757 
L 193.630717 -56.620295 
L 194.02738 -56.082934 
L 194.42404 -55.550676 
L 194.8207 -55.023575 
L 195.21736 -54.501658 
L 195.614024 -53.984925 
L 196.010684 -53.473459 
L 196.407344 -52.96726 
L 196.804008 -52.466354 
L 197.200668 -51.970743 
L 197.597328 -51.480481 
L 197.993992 -50.99554 
L 198.390652 -50.515948 
L 198.787312 -50.041732 
L 199.183972 -49.57292 
L 199.580636 -49.109458 
L 199.977296 -48.651398 
L 200.373956 -48.19877 
L 200.770619 -47.751519 
L 201.167279 -47.309644 
L 201.563939 -46.8732 
L 201.960599 -46.442159 
L 202.357263 -46.016495 
L 202.753923 -45.596235 
L 203.150583 -45.181351 
L 203.547247 -44.771816 
L 203.943907 -44.367658 
L 204.340567 -43.968848 
L 204.737227 -43.57536 
L 205.133891 -43.187193 
L 205.530551 -42.804348 
L 205.927211 -42.42677 
L 206.323874 -42.05443 
L 206.720534 -41.687358 
L 207.117194 -41.325497 
L 207.513858 -40.96882 
L 207.910518 -40.617328 
L 208.307178 -40.270992 
L 208.703838 -39.929731 
L 209.100502 -39.5936 
L 209.497162 -39.262489 
L 209.893822 -38.936424 
L 210.290486 -38.615352 
L 210.687146 -38.299245 
L 211.083806 -37.988075 
L 211.480466 -37.681788 
L 211.877129 -37.380384 
L 212.273789 -37.083779 
L 212.670449 -36.791948 
L 213.067113 -36.50489 
L 213.463773 -36.222549 
L 213.860433 -35.944844 
L 214.257097 -35.671803 
L 214.653757 -35.403315 
L 215.050417 -35.139408 
L 215.447077 -34.879999 
L 215.843741 -34.625061 
L 216.240401 -34.374513 
L 216.637061 -34.12838 
L 217.033725 -33.886554 
L 217.430385 -33.649035 
L 217.827045 -33.41574 
L 218.223705 -33.186669 
L 218.620368 -32.961741 
L 219.017028 -32.740927 
L 219.413688 -32.524172 
L 219.810352 -32.311422 
L 220.207012 -32.10265 
L 220.603672 -31.897773 
L 221.000332 -31.696818 
L 221.396996 -31.499649 
L 221.793656 -31.306293 
L 222.190316 -31.116639 
L 222.58698 -30.930689 
L 222.98364 -30.748387 
L 223.3803 -30.569651 
L 223.776963 -30.394453 
L 224.173623 -30.222767 
L 224.570283 -30.054537 
L 224.966943 -29.88968 
L 225.363607 -29.728198 
L 225.760267 -29.570007 
L 226.156927 -29.415081 
L 226.553591 -29.263336 
L 226.950251 -29.114773 
L 227.346911 -28.969338 
L 227.743571 -28.826947 
L 228.140235 -28.687601 
L 228.536895 -28.551217 
L 228.933555 -28.417769 
L 229.330219 -28.2872 
L 229.726879 -28.159457 
L 230.123539 -28.034512 
L 230.520199 -27.91231 
L 230.916862 -27.792796 
L 231.313522 -27.67597 
L 231.710182 -27.561723 
L 232.106846 -27.450054 
L 232.503506 -27.340909 
L 232.900166 -27.234259 
L 233.29683 -27.130024 
L 233.69349 -27.028203 
L 234.09015 -26.928713 
L 234.48681 -26.831555 
L 234.883474 -26.736646 
L 235.280134 -26.643986 
L 235.676794 -26.553493 
L 236.073457 -26.46514 
L 236.470117 -26.378899 
L 236.866777 -26.294743 
L 237.263437 -26.212589 
L 237.660101 -26.132438 
L 238.056761 -26.054234 
L 238.453421 -25.97795 
L 238.850085 -25.903532 
L 239.246745 -25.830951 
L 239.643405 -25.760181 
L 240.040065 -25.691166 
L 240.436729 -25.623879 
L 240.833389 -25.558293 
L 241.230049 -25.494353 
L 241.626712 -25.432059 
L 242.023372 -25.371356 
L 242.420032 -25.312188 
L 242.816696 -25.254557 
L 243.213356 -25.198435 
L 243.610016 -25.143766 
L 244.006676 -25.090524 
L 244.40334 -25.038653 
L 244.8 -24.988181 
L 244.8 -23.355391 
L 244.8 -23.355391 
L 244.40334 -23.355391 
L 244.006676 -23.355391 
L 243.610016 -23.355391 
L 243.213356 -23.355391 
L 242.816696 -23.355391 
L 242.420032 -23.355391 
L 242.023372 -23.355391 
L 241.626712 -23.355391 
L 241.230049 -23.355391 
L 240.833389 -23.355391 
L 240.436729 -23.355391 
L 240.040065 -23.355391 
L 239.643405 -23.355391 
L 239.246745 -23.355391 
L 238.850085 -23.355391 
L 238.453421 -23.355391 
L 238.056761 -23.355391 
L 237.660101 -23.355391 
L 237.263437 -23.355391 
L 236.866777 -23.355391 
L 236.470117 -23.355391 
L 236.073457 -23.355391 
L 235.676794 -23.355391 
L 235.280134 -23.355391 
L 234.883474 -23.355391 
L 234.48681 -23.355391 
L 234.09015 -23.355391 
L 233.69349 -23.355391 
L 233.29683 -23.355391 
L 232.900166 -23.355391 
L 232.503506 -23.355391 
L 232.106846 -23.355391 
L 231.710182 -23.355391 
L 231.313522 -23.355391 
L 230.916862 -23.355391 
L 230.520199 -23.355391 
L 230.123539 -23.355391 
L 229.726879 -23.355391 
L 229.330219 -23.355391 
L 228.933555 -23.355391 
L 228.536895 -23.355391 
L 228.140235 -23.355391 
L 227.743571 -23.355391 
L 227.346911 -23.355391 
L 226.950251 -23.355391 
L 226.553591 -23.355391 
L 226.156927 -23.355391 
L 225.760267 -23.355391 
L 225.363607 -23.355391 
L 224.966943 -23.355391 
L 224.570283 -23.355391 
L 224.173623 -23.355391 
L 223.776963 -23.355391 
L 223.3803 -23.355391 
L 222.98364 -23.355391 
L 222.58698 -23.355391 
L 222.190316 -23.355391 
L 221.793656 -23.355391 
L 221.396996 -23.355391 
L 221.000332 -23.355391 
L 220.603672 -23.355391 
L 220.207012 -23.355391 
L 219.810352 -23.355391 
L 219.413688 -23.355391 
L 219.017028 -23.355391 
L 218.620368 -23.355391 
L 218.223705 -23.355391 
L 217.827045 -23.355391 
L 217.430385 -23.355391 
L 217.033725 -23.355391 
L 216.637061 -23.355391 
L 216.240401 -23.355391 
L 215.843741 -23.355391 
L 215.447077 -23.355391 
L 215.050417 -23.355391 
L 214.653757 -23.355391 
L 214.257097 -23.355391 
L 213.860433 -23.355391 
L 213.463773 -23.355391 
L 213.067113 -23.355391 
L 212.670449 -23.355391 
L 212.273789 -23.355391 
L 211.877129 -23.355391 
L 211.480466 -23.355391 
L 211.083806 -23.355391 
L 210.687146 -23.355391 
L 210.290486 -23.355391 
L 209.893822 -23.355391 
L 209.497162 -23.355391 
L 209.100502 -23.355391 
L 208.703838 -23.355391 
L 208.307178 -23.355391 
L 207.910518 -23.355391 
L 207.513858 -23.355391 
L 207.117194 -23.355391 
L 206.720534 -23.355391 
L 206.323874 -23.355391 
L 205.927211 -23.355391 
L 205.530551 -23.355391 
L 205.133891 -23.355391 
L 204.737227 -23.355391 
L 204.340567 -23.355391 
L 203.943907 -23.355391 
L 203.547247 -23.355391 
L 203.150583 -23.355391 
L 202.753923 -23.355391 
L 202.357263 -23.355391 
L 201.960599 -23.355391 
L 201.563939 -23.355391 
L 201.167279 -23.355391 
L 200.770619 -23.355391 
L 200.373956 -23.355391 
L 199.977296 -23.355391 
L 199.580636 -23.355391 
L 199.183972 -23.355391 
L 198.787312 -23.355391 
L 198.390652 -23.355391 
L 197.993992 -23.355391 
L 197.597328 -23.355391 
L 197.200668 -23.355391 
L 196.804008 -23.355391 
L 196.407344 -23.355391 
L 196.010684 -23.355391 
L 195.614024 -23.355391 
L 195.21736 -23.355391 
L 194.8207 -23.355391 
L 194.42404 -23.355391 
L 194.02738 -23.355391 
L 193.630717 -23.355391 
L 193.234057 -23.355391 
L 192.837397 -23.355391 
L 192.440733 -23.355391 
L 192.044073 -23.355391 
L 191.647413 -23.355391 
L 191.250753 -23.355391 
L 190.854089 -23.355391 
L 190.457429 -23.355391 
L 190.060769 -23.355391 
L 189.664105 -23.355391 
L 189.267445 -23.355391 
L 188.870785 -23.355391 
L 188.474125 -23.355391 
L 188.077462 -23.355391 
L 187.680802 -23.355391 
L 187.284142 -23.355391 
L 186.887478 -23.355391 
L 186.490818 -23.355391 
L 186.094158 -23.355391 
L 185.697494 -23.355391 
L 185.300834 -23.355391 
L 184.904174 -23.355391 
L 184.507514 -23.355391 
L 184.11085 -23.355391 
L 183.71419 -23.355391 
L 183.31753 -23.355391 
L 182.920867 -23.355391 
L 182.524207 -23.355391 
L 182.127547 -23.355391 
L 181.730887 -23.355391 
L 181.334223 -23.355391 
L 180.937563 -23.355391 
L 180.540903 -23.355391 
L 180.144239 -23.355391 
L 179.747579 -23.355391 
L 179.350919 -23.355391 
L 178.954259 -23.355391 
L 178.557595 -23.355391 
L 178.160935 -23.355391 
L 177.764275 -23.355391 
L 177.367611 -23.355391 
L 176.970951 -23.355391 
L 176.574291 -23.355391 
L 176.177628 -23.355391 
L 175.780968 -23.355391 
L 175.384308 -23.355391 
L 174.987648 -23.355391 
L 174.590984 -23.355391 
L 174.194324 -23.355391 
L 173.797664 -23.355391 
L 173.401 -23.355391 
L 173.00434 -23.355391 
L 172.60768 -23.355391 
L 172.21102 -23.355391 
L 171.814356 -23.355391 
L 171.417696 -23.355391 
L 171.021036 -23.355391 
L 170.624373 -23.355391 
L 170.227713 -23.355391 
L 169.831053 -23.355391 
L 169.434389 -23.355391 
L 169.037729 -23.355391 
L 168.641069 -23.355391 
L 168.244409 -23.355391 
L 167.847745 -23.355391 
L 167.451085 -23.355391 
L 167.054425 -23.355391 
L 166.657761 -23.355391 
L 166.261101 -23.355391 
L 165.864441 -23.355391 
L 165.467781 -23.355391 
L 165.071117 -23.355391 
L 164.674457 -23.355391 
L 164.277797 -23.355391 
L 163.881134 -23.355391 
L 163.484474 -23.355391 
L 163.087814 -23.355391 
L 162.691154 -23.355391 
L 162.29449 -23.355391 
L 161.89783 -23.355391 
L 161.50117 -23.355391 
L 161.104506 -23.355391 
L 160.707846 -23.355391 
L 160.311186 -23.355391 
L 159.914522 -23.355391 
L 159.517862 -23.355391 
L 159.121202 -23.355391 
L 158.724542 -23.355391 
L 158.327879 -23.355391 
L 157.931219 -23.355391 
L 157.534559 -23.355391 
L 157.137895 -23.355391 
L 156.741235 -23.355391 
L 156.344575 -23.355391 
L 155.947915 -23.355391 
L 155.551251 -23.355391 
L 155.154591 -23.355391 
L 154.757931 -23.355391 
L 154.361267 -23.355391 
L 153.964607 -23.355391 
L 153.567947 -23.355391 
L 153.171287 -23.355391 
L 152.774624 -23.355391 
L 152.377964 -23.355391 
L 151.981304 -23.355391 
L 151.58464 -23.355391 
L 151.18798 -23.355391 
L 150.79132 -23.355391 
L 150.394656 -23.355391 
L 149.997996 -23.355391 
L 149.601336 -23.355391 
L 149.204676 -23.355391 
L 148.808012 -23.355391 
L 148.411352 -23.355391 
L 148.014692 -23.355391 
L 147.618028 -23.355391 
L 147.221368 -23.355391 
L 146.824708 -23.355391 
L 146.428048 -23.355391 
L 146.031385 -23.355391 
L 145.634725 -23.355391 
L 145.238065 -23.355391 
L 144.841401 -23.355391 
L 144.444741 -23.355391 
L 144.048081 -23.355391 
L 143.651421 -23.355391 
L 143.254757 -23.355391 
L 142.858097 -23.355391 
L 142.461437 -23.355391 
L 142.064773 -23.355391 
L 141.668113 -23.355391 
L 141.271453 -23.355391 
L 140.87479 -23.355391 
L 140.47813 -23.355391 
L 140.08147 -23.355391 
L 139.68481 -23.355391 
L 139.288146 -23.355391 
L 138.891486 -23.355391 
L 138.494826 -23.355391 
L 138.098162 -23.355391 
L 137.701502 -23.355391 
L 137.304842 -23.355391 
L 136.908182 -23.355391 
L 136.511518 -23.355391 
L 136.114858 -23.355391 
L 135.718198 -23.355391 
L 135.321535 -23.355391 
L 134.924875 -23.355391 
L 134.528215 -23.355391 
L 134.131551 -23.355391 
L 133.734891 -23.355391 
L 133.338231 -23.355391 
L 132.941571 -23.355391 
L 132.544907 -23.355391 
L 132.148247 -23.355391 
L 131.751587 -23.355391 
L 131.354923 -23.355391 
L 130.958263 -23.355391 
L 130.561603 -23.355391 
L 130.164943 -23.355391 
L 129.768279 -23.355391 
L 129.371619 -23.355391 
L 128.974959 -23.355391 
L 128.578296 -23.355391 
L 128.181636 -23.355391 
L 127.784976 -23.355391 
L 127.388316 -23.355391 
L 126.991652 -23.355391 
L 126.594992 -23.355391 
L 126.198332 -23.355391 
L 125.801668 -23.355391 
L 125.405008 -23.355391 
L 125.008348 -23.355391 
L 124.611684 -23.355391 
L 124.215024 -23.355391 
L 123.818364 -23.355391 
L 123.421704 -23.355391 
L 123.025041 -23.355391 
L 122.628381 -23.355391 
L 122.231721 -23.355391 
L 121.835057 -23.355391 
L 121.438397 -23.355391 
L 121.041737 -23.355391 
L 120.645077 -23.355391 
L 120.248413 -23.355391 
L 119.851753 -23.355391 
L 119.455093 -23.355391 
L 119.058429 -23.355391 
L 118.661769 -23.355391 
L 118.265109 -23.355391 
L 117.868449 -23.355391 
L 117.471785 -23.355391 
L 117.075125 -23.355391 
L 116.678465 -23.355391 
L 116.281802 -23.355391 
L 115.885142 -23.355391 
L 115.488482 -23.355391 
L 115.091818 -23.355391 
L 114.695158 -23.355391 
L 114.298498 -23.355391 
L 113.901838 -23.355391 
L 113.505174 -23.355391 
L 113.108514 -23.355391 
L 112.711854 -23.355391 
L 112.31519 -23.355391 
L 111.91853 -23.355391 
L 111.52187 -23.355391 
L 111.12521 -23.355391 
L 110.728547 -23.355391 
L 110.331887 -23.355391 
L 109.935227 -23.355391 
L 109.538563 -23.355391 
L 109.141903 -23.355391 
L 108.745243 -23.355391 
L 108.348579 -23.355391 
L 107.951919 -23.355391 
L 107.555259 -23.355391 
L 107.158599 -23.355391 
L 106.761935 -23.355391 
L 106.365275 -23.355391 
L 105.968615 -23.355391 
L 105.571952 -23.355391 
L 105.175292 -23.355391 
L 104.778632 -23.355391 
L 104.381972 -23.355391 
L 103.985308 -23.355391 
L 103.588648 -23.355391 
L 103.191988 -23.355391 
L 102.795324 -23.355391 
L 102.398664 -23.355391 
L 102.002004 -23.355391 
L 101.605344 -23.355391 
L 101.20868 -23.355391 
L 100.81202 -23.355391 
L 100.41536 -23.355391 
L 100.018696 -23.355391 
L 99.622036 -23.355391 
L 99.225376 -23.355391 
L 98.828713 -23.355391 
L 98.432053 -23.355391 
L 98.035393 -23.355391 
L 97.638733 -23.355391 
L 97.242069 -23.355391 
L 96.845409 -23.355391 
L 96.448749 -23.355391 
L 96.052085 -23.355391 
L 95.655425 -23.355391 
L 95.258765 -23.355391 
L 94.862105 -23.355391 
L 94.465441 -23.355391 
L 94.068781 -23.355391 
L 93.672121 -23.355391 
L 93.275458 -23.355391 
L 92.878798 -23.355391 
L 92.482138 -23.355391 
L 92.085478 -23.355391 
L 91.688814 -23.355391 
L 91.292154 -23.355391 
L 90.895494 -23.355391 
L 90.49883 -23.355391 
L 90.10217 -23.355391 
L 89.70551 -23.355391 
L 89.308846 -23.355391 
L 88.912186 -23.355391 
L 88.515526 -23.355391 
L 88.118866 -23.355391 
L 87.722203 -23.355391 
L 87.325543 -23.355391 
L 86.928883 -23.355391 
L 86.532219 -23.355391 
L 86.135559 -23.355391 
L 85.738899 -23.355391 
L 85.342239 -23.355391 
L 84.945575 -23.355391 
L 84.548915 -23.355391 
L 84.152255 -23.355391 
L 83.755591 -23.355391 
L 83.358931 -23.355391 
L 82.962271 -23.355391 
L 82.565611 -23.355391 
L 82.168947 -23.355391 
L 81.772287 -23.355391 
L 81.375627 -23.355391 
L 80.978964 -23.355391 
L 80.582304 -23.355391 
L 80.185644 -23.355391 
L 79.78898 -23.355391 
L 79.39232 -23.355391 
L 78.99566 -23.355391 
L 78.599 -23.355391 
L 78.202336 -23.355391 
L 77.805676 -23.355391 
L 77.409016 -23.355391 
L 77.012352 -23.355391 
L 76.615692 -23.355391 
L 76.219032 -23.355391 
L 75.822372 -23.355391 
L 75.425709 -23.355391 
L 75.029049 -23.355391 
L 74.632389 -23.355391 
L 74.235725 -23.355391 
L 73.839065 -23.355391 
L 73.442405 -23.355391 
L 73.045741 -23.355391 
L 72.649081 -23.355391 
L 72.252421 -23.355391 
L 71.855761 -23.355391 
L 71.459097 -23.355391 
L 71.062437 -23.355391 
L 70.665777 -23.355391 
L 70.269113 -23.355391 
L 69.872453 -23.355391 
L 69.475793 -23.355391 
L 69.079133 -23.355391 
L 68.68247 -23.355391 
L 68.28581 -23.355391 
L 67.88915 -23.355391 
L 67.492486 -23.355391 
L 67.095826 -23.355391 
L 66.699166 -23.355391 
L 66.302506 -23.355391 
L 65.905842 -23.355391 
L 65.509182 -23.355391 
L 65.112522 -23.355391 
L 64.715858 -23.355391 
L 64.319198 -23.355391 
L 63.922538 -23.355391 
L 63.525875 -23.355391 
L 63.129215 -23.355391 
L 62.732555 -23.355391 
L 62.335895 -23.355391 
L 61.939231 -23.355391 
L 61.542571 -23.355391 
L 61.145911 -23.355391 
L 60.749247 -23.355391 
L 60.352587 -23.355391 
L 59.955927 -23.355391 
L 59.559267 -23.355391 
L 59.162603 -23.355391 
L 58.765943 -23.355391 
L 58.369283 -23.355391 
L 57.97262 -23.355391 
L 57.57596 -23.355391 
L 57.1793 -23.355391 
L 56.78264 -23.355391 
L 56.385976 -23.355391 
L 55.989316 -23.355391 
L 55.592656 -23.355391 
L 55.195992 -23.355391 
L 54.799332 -23.355391 
L 54.402672 -23.355391 
L 54.006008 -23.355391 
L 53.609348 -23.355391 
L 53.212688 -23.355391 
L 52.816028 -23.355391 
L 52.419364 -23.355391 
L 52.022704 -23.355391 
L 51.626044 -23.355391 
L 51.229381 -23.355391 
L 50.832721 -23.355391 
L 50.436061 -23.355391 
L 50.039401 -23.355391 
L 49.642737 -23.355391 
L 49.246077 -23.355391 
L 48.849417 -23.355391 
L 48.452753 -23.355391 
L 48.056093 -23.355391 
L 47.659433 -23.355391 
L 47.262773 -23.355391 
L 46.866109 -23.355391 
L 46.469449 -23.355391 
L 46.072789 -23.355391 
L 45.676126 -23.355391 
L 45.279466 -23.355391 
L 44.882806 -23.355391 
L 44.486142 -23.355391 
L 44.089482 -23.355391 
L 43.692822 -23.355391 
L 43.296162 -23.355391 
L 42.899498 -23.355391 
L 42.502838 -23.355391 
L 42.106178 -23.355391 
L 41.709514 -23.355391 
L 41.312854 -23.355391 
L 40.916194 -23.355391 
L 40.519534 -23.355391 
L 40.122871 -23.355391 
L 39.726211 -23.355391 
L 39.329551 -23.355391 
L 38.932887 -23.355391 
L 38.536227 -23.355391 
L 38.139567 -23.355391 
L 37.742903 -23.355391 
L 37.346243 -23.355391 
L 36.949583 -23.355391 
L 36.552923 -23.355391 
L 36.156259 -23.355391 
L 35.759599 -23.355391 
L 35.362939 -23.355391 
L 34.966275 -23.355391 
L 34.569615 -23.355391 
L 34.172955 -23.355391 
L 33.776295 -23.355391 
L 33.379632 -23.355391 
L 32.982972 -23.355391 
L 32.586312 -23.355391 
L 32.189648 -23.355391 
L 31.792988 -23.355391 
L 31.396328 -23.355391 
L 30.999668 -23.355391 
L 30.603004 -23.355391 
L 30.206344 -23.355391 
L 29.809684 -23.355391 
L 29.41302 -23.355391 
L 29.01636 -23.355391 
L 28.6197 -23.355391 
L 28.223037 -23.355391 
L 27.826377 -23.355391 
L 27.429717 -23.355391 
L 27.033057 -23.355391 
L 26.636393 -23.355391 
L 26.239733 -23.355391 
L 25.843073 -23.355391 
L 25.446409 -23.355391 
L 25.049749 -23.355391 
L 24.653089 -23.355391 
L 24.256429 -23.355391 
L 23.859765 -23.355391 
L 23.463105 -23.355391 
L 23.066445 -23.355391 
L 22.669781 -23.355391 
L 22.273121 -23.355391 
L 21.876461 -23.355391 
L 21.479801 -23.355391 
L 21.083138 -23.355391 
L 20.686478 -23.355391 
L 20.289818 -23.355391 
L 19.893154 -23.355391 
L 19.496494 -23.355391 
L 19.099834 -23.355391 
L 18.70317 -23.355391 
L 18.30651 -23.355391 
L 17.90985 -23.355391 
L 17.51319 -23.355391 
L 17.116526 -23.355391 
L 16.719866 -23.355391 
L 16.323206 -23.355391 
L 15.926543 -23.355391 
L 15.529883 -23.355391 
L 15.133223 -23.355391 
L 14.736563 -23.355391 
L 14.339899 -23.355391 
L 13.943239 -23.355391 
L 13.546579 -23.355391 
L 13.149915 -23.355391 
L 12.753255 -23.355391 
L 12.356595 -23.355391 
L 11.959935 -23.355391 
L 11.563271 -23.355391 
L 11.166611 -23.355391 
L 10.769951 -23.355391 
L 10.373288 -23.355391 
L 9.976628 -23.355391 
L 9.579968 -23.355391 
L 9.183304 -23.355391 
L 8.786644 -23.355391 
L 8.389984 -23.355391 
L 7.993324 -23.355391 
L 7.59666 -23.355391 
L 7.2 -23.355391 
z
"/>
    </defs>
    <g clip-path="url(#p09b95e4edd)">
     <use xlink:href="#mb5318b772b" x="0" y="172.815391" style="fill: #2b90b6; fill-opacity: 0.2"/>
    </g>
   </g>
   <g id="patch_3">
    <path d="M 7.2 149.46 
L 244.8 149.46 
" style="fill: none; opacity: 0.6; stroke: #94a3b8; stroke-width: 0.8; stroke-linejoin: miter; stroke-linecap: square"/>
   </g>
   <g id="FillBetweenPolyCollection_3">
    <defs>
     <path id="mdb3ecc081c" d="M 7.2 -23.355391 
L 7.2 -23.693387 
L 7.59666 -23.705676 
L 7.993324 -23.718376 
L 8.389984 -23.731488 
L 8.786644 -23.745011 
L 9.183304 -23.759001 
L 9.579968 -23.773456 
L 9.976628 -23.788351 
L 10.373288 -23.803739 
L 10.769951 -23.819622 
L 11.166611 -23.836025 
L 11.563271 -23.852949 
L 11.959935 -23.870395 
L 12.356595 -23.888417 
L 12.753255 -23.907015 
L 13.149915 -23.926161 
L 13.546579 -23.945938 
L 13.943239 -23.966319 
L 14.339899 -23.987331 
L 14.736563 -24.009001 
L 15.133223 -24.031329 
L 15.529883 -24.05437 
L 15.926543 -24.078098 
L 16.323206 -24.102538 
L 16.719866 -24.127719 
L 17.116526 -24.153668 
L 17.51319 -24.180413 
L 17.90985 -24.207953 
L 18.30651 -24.236316 
L 18.70317 -24.265502 
L 19.099834 -24.295565 
L 19.496494 -24.326507 
L 19.893154 -24.358353 
L 20.289818 -24.391133 
L 20.686478 -24.424872 
L 21.083138 -24.459599 
L 21.479801 -24.495313 
L 21.876461 -24.532042 
L 22.273121 -24.569841 
L 22.669781 -24.60871 
L 23.066445 -24.648676 
L 23.463105 -24.689767 
L 23.859765 -24.732009 
L 24.256429 -24.775432 
L 24.653089 -24.820088 
L 25.049749 -24.865952 
L 25.446409 -24.913077 
L 25.843073 -24.961519 
L 26.239733 -25.01125 
L 26.636393 -25.062353 
L 27.033057 -25.114855 
L 27.429717 -25.168728 
L 27.826377 -25.224082 
L 28.223037 -25.28089 
L 28.6197 -25.339235 
L 29.01636 -25.399088 
L 29.41302 -25.460532 
L 29.809684 -25.523594 
L 30.206344 -25.588275 
L 30.603004 -25.654629 
L 30.999668 -25.722711 
L 31.396328 -25.792521 
L 31.792988 -25.864142 
L 32.189648 -25.937545 
L 32.586312 -26.012841 
L 32.982972 -26.090003 
L 33.379632 -26.169085 
L 33.776295 -26.250169 
L 34.172955 -26.333228 
L 34.569615 -26.418344 
L 34.966275 -26.505545 
L 35.362939 -26.594886 
L 35.759599 -26.686366 
L 36.156259 -26.780068 
L 36.552923 -26.875992 
L 36.949583 -26.97422 
L 37.346243 -27.074779 
L 37.742903 -27.177698 
L 38.139567 -27.283058 
L 38.536227 -27.390859 
L 38.932887 -27.501157 
L 39.329551 -27.613978 
L 39.726211 -27.729404 
L 40.122871 -27.847492 
L 40.519534 -27.968213 
L 40.916194 -28.091677 
L 41.312854 -28.217911 
L 41.709514 -28.346943 
L 42.106178 -28.478829 
L 42.502838 -28.613621 
L 42.899498 -28.751376 
L 43.296162 -28.892121 
L 43.692822 -29.035911 
L 44.089482 -29.182773 
L 44.486142 -29.33279 
L 44.882806 -29.485988 
L 45.279466 -29.642423 
L 45.676126 -29.802123 
L 46.072789 -29.965141 
L 46.469449 -30.131561 
L 46.866109 -30.301382 
L 47.262773 -30.47466 
L 47.659433 -30.651476 
L 48.056093 -30.831858 
L 48.452753 -31.015833 
L 48.849417 -31.203484 
L 49.246077 -31.394838 
L 49.642737 -31.589922 
L 50.039401 -31.788847 
L 50.436061 -31.991612 
L 50.832721 -32.198245 
L 51.229381 -32.408855 
L 51.626044 -32.623442 
L 52.022704 -32.842062 
L 52.419364 -33.064769 
L 52.816028 -33.29159 
L 53.212688 -33.522609 
L 53.609348 -33.757851 
L 54.006008 -33.997346 
L 54.402672 -34.241146 
L 54.799332 -34.489309 
L 55.195992 -34.74186 
L 55.592656 -34.998855 
L 55.989316 -35.260348 
L 56.385976 -35.52634 
L 56.78264 -35.796913 
L 57.1793 -36.072094 
L 57.57596 -36.351938 
L 57.97262 -36.636445 
L 58.369283 -36.925698 
L 58.765943 -37.219697 
L 59.162603 -37.518523 
L 59.559267 -37.822177 
L 59.955927 -38.130713 
L 60.352587 -38.444159 
L 60.749247 -38.762543 
L 61.145911 -39.085892 
L 61.542571 -39.414288 
L 61.939231 -39.747704 
L 62.335895 -40.086194 
L 62.732555 -40.429786 
L 63.129215 -40.778508 
L 63.525875 -41.13236 
L 63.922538 -41.491423 
L 64.319198 -41.855698 
L 64.715858 -42.225184 
L 65.112522 -42.59991 
L 65.509182 -42.97993 
L 65.905842 -43.365216 
L 66.302506 -43.755824 
L 66.699166 -44.151754 
L 67.095826 -44.553032 
L 67.492486 -44.959659 
L 67.88915 -45.371663 
L 68.28581 -45.789016 
L 68.68247 -46.211772 
L 69.079133 -46.639905 
L 69.475793 -47.073441 
L 69.872453 -47.512381 
L 70.269113 -47.956725 
L 70.665777 -48.406446 
L 71.062437 -48.861597 
L 71.459097 -49.322125 
L 71.855761 -49.788057 
L 72.252421 -50.259365 
L 72.649081 -50.736049 
L 73.045741 -51.218082 
L 73.442405 -51.705492 
L 73.839065 -52.198223 
L 74.235725 -52.696276 
L 74.632389 -53.199622 
L 75.029049 -53.708263 
L 75.425709 -54.222143 
L 75.822372 -54.741234 
L 76.219032 -55.265565 
L 76.615692 -55.795026 
L 77.012352 -56.32967 
L 77.409016 -56.86939 
L 77.805676 -57.414156 
L 78.202336 -57.96397 
L 78.599 -58.518776 
L 78.99566 -59.078519 
L 79.39232 -59.643172 
L 79.78898 -60.212654 
L 80.185644 -60.786935 
L 80.582304 -61.365962 
L 80.978964 -61.94968 
L 81.375627 -62.538005 
L 81.772287 -63.130912 
L 82.168947 -63.728345 
L 82.565611 -64.330194 
L 82.962271 -64.936432 
L 83.358931 -65.546948 
L 83.755591 -66.161717 
L 84.152255 -66.780628 
L 84.548915 -67.403626 
L 84.945575 -68.030601 
L 85.342239 -68.661498 
L 85.738899 -69.296236 
L 86.135559 -69.934705 
L 86.532219 -70.576794 
L 86.928883 -71.222477 
L 87.325543 -71.871616 
L 87.722203 -72.524101 
L 88.118866 -73.179851 
L 88.515526 -73.838782 
L 88.912186 -74.500758 
L 89.308846 -75.16567 
L 89.70551 -75.833434 
L 90.10217 -76.503941 
L 90.49883 -77.177026 
L 90.895494 -77.852636 
L 91.292154 -78.530604 
L 91.688814 -79.210849 
L 92.085478 -79.893206 
L 92.482138 -80.577565 
L 92.878798 -81.263817 
L 93.275458 -81.951825 
L 93.672121 -82.641423 
L 94.068781 -83.332531 
L 94.465441 -84.024955 
L 94.862105 -84.718585 
L 95.258765 -85.413314 
L 95.655425 -86.108919 
L 96.052085 -86.805348 
L 96.448749 -87.50238 
L 96.845409 -88.199906 
L 97.242069 -88.897762 
L 97.638733 -89.595809 
L 98.035393 -90.293883 
L 98.432053 -90.991821 
L 98.828713 -91.689484 
L 99.225376 -92.386708 
L 99.622036 -93.083329 
L 100.018696 -93.779182 
L 100.41536 -94.474129 
L 100.81202 -95.167979 
L 101.20868 -95.860568 
L 101.605344 -96.551758 
L 102.002004 -97.241356 
L 102.398664 -97.929199 
L 102.795324 -98.615122 
L 103.191988 -99.29896 
L 103.588648 -99.980522 
L 103.985308 -100.65967 
L 104.381972 -101.336184 
L 104.778632 -102.009928 
L 105.175292 -102.680709 
L 105.571952 -103.348391 
L 105.968615 -104.012754 
L 106.365275 -104.673633 
L 106.761935 -105.330864 
L 107.158599 -105.984254 
L 107.555259 -106.63364 
L 107.951919 -107.278856 
L 108.348579 -107.919711 
L 108.745243 -108.55604 
L 109.141903 -109.187651 
L 109.538563 -109.814407 
L 109.935227 -110.436088 
L 110.331887 -111.05253 
L 110.728547 -111.663568 
L 111.12521 -112.269038 
L 111.52187 -112.868747 
L 111.91853 -113.462531 
L 112.31519 -114.050254 
L 112.711854 -114.631667 
L 113.108514 -115.206662 
L 113.505174 -115.775073 
L 113.901838 -116.336709 
L 114.298498 -116.891406 
L 114.695158 -117.438997 
L 115.091818 -117.97932 
L 115.488482 -118.512237 
L 115.885142 -119.037555 
L 116.281802 -119.555138 
L 116.678465 -120.064848 
L 117.075125 -120.566467 
L 117.471785 -121.059884 
L 117.868449 -121.544962 
L 118.265109 -122.021536 
L 118.661769 -122.489443 
L 119.058429 -122.948545 
L 119.455093 -123.398704 
L 119.851753 -123.839811 
L 120.248413 -124.271674 
L 120.645077 -124.694184 
L 121.041737 -125.107202 
L 121.438397 -125.51062 
L 121.835057 -125.904273 
L 122.231721 -126.288078 
L 122.628381 -126.661871 
L 123.025041 -127.02557 
L 123.421704 -127.379037 
L 123.818364 -127.722163 
L 124.215024 -128.054839 
L 124.611684 -128.376953 
L 125.008348 -128.688397 
L 125.405008 -128.989088 
L 125.801668 -129.278945 
L 126.198332 -129.278945 
L 126.594992 -128.989088 
L 126.991652 -128.688397 
L 127.388316 -128.376953 
L 127.784976 -128.054839 
L 128.181636 -127.722163 
L 128.578296 -127.379037 
L 128.974959 -127.02557 
L 129.371619 -126.661871 
L 129.768279 -126.288078 
L 130.164943 -125.904273 
L 130.561603 -125.51062 
L 130.958263 -125.107202 
L 131.354923 -124.694184 
L 131.751587 -124.271674 
L 132.148247 -123.839811 
L 132.544907 -123.398704 
L 132.941571 -122.948545 
L 133.338231 -122.489443 
L 133.734891 -122.021536 
L 134.131551 -121.544962 
L 134.528215 -121.059884 
L 134.924875 -120.566467 
L 135.321535 -120.064848 
L 135.718198 -119.555138 
L 136.114858 -119.037555 
L 136.511518 -118.512237 
L 136.908182 -117.97932 
L 137.304842 -117.438997 
L 137.701502 -116.891406 
L 138.098162 -116.336709 
L 138.494826 -115.775073 
L 138.891486 -115.206662 
L 139.288146 -114.631667 
L 139.68481 -114.050254 
L 140.08147 -113.462531 
L 140.47813 -112.868747 
L 140.87479 -112.269038 
L 141.271453 -111.663568 
L 141.668113 -111.05253 
L 142.064773 -110.436088 
L 142.461437 -109.814407 
L 142.858097 -109.187651 
L 143.254757 -108.55604 
L 143.651421 -107.919711 
L 144.048081 -107.278856 
L 144.444741 -106.63364 
L 144.841401 -105.984254 
L 145.238065 -105.330864 
L 145.634725 -104.673633 
L 146.031385 -104.012754 
L 146.428048 -103.348391 
L 146.824708 -102.680709 
L 147.221368 -102.009928 
L 147.618028 -101.336184 
L 148.014692 -100.65967 
L 148.411352 -99.980522 
L 148.808012 -99.29896 
L 149.204676 -98.615122 
L 149.601336 -97.929199 
L 149.997996 -97.241356 
L 150.394656 -96.551758 
L 150.79132 -95.860568 
L 151.18798 -95.167979 
L 151.58464 -94.474129 
L 151.981304 -93.779182 
L 152.377964 -93.083329 
L 152.774624 -92.386708 
L 153.171287 -91.689484 
L 153.567947 -90.991821 
L 153.964607 -90.293883 
L 154.361267 -89.595809 
L 154.757931 -88.897762 
L 155.154591 -88.199906 
L 155.551251 -87.50238 
L 155.947915 -86.805348 
L 156.344575 -86.108919 
L 156.741235 -85.413314 
L 157.137895 -84.718585 
L 157.534559 -84.024955 
L 157.931219 -83.332531 
L 158.327879 -82.641423 
L 158.724542 -81.951825 
L 159.121202 -81.263817 
L 159.517862 -80.577565 
L 159.914522 -79.893206 
L 160.311186 -79.210849 
L 160.707846 -78.530604 
L 161.104506 -77.852636 
L 161.50117 -77.177026 
L 161.89783 -76.503941 
L 162.29449 -75.833434 
L 162.691154 -75.16567 
L 163.087814 -74.500758 
L 163.484474 -73.838782 
L 163.881134 -73.179851 
L 164.277797 -72.524101 
L 164.674457 -71.871616 
L 165.071117 -71.222477 
L 165.467781 -70.576794 
L 165.864441 -69.934705 
L 166.261101 -69.296236 
L 166.657761 -68.661498 
L 167.054425 -68.030601 
L 167.451085 -67.403626 
L 167.847745 -66.780628 
L 168.244409 -66.161717 
L 168.641069 -65.546948 
L 169.037729 -64.936432 
L 169.434389 -64.330194 
L 169.831053 -63.728345 
L 170.227713 -63.130912 
L 170.624373 -62.538005 
L 171.021036 -61.94968 
L 171.417696 -61.365962 
L 171.814356 -60.786935 
L 172.21102 -60.212654 
L 172.60768 -59.643172 
L 173.00434 -59.078519 
L 173.401 -58.518776 
L 173.797664 -57.96397 
L 174.194324 -57.414156 
L 174.590984 -56.86939 
L 174.987648 -56.32967 
L 175.384308 -55.795026 
L 175.780968 -55.265565 
L 176.177628 -54.741234 
L 176.574291 -54.222143 
L 176.970951 -53.708263 
L 177.367611 -53.199622 
L 177.764275 -52.696276 
L 178.160935 -52.198223 
L 178.557595 -51.705492 
L 178.954259 -51.218082 
L 179.350919 -50.736049 
L 179.747579 -50.259365 
L 180.144239 -49.788057 
L 180.540903 -49.322125 
L 180.937563 -48.861597 
L 181.334223 -48.406446 
L 181.730887 -47.956725 
L 182.127547 -47.512381 
L 182.524207 -47.073441 
L 182.920867 -46.639905 
L 183.31753 -46.211772 
L 183.71419 -45.789016 
L 184.11085 -45.371663 
L 184.507514 -44.959659 
L 184.904174 -44.553032 
L 185.300834 -44.151754 
L 185.697494 -43.755824 
L 186.094158 -43.365216 
L 186.490818 -42.97993 
L 186.887478 -42.59991 
L 187.284142 -42.225184 
L 187.680802 -41.855698 
L 188.077462 -41.491423 
L 188.474125 -41.13236 
L 188.870785 -40.778508 
L 189.267445 -40.429786 
L 189.664105 -40.086194 
L 190.060769 -39.747704 
L 190.457429 -39.414288 
L 190.854089 -39.085892 
L 191.250753 -38.762543 
L 191.647413 -38.444159 
L 192.044073 -38.130713 
L 192.440733 -37.822177 
L 192.837397 -37.518523 
L 193.234057 -37.219697 
L 193.630717 -36.925698 
L 194.02738 -36.636445 
L 194.42404 -36.351938 
L 194.8207 -36.072094 
L 195.21736 -35.796913 
L 195.614024 -35.52634 
L 196.010684 -35.260348 
L 196.407344 -34.998855 
L 196.804008 -34.74186 
L 197.200668 -34.489309 
L 197.597328 -34.241146 
L 197.993992 -33.997346 
L 198.390652 -33.757851 
L 198.787312 -33.522609 
L 199.183972 -33.29159 
L 199.580636 -33.064769 
L 199.977296 -32.842062 
L 200.373956 -32.623442 
L 200.770619 -32.408855 
L 201.167279 -32.198245 
L 201.563939 -31.991612 
L 201.960599 -31.788847 
L 202.357263 -31.589922 
L 202.753923 -31.394838 
L 203.150583 -31.203484 
L 203.547247 -31.015833 
L 203.943907 -30.831858 
L 204.340567 -30.651476 
L 204.737227 -30.47466 
L 205.133891 -30.301382 
L 205.530551 -30.131561 
L 205.927211 -29.965141 
L 206.323874 -29.802123 
L 206.720534 -29.642423 
L 207.117194 -29.485988 
L 207.513858 -29.33279 
L 207.910518 -29.182773 
L 208.307178 -29.035911 
L 208.703838 -28.892121 
L 209.100502 -28.751376 
L 209.497162 -28.613621 
L 209.893822 -28.478829 
L 210.290486 -28.346943 
L 210.687146 -28.217911 
L 211.083806 -28.091677 
L 211.480466 -27.968213 
L 211.877129 -27.847492 
L 212.273789 -27.729404 
L 212.670449 -27.613978 
L 213.067113 -27.501157 
L 213.463773 -27.390859 
L 213.860433 -27.283058 
L 214.257097 -27.177698 
L 214.653757 -27.074779 
L 215.050417 -26.97422 
L 215.447077 -26.875992 
L 215.843741 -26.780068 
L 216.240401 -26.686366 
L 216.637061 -26.594886 
L 217.033725 -26.505545 
L 217.430385 -26.418344 
L 217.827045 -26.333228 
L 218.223705 -26.250169 
L 218.620368 -26.169085 
L 219.017028 -26.090003 
L 219.413688 -26.012841 
L 219.810352 -25.937545 
L 220.207012 -25.864142 
L 220.603672 -25.792521 
L 221.000332 -25.722711 
L 221.396996 -25.654629 
L 221.793656 -25.588275 
L 222.190316 -25.523594 
L 222.58698 -25.460532 
L 222.98364 -25.399088 
L 223.3803 -25.339235 
L 223.776963 -25.28089 
L 224.173623 -25.224082 
L 224.570283 -25.168728 
L 224.966943 -25.114855 
L 225.363607 -25.062353 
L 225.760267 -25.01125 
L 226.156927 -24.961519 
L 226.553591 -24.913077 
L 226.950251 -24.865952 
L 227.346911 -24.820088 
L 227.743571 -24.775432 
L 228.140235 -24.732009 
L 228.536895 -24.689767 
L 228.933555 -24.648676 
L 229.330219 -24.60871 
L 229.726879 -24.569841 
L 230.123539 -24.532042 
L 230.520199 -24.495313 
L 230.916862 -24.459599 
L 231.313522 -24.424872 
L 231.710182 -24.391133 
L 232.106846 -24.358353 
L 232.503506 -24.326507 
L 232.900166 -24.295565 
L 233.29683 -24.265502 
L 233.69349 -24.236316 
L 234.09015 -24.207953 
L 234.48681 -24.180413 
L 234.883474 -24.153668 
L 235.280134 -24.127719 
L 235.676794 -24.102538 
L 236.073457 -24.078098 
L 236.470117 -24.05437 
L 236.866777 -24.031329 
L 237.263437 -24.009001 
L 237.660101 -23.987331 
L 238.056761 -23.966319 
L 238.453421 -23.945938 
L 238.850085 -23.926161 
L 239.246745 -23.907015 
L 239.643405 -23.888417 
L 240.040065 -23.870395 
L 240.436729 -23.852949 
L 240.833389 -23.836025 
L 241.230049 -23.819622 
L 241.626712 -23.803739 
L 242.023372 -23.788351 
L 242.420032 -23.773456 
L 242.816696 -23.759001 
L 243.213356 -23.745011 
L 243.610016 -23.731488 
L 244.006676 -23.718376 
L 244.40334 -23.705676 
L 244.8 -23.693387 
L 244.8 -23.355391 
L 244.8 -23.355391 
L 244.40334 -23.355391 
L 244.006676 -23.355391 
L 243.610016 -23.355391 
L 243.213356 -23.355391 
L 242.816696 -23.355391 
L 242.420032 -23.355391 
L 242.023372 -23.355391 
L 241.626712 -23.355391 
L 241.230049 -23.355391 
L 240.833389 -23.355391 
L 240.436729 -23.355391 
L 240.040065 -23.355391 
L 239.643405 -23.355391 
L 239.246745 -23.355391 
L 238.850085 -23.355391 
L 238.453421 -23.355391 
L 238.056761 -23.355391 
L 237.660101 -23.355391 
L 237.263437 -23.355391 
L 236.866777 -23.355391 
L 236.470117 -23.355391 
L 236.073457 -23.355391 
L 235.676794 -23.355391 
L 235.280134 -23.355391 
L 234.883474 -23.355391 
L 234.48681 -23.355391 
L 234.09015 -23.355391 
L 233.69349 -23.355391 
L 233.29683 -23.355391 
L 232.900166 -23.355391 
L 232.503506 -23.355391 
L 232.106846 -23.355391 
L 231.710182 -23.355391 
L 231.313522 -23.355391 
L 230.916862 -23.355391 
L 230.520199 -23.355391 
L 230.123539 -23.355391 
L 229.726879 -23.355391 
L 229.330219 -23.355391 
L 228.933555 -23.355391 
L 228.536895 -23.355391 
L 228.140235 -23.355391 
L 227.743571 -23.355391 
L 227.346911 -23.355391 
L 226.950251 -23.355391 
L 226.553591 -23.355391 
L 226.156927 -23.355391 
L 225.760267 -23.355391 
L 225.363607 -23.355391 
L 224.966943 -23.355391 
L 224.570283 -23.355391 
L 224.173623 -23.355391 
L 223.776963 -23.355391 
L 223.3803 -23.355391 
L 222.98364 -23.355391 
L 222.58698 -23.355391 
L 222.190316 -23.355391 
L 221.793656 -23.355391 
L 221.396996 -23.355391 
L 221.000332 -23.355391 
L 220.603672 -23.355391 
L 220.207012 -23.355391 
L 219.810352 -23.355391 
L 219.413688 -23.355391 
L 219.017028 -23.355391 
L 218.620368 -23.355391 
L 218.223705 -23.355391 
L 217.827045 -23.355391 
L 217.430385 -23.355391 
L 217.033725 -23.355391 
L 216.637061 -23.355391 
L 216.240401 -23.355391 
L 215.843741 -23.355391 
L 215.447077 -23.355391 
L 215.050417 -23.355391 
L 214.653757 -23.355391 
L 214.257097 -23.355391 
L 213.860433 -23.355391 
L 213.463773 -23.355391 
L 213.067113 -23.355391 
L 212.670449 -23.355391 
L 212.273789 -23.355391 
L 211.877129 -23.355391 
L 211.480466 -23.355391 
L 211.083806 -23.355391 
L 210.687146 -23.355391 
L 210.290486 -23.355391 
L 209.893822 -23.355391 
L 209.497162 -23.355391 
L 209.100502 -23.355391 
L 208.703838 -23.355391 
L 208.307178 -23.355391 
L 207.910518 -23.355391 
L 207.513858 -23.355391 
L 207.117194 -23.355391 
L 206.720534 -23.355391 
L 206.323874 -23.355391 
L 205.927211 -23.355391 
L 205.530551 -23.355391 
L 205.133891 -23.355391 
L 204.737227 -23.355391 
L 204.340567 -23.355391 
L 203.943907 -23.355391 
L 203.547247 -23.355391 
L 203.150583 -23.355391 
L 202.753923 -23.355391 
L 202.357263 -23.355391 
L 201.960599 -23.355391 
L 201.563939 -23.355391 
L 201.167279 -23.355391 
L 200.770619 -23.355391 
L 200.373956 -23.355391 
L 199.977296 -23.355391 
L 199.580636 -23.355391 
L 199.183972 -23.355391 
L 198.787312 -23.355391 
L 198.390652 -23.355391 
L 197.993992 -23.355391 
L 197.597328 -23.355391 
L 197.200668 -23.355391 
L 196.804008 -23.355391 
L 196.407344 -23.355391 
L 196.010684 -23.355391 
L 195.614024 -23.355391 
L 195.21736 -23.355391 
L 194.8207 -23.355391 
L 194.42404 -23.355391 
L 194.02738 -23.355391 
L 193.630717 -23.355391 
L 193.234057 -23.355391 
L 192.837397 -23.355391 
L 192.440733 -23.355391 
L 192.044073 -23.355391 
L 191.647413 -23.355391 
L 191.250753 -23.355391 
L 190.854089 -23.355391 
L 190.457429 -23.355391 
L 190.060769 -23.355391 
L 189.664105 -23.355391 
L 189.267445 -23.355391 
L 188.870785 -23.355391 
L 188.474125 -23.355391 
L 188.077462 -23.355391 
L 187.680802 -23.355391 
L 187.284142 -23.355391 
L 186.887478 -23.355391 
L 186.490818 -23.355391 
L 186.094158 -23.355391 
L 185.697494 -23.355391 
L 185.300834 -23.355391 
L 184.904174 -23.355391 
L 184.507514 -23.355391 
L 184.11085 -23.355391 
L 183.71419 -23.355391 
L 183.31753 -23.355391 
L 182.920867 -23.355391 
L 182.524207 -23.355391 
L 182.127547 -23.355391 
L 181.730887 -23.355391 
L 181.334223 -23.355391 
L 180.937563 -23.355391 
L 180.540903 -23.355391 
L 180.144239 -23.355391 
L 179.747579 -23.355391 
L 179.350919 -23.355391 
L 178.954259 -23.355391 
L 178.557595 -23.355391 
L 178.160935 -23.355391 
L 177.764275 -23.355391 
L 177.367611 -23.355391 
L 176.970951 -23.355391 
L 176.574291 -23.355391 
L 176.177628 -23.355391 
L 175.780968 -23.355391 
L 175.384308 -23.355391 
L 174.987648 -23.355391 
L 174.590984 -23.355391 
L 174.194324 -23.355391 
L 173.797664 -23.355391 
L 173.401 -23.355391 
L 173.00434 -23.355391 
L 172.60768 -23.355391 
L 172.21102 -23.355391 
L 171.814356 -23.355391 
L 171.417696 -23.355391 
L 171.021036 -23.355391 
L 170.624373 -23.355391 
L 170.227713 -23.355391 
L 169.831053 -23.355391 
L 169.434389 -23.355391 
L 169.037729 -23.355391 
L 168.641069 -23.355391 
L 168.244409 -23.355391 
L 167.847745 -23.355391 
L 167.451085 -23.355391 
L 167.054425 -23.355391 
L 166.657761 -23.355391 
L 166.261101 -23.355391 
L 165.864441 -23.355391 
L 165.467781 -23.355391 
L 165.071117 -23.355391 
L 164.674457 -23.355391 
L 164.277797 -23.355391 
L 163.881134 -23.355391 
L 163.484474 -23.355391 
L 163.087814 -23.355391 
L 162.691154 -23.355391 
L 162.29449 -23.355391 
L 161.89783 -23.355391 
L 161.50117 -23.355391 
L 161.104506 -23.355391 
L 160.707846 -23.355391 
L 160.311186 -23.355391 
L 159.914522 -23.355391 
L 159.517862 -23.355391 
L 159.121202 -23.355391 
L 158.724542 -23.355391 
L 158.327879 -23.355391 
L 157.931219 -23.355391 
L 157.534559 -23.355391 
L 157.137895 -23.355391 
L 156.741235 -23.355391 
L 156.344575 -23.355391 
L 155.947915 -23.355391 
L 155.551251 -23.355391 
L 155.154591 -23.355391 
L 154.757931 -23.355391 
L 154.361267 -23.355391 
L 153.964607 -23.355391 
L 153.567947 -23.355391 
L 153.171287 -23.355391 
L 152.774624 -23.355391 
L 152.377964 -23.355391 
L 151.981304 -23.355391 
L 151.58464 -23.355391 
L 151.18798 -23.355391 
L 150.79132 -23.355391 
L 150.394656 -23.355391 
L 149.997996 -23.355391 
L 149.601336 -23.355391 
L 149.204676 -23.355391 
L 148.808012 -23.355391 
L 148.411352 -23.355391 
L 148.014692 -23.355391 
L 147.618028 -23.355391 
L 147.221368 -23.355391 
L 146.824708 -23.355391 
L 146.428048 -23.355391 
L 146.031385 -23.355391 
L 145.634725 -23.355391 
L 145.238065 -23.355391 
L 144.841401 -23.355391 
L 144.444741 -23.355391 
L 144.048081 -23.355391 
L 143.651421 -23.355391 
L 143.254757 -23.355391 
L 142.858097 -23.355391 
L 142.461437 -23.355391 
L 142.064773 -23.355391 
L 141.668113 -23.355391 
L 141.271453 -23.355391 
L 140.87479 -23.355391 
L 140.47813 -23.355391 
L 140.08147 -23.355391 
L 139.68481 -23.355391 
L 139.288146 -23.355391 
L 138.891486 -23.355391 
L 138.494826 -23.355391 
L 138.098162 -23.355391 
L 137.701502 -23.355391 
L 137.304842 -23.355391 
L 136.908182 -23.355391 
L 136.511518 -23.355391 
L 136.114858 -23.355391 
L 135.718198 -23.355391 
L 135.321535 -23.355391 
L 134.924875 -23.355391 
L 134.528215 -23.355391 
L 134.131551 -23.355391 
L 133.734891 -23.355391 
L 133.338231 -23.355391 
L 132.941571 -23.355391 
L 132.544907 -23.355391 
L 132.148247 -23.355391 
L 131.751587 -23.355391 
L 131.354923 -23.355391 
L 130.958263 -23.355391 
L 130.561603 -23.355391 
L 130.164943 -23.355391 
L 129.768279 -23.355391 
L 129.371619 -23.355391 
L 128.974959 -23.355391 
L 128.578296 -23.355391 
L 128.181636 -23.355391 
L 127.784976 -23.355391 
L 127.388316 -23.355391 
L 126.991652 -23.355391 
L 126.594992 -23.355391 
L 126.198332 -23.355391 
L 125.801668 -23.355391 
L 125.405008 -23.355391 
L 125.008348 -23.355391 
L 124.611684 -23.355391 
L 124.215024 -23.355391 
L 123.818364 -23.355391 
L 123.421704 -23.355391 
L 123.025041 -23.355391 
L 122.628381 -23.355391 
L 122.231721 -23.355391 
L 121.835057 -23.355391 
L 121.438397 -23.355391 
L 121.041737 -23.355391 
L 120.645077 -23.355391 
L 120.248413 -23.355391 
L 119.851753 -23.355391 
L 119.455093 -23.355391 
L 119.058429 -23.355391 
L 118.661769 -23.355391 
L 118.265109 -23.355391 
L 117.868449 -23.355391 
L 117.471785 -23.355391 
L 117.075125 -23.355391 
L 116.678465 -23.355391 
L 116.281802 -23.355391 
L 115.885142 -23.355391 
L 115.488482 -23.355391 
L 115.091818 -23.355391 
L 114.695158 -23.355391 
L 114.298498 -23.355391 
L 113.901838 -23.355391 
L 113.505174 -23.355391 
L 113.108514 -23.355391 
L 112.711854 -23.355391 
L 112.31519 -23.355391 
L 111.91853 -23.355391 
L 111.52187 -23.355391 
L 111.12521 -23.355391 
L 110.728547 -23.355391 
L 110.331887 -23.355391 
L 109.935227 -23.355391 
L 109.538563 -23.355391 
L 109.141903 -23.355391 
L 108.745243 -23.355391 
L 108.348579 -23.355391 
L 107.951919 -23.355391 
L 107.555259 -23.355391 
L 107.158599 -23.355391 
L 106.761935 -23.355391 
L 106.365275 -23.355391 
L 105.968615 -23.355391 
L 105.571952 -23.355391 
L 105.175292 -23.355391 
L 104.778632 -23.355391 
L 104.381972 -23.355391 
L 103.985308 -23.355391 
L 103.588648 -23.355391 
L 103.191988 -23.355391 
L 102.795324 -23.355391 
L 102.398664 -23.355391 
L 102.002004 -23.355391 
L 101.605344 -23.355391 
L 101.20868 -23.355391 
L 100.81202 -23.355391 
L 100.41536 -23.355391 
L 100.018696 -23.355391 
L 99.622036 -23.355391 
L 99.225376 -23.355391 
L 98.828713 -23.355391 
L 98.432053 -23.355391 
L 98.035393 -23.355391 
L 97.638733 -23.355391 
L 97.242069 -23.355391 
L 96.845409 -23.355391 
L 96.448749 -23.355391 
L 96.052085 -23.355391 
L 95.655425 -23.355391 
L 95.258765 -23.355391 
L 94.862105 -23.355391 
L 94.465441 -23.355391 
L 94.068781 -23.355391 
L 93.672121 -23.355391 
L 93.275458 -23.355391 
L 92.878798 -23.355391 
L 92.482138 -23.355391 
L 92.085478 -23.355391 
L 91.688814 -23.355391 
L 91.292154 -23.355391 
L 90.895494 -23.355391 
L 90.49883 -23.355391 
L 90.10217 -23.355391 
L 89.70551 -23.355391 
L 89.308846 -23.355391 
L 88.912186 -23.355391 
L 88.515526 -23.355391 
L 88.118866 -23.355391 
L 87.722203 -23.355391 
L 87.325543 -23.355391 
L 86.928883 -23.355391 
L 86.532219 -23.355391 
L 86.135559 -23.355391 
L 85.738899 -23.355391 
L 85.342239 -23.355391 
L 84.945575 -23.355391 
L 84.548915 -23.355391 
L 84.152255 -23.355391 
L 83.755591 -23.355391 
L 83.358931 -23.355391 
L 82.962271 -23.355391 
L 82.565611 -23.355391 
L 82.168947 -23.355391 
L 81.772287 -23.355391 
L 81.375627 -23.355391 
L 80.978964 -23.355391 
L 80.582304 -23.355391 
L 80.185644 -23.355391 
L 79.78898 -23.355391 
L 79.39232 -23.355391 
L 78.99566 -23.355391 
L 78.599 -23.355391 
L 78.202336 -23.355391 
L 77.805676 -23.355391 
L 77.409016 -23.355391 
L 77.012352 -23.355391 
L 76.615692 -23.355391 
L 76.219032 -23.355391 
L 75.822372 -23.355391 
L 75.425709 -23.355391 
L 75.029049 -23.355391 
L 74.632389 -23.355391 
L 74.235725 -23.355391 
L 73.839065 -23.355391 
L 73.442405 -23.355391 
L 73.045741 -23.355391 
L 72.649081 -23.355391 
L 72.252421 -23.355391 
L 71.855761 -23.355391 
L 71.459097 -23.355391 
L 71.062437 -23.355391 
L 70.665777 -23.355391 
L 70.269113 -23.355391 
L 69.872453 -23.355391 
L 69.475793 -23.355391 
L 69.079133 -23.355391 
L 68.68247 -23.355391 
L 68.28581 -23.355391 
L 67.88915 -23.355391 
L 67.492486 -23.355391 
L 67.095826 -23.355391 
L 66.699166 -23.355391 
L 66.302506 -23.355391 
L 65.905842 -23.355391 
L 65.509182 -23.355391 
L 65.112522 -23.355391 
L 64.715858 -23.355391 
L 64.319198 -23.355391 
L 63.922538 -23.355391 
L 63.525875 -23.355391 
L 63.129215 -23.355391 
L 62.732555 -23.355391 
L 62.335895 -23.355391 
L 61.939231 -23.355391 
L 61.542571 -23.355391 
L 61.145911 -23.355391 
L 60.749247 -23.355391 
L 60.352587 -23.355391 
L 59.955927 -23.355391 
L 59.559267 -23.355391 
L 59.162603 -23.355391 
L 58.765943 -23.355391 
L 58.369283 -23.355391 
L 57.97262 -23.355391 
L 57.57596 -23.355391 
L 57.1793 -23.355391 
L 56.78264 -23.355391 
L 56.385976 -23.355391 
L 55.989316 -23.355391 
L 55.592656 -23.355391 
L 55.195992 -23.355391 
L 54.799332 -23.355391 
L 54.402672 -23.355391 
L 54.006008 -23.355391 
L 53.609348 -23.355391 
L 53.212688 -23.355391 
L 52.816028 -23.355391 
L 52.419364 -23.355391 
L 52.022704 -23.355391 
L 51.626044 -23.355391 
L 51.229381 -23.355391 
L 50.832721 -23.355391 
L 50.436061 -23.355391 
L 50.039401 -23.355391 
L 49.642737 -23.355391 
L 49.246077 -23.355391 
L 48.849417 -23.355391 
L 48.452753 -23.355391 
L 48.056093 -23.355391 
L 47.659433 -23.355391 
L 47.262773 -23.355391 
L 46.866109 -23.355391 
L 46.469449 -23.355391 
L 46.072789 -23.355391 
L 45.676126 -23.355391 
L 45.279466 -23.355391 
L 44.882806 -23.355391 
L 44.486142 -23.355391 
L 44.089482 -23.355391 
L 43.692822 -23.355391 
L 43.296162 -23.355391 
L 42.899498 -23.355391 
L 42.502838 -23.355391 
L 42.106178 -23.355391 
L 41.709514 -23.355391 
L 41.312854 -23.355391 
L 40.916194 -23.355391 
L 40.519534 -23.355391 
L 40.122871 -23.355391 
L 39.726211 -23.355391 
L 39.329551 -23.355391 
L 38.932887 -23.355391 
L 38.536227 -23.355391 
L 38.139567 -23.355391 
L 37.742903 -23.355391 
L 37.346243 -23.355391 
L 36.949583 -23.355391 
L 36.552923 -23.355391 
L 36.156259 -23.355391 
L 35.759599 -23.355391 
L 35.362939 -23.355391 
L 34.966275 -23.355391 
L 34.569615 -23.355391 
L 34.172955 -23.355391 
L 33.776295 -23.355391 
L 33.379632 -23.355391 
L 32.982972 -23.355391 
L 32.586312 -23.355391 
L 32.189648 -23.355391 
L 31.792988 -23.355391 
L 31.396328 -23.355391 
L 30.999668 -23.355391 
L 30.603004 -23.355391 
L 30.206344 -23.355391 
L 29.809684 -23.355391 
L 29.41302 -23.355391 
L 29.01636 -23.355391 
L 28.6197 -23.355391 
L 28.223037 -23.355391 
L 27.826377 -23.355391 
L 27.429717 -23.355391 
L 27.033057 -23.355391 
L 26.636393 -23.355391 
L 26.239733 -23.355391 
L 25.843073 -23.355391 
L 25.446409 -23.355391 
L 25.049749 -23.355391 
L 24.653089 -23.355391 
L 24.256429 -23.355391 
L 23.859765 -23.355391 
L 23.463105 -23.355391 
L 23.066445 -23.355391 
L 22.669781 -23.355391 
L 22.273121 -23.355391 
L 21.876461 -23.355391 
L 21.479801 -23.355391 
L 21.083138 -23.355391 
L 20.686478 -23.355391 
L 20.289818 -23.355391 
L 19.893154 -23.355391 
L 19.496494 -23.355391 
L 19.099834 -23.355391 
L 18.70317 -23.355391 
L 18.30651 -23.355391 
L 17.90985 -23.355391 
L 17.51319 -23.355391 
L 17.116526 -23.355391 
L 16.719866 -23.355391 
L 16.323206 -23.355391 
L 15.926543 -23.355391 
L 15.529883 -23.355391 
L 15.133223 -23.355391 
L 14.736563 -23.355391 
L 14.339899 -23.355391 
L 13.943239 -23.355391 
L 13.546579 -23.355391 
L 13.149915 -23.355391 
L 12.753255 -23.355391 
L 12.356595 -23.355391 
L 11.959935 -23.355391 
L 11.563271 -23.355391 
L 11.166611 -23.355391 
L 10.769951 -23.355391 
L 10.373288 -23.355391 
L 9.976628 -23.355391 
L 9.579968 -23.355391 
L 9.183304 -23.355391 
L 8.786644 -23.355391 
L 8.389984 -23.355391 
L 7.993324 -23.355391 
L 7.59666 -23.355391 
L 7.2 -23.355391 
z
"/>
    </defs>
    <g clip-path="url(#p09b95e4edd)">
     <use xlink:href="#mdb3ecc081c" x="0" y="172.815391" style="fill: #94a3b8; fill-opacity: 0.55"/>
    </g>
   </g>
   <g id="patch_4">
    <path d="M 119.91572 26.897538 
Q 125.999355 26.897538 132.082991 26.897538 
" style="fill: none; stroke: #334155; stroke-width: 1.2; stroke-linecap: round"/>
    <path d="M 123.91572 28.897538 
L 119.91572 26.897538 
L 123.91572 24.897538 
" style="fill: none; stroke: #334155; stroke-width: 1.2; stroke-linecap: round"/>
    <path d="M 128.082991 24.897538 
L 132.082991 26.897538 
L 128.082991 28.897538 
" style="fill: none; stroke: #334155; stroke-width: 1.2; stroke-linecap: round"/>
   </g>
   <g id="text_3">
    <text style="font-size: 8.5px; font-family: 'Inter Tight', 'Inter', 'Helvetica Neue', 'Arial', 'DejaVu Sans'; text-anchor: middle; fill: #334155" x="126" y="19.648969" transform="rotate(-0 126 19.648969)">signal = 5</text>
   </g>
   <g id="text_4">
    <text style="font-weight: 700; font-size: 10px; font-family: 'Inter Tight', 'Inter', 'Helvetica Neue', 'Arial', 'DejaVu Sans'; text-anchor: start; fill: #d98410" x="14.328" y="24.298825" transform="rotate(-0 14.328 24.298825)">SD = 10  ·  d = 0.5</text>
   </g>
   <g id="line2d_3">
    <path d="M 7.2 147.827209 
L 11.959935 147.124225 
L 16.323206 146.261897 
L 20.289818 145.253668 
L 23.859765 144.12779 
L 27.429717 142.760854 
L 30.603004 141.315742 
L 33.776295 139.628721 
L 36.949583 137.675983 
L 40.122871 135.435007 
L 43.296162 132.885659 
L 46.469449 130.011042 
L 49.642737 126.798895 
L 52.816028 123.24247 
L 55.989316 119.341931 
L 59.162603 115.105124 
L 62.732555 109.957959 
L 66.699166 103.811809 
L 71.062437 96.620425 
L 77.012352 86.330703 
L 86.928883 69.108046 
L 90.895494 62.664853 
L 94.068781 57.872581 
L 96.845409 54.018701 
L 99.622036 50.540261 
L 102.002004 47.897129 
L 104.381972 45.597781 
L 106.365275 43.963372 
L 108.348579 42.599151 
L 110.331887 41.516229 
L 112.31519 40.723465 
L 113.901838 40.302601 
L 115.488482 40.073915 
L 117.075125 40.038557 
L 118.661769 40.196748 
L 120.248413 40.547664 
L 121.835057 41.089413 
L 123.818364 42.030521 
L 125.801668 43.257589 
L 127.784976 44.760552 
L 129.768279 46.527312 
L 132.148247 48.97558 
L 134.528215 51.755507 
L 137.304842 55.376393 
L 140.08147 59.352859 
L 143.651421 64.89568 
L 148.014692 72.155721 
L 154.757931 83.917629 
L 162.29449 96.981957 
L 167.054425 104.78479 
L 171.021036 110.865711 
L 174.590984 115.946001 
L 178.160935 120.617168 
L 181.334223 124.408945 
L 184.507514 127.855731 
L 187.680802 130.959693 
L 190.854089 133.729499 
L 194.02738 136.178945 
L 197.200668 138.326082 
L 200.373956 140.191948 
L 203.547247 141.799558 
L 206.720534 143.172967 
L 210.290486 144.468447 
L 213.860433 145.532333 
L 217.827045 146.482163 
L 222.190316 147.291797 
L 226.950251 147.949439 
L 232.503506 148.488884 
L 239.246745 148.908376 
L 244.8 149.122003 
L 244.8 149.122003 
" clip-path="url(#p09b95e4edd)" style="fill: none; stroke: #64748b; stroke-width: 1.8; stroke-linecap: square"/>
   </g>
   <g id="line2d_4">
    <path d="M 7.2 149.122003 
L 15.529883 148.76102 
L 21.876461 148.283348 
L 27.429717 147.646663 
L 32.189648 146.877845 
L 36.552923 145.939399 
L 40.519534 144.847178 
L 44.089482 143.632617 
L 47.659433 142.163915 
L 50.832721 140.617146 
L 54.006008 138.818045 
L 57.1793 136.743297 
L 60.352587 134.371231 
L 63.525875 131.683031 
L 66.699166 128.663637 
L 69.872453 125.303009 
L 73.045741 121.597308 
L 76.219032 117.549825 
L 79.78898 112.602737 
L 83.358931 107.268442 
L 87.325543 100.943775 
L 92.085478 92.922185 
L 100.81202 77.647411 
L 106.365275 68.141758 
L 110.331887 61.762861 
L 113.505174 57.040317 
L 116.281802 53.260253 
L 119.058429 49.866846 
L 121.438397 47.30477 
L 123.818364 45.093227 
L 125.801668 43.536446 
L 127.784976 42.253337 
L 129.768279 41.254352 
L 131.751587 40.547664 
L 133.338231 40.196748 
L 134.924875 40.038557 
L 136.511518 40.073915 
L 138.098162 40.302601 
L 139.68481 40.723465 
L 141.271453 41.334229 
L 143.254757 42.359739 
L 145.238065 43.668523 
L 147.221368 45.249882 
L 149.204676 47.091088 
L 151.58464 49.622771 
L 153.964607 52.478817 
L 156.741235 56.178456 
L 159.914522 60.82436 
L 163.484474 66.480165 
L 167.847745 73.830946 
L 176.970951 89.801162 
L 182.920867 99.937795 
L 187.284142 106.937166 
L 191.250753 112.865492 
L 194.8207 117.791816 
L 197.993992 121.819851 
L 201.167279 125.505747 
L 204.340567 128.846542 
L 207.513858 131.846571 
L 210.687146 134.516146 
L 213.860433 136.870546 
L 217.033725 138.928836 
L 220.207012 140.712741 
L 223.3803 142.24574 
L 226.553591 143.552055 
L 230.123539 144.780879 
L 234.09015 145.886678 
L 238.056761 146.761157 
L 242.420032 147.503202 
L 244.8 147.827209 
L 244.8 147.827209 
" clip-path="url(#p09b95e4edd)" style="fill: none; stroke: #2b90b6; stroke-width: 1.8; stroke-linecap: square"/>
   </g>
   <g id="line2d_5">
    <path d="M 116.571429 149.46 
L 116.571429 37.840615 
" clip-path="url(#p09b95e4edd)" style="fill: none; stroke-dasharray: 3,2; stroke-dashoffset: 0; stroke: #94a3b8; stroke-opacity: 0.9"/>
   </g>
   <g id="line2d_6">
    <path d="M 135.428571 149.46 
L 135.428571 37.840615 
" clip-path="url(#p09b95e4edd)" style="fill: none; stroke-dasharray: 3,2; stroke-dashoffset: 0; stroke: #94a3b8; stroke-opacity: 0.9"/>
   </g>
  </g>
 </g>
 <defs>
  <clipPath id="p09b95e4edd">
   <rect x="7.2" y="7.2" width="237.6" height="142.26"/>
  </clipPath>
 </defs>
</svg>
